<?xml version="1.0" encoding="UTF-8" standalone="no"?>
<svg
   version="1.1"
   x="0px"
   y="0px"
   viewBox="0 0 1600 1200"
   style="enable-background:new 0 0 1600 1200;"
   xml:space="preserve"
   width="1600px"
   height="1200px"
   id="svg1181"
   xmlns="http://www.w3.org/2000/svg"
   xmlns:svg="http://www.w3.org/2000/svg"><defs
   id="defs1185">
	
	
	
	
	
	
	
	
	
	
	
	
	
	
	
	
	
	
	
	
	
	
	
	
	

	
	
	
	
	
	
	
	
	
	
	
	
	
	
	
	
	
	
	
	
	
	
	
	
	
	
	
	
	
	
	
	
	
	
	
	
	
	
	
	
	
	
	
	
	
	
	
	
	
	
	
	
	
	
	
	
	
	
	
	
	
	
	
	
	
	
	
	
	
	
	
	
	
	
	

	
	
	
	

	
	
	
	
	

	
	
	
	
	
	
	
	
	
	
	
	
	
	
	
	

		
	</defs>

<g
   id="background">
	<g
   id="g6">
		<g
   id="g4">
			<path
   d="M228.4,1020.2c49.2,2.2,98.4,3.3,147.6,3.2c1.9,0,1.9-3,0-3c-49.2,0.1-98.4-1-147.6-3.2     C226.5,1017.1,226.5,1020.1,228.4,1020.2L228.4,1020.2z"
   style="fill:#E8E8E8;"
   id="path2" />
		</g>
	</g>
	<g
   id="g12">
		<g
   id="g10">
			<path
   d="M379,945.8c7.7,28.9,14.9,58,21.5,87.2c0.4,1.9,3.3,1.1,2.9-0.8c-6.7-29.2-13.8-58.3-21.5-87.2     C381.4,943.2,378.5,944,379,945.8L379,945.8z"
   style="fill:#E8E8E8;"
   id="path8" />
		</g>
	</g>
	<g
   id="g18">
		<g
   id="g16">
			<path
   d="M513,948c-2.8,27.5-5.6,55.1-8.3,82.6c-0.2,1.9,2.8,1.9,3,0c2.8-27.5,5.6-55.1,8.3-82.6     C516.1,946.1,513.1,946.1,513,948L513,948z"
   style="fill:#E8E8E8;"
   id="path14" />
		</g>
	</g>
	<g
   id="g24">
		<g
   id="g22">
			<path
   d="M401.3,1035.7c17.5,3.1,35.2,4.5,53,4c17-0.5,35.6-1.8,51.8-7.2c1.8-0.6,1-3.5-0.8-2.9     c-16.1,5.3-34.2,6.6-51,7.1c-17.5,0.5-35-0.9-52.2-3.9C400.2,1032.4,399.4,1035.3,401.3,1035.7L401.3,1035.7z"
   style="fill:#E8E8E8;"
   id="path20" />
		</g>
	</g>
	<g
   id="g30">
		<g
   id="g28">
			<path
   d="M380.2,946.8c20.7,5.8,43.2,5.9,64.6,6c23,0.2,46-1.1,68.8-3.7c1.9-0.2,1.9-3.2,0-3     c-22.2,2.6-44.5,3.8-66.8,3.7c-21.7-0.1-44.7-0.1-65.8-5.9C379.1,943.4,378.3,946.3,380.2,946.8L380.2,946.8z"
   style="fill:#E8E8E8;"
   id="path26" />
		</g>
	</g>
	<g
   id="g36">
		<g
   id="g34">
			<path
   d="M371.6,936.5c0.2,1.9,0.4,3.9,0.6,5.8c0.1,1.2,0.1,2.7,0.6,3.8c1.2,2.6,5.2,1.7,7.5,1.7c1.9,0,1.9-3,0-3     c-1.1,0-2.2,0-3.4,0c-1.5,0-1.5-0.3-1.6-1.8c-0.2-2.2-0.4-4.3-0.6-6.5C374.4,934.6,371.4,934.5,371.6,936.5L371.6,936.5z"
   style="fill:#E8E8E8;"
   id="path32" />
		</g>
	</g>
	<g
   id="g42">
		<g
   id="g40">
			<path
   d="M373.6,938.1c25,2.9,50.1,4.3,75.3,4.5c12.4,0.1,24.8-0.1,37.3-0.5c6.2-0.2,12.4-0.5,18.6-0.8     c2.9-0.1,6.9-1.1,9.8-0.5c3.5,0.6,3.3,3.6,3.7,6.7c0.3-0.6,0.7-1.2,1-1.8c-1.3,0-2.6,0-3.9,0c-1.9-0.4-2.7,2.5-0.8,2.9     c2,0.4,3.5,0.4,5.4,0c0.9-0.2,1.2-1.1,1-1.8c-0.5-3.5-0.1-7.9-4.3-8.8c-2.5-0.6-5.6,0.1-8.2,0.2c-3.3,0.2-6.5,0.3-9.8,0.5     c-14,0.6-28.1,1-42.2,1c-27.8,0-55.5-1.3-83.1-4.6C371.7,934.9,371.7,937.9,373.6,938.1L373.6,938.1z"
   style="fill:#E8E8E8;"
   id="path38" />
		</g>
	</g>
	<g
   id="g48">
		<g
   id="g46">
			<path
   d="M395.3,1010.8c8,10.5,17.4,19.6,28,27.4c1.6,1.1,3.1-1.5,1.5-2.6c-10.2-7.5-19.3-16.3-27-26.4     C396.7,1007.7,394.1,1009.2,395.3,1010.8L395.3,1010.8z"
   style="fill:#E8E8E8;"
   id="path44" />
		</g>
	</g>
	<g
   id="g54">
		<g
   id="g52">
			<path
   d="M388.6,980.3c15.6,22.5,34.8,42.2,57,58.3c1.6,1.1,3.1-1.5,1.5-2.6c-21.7-15.8-40.6-35.2-55.9-57.2     C390.1,977.2,387.5,978.7,388.6,980.3L388.6,980.3z"
   style="fill:#E8E8E8;"
   id="path50" />
		</g>
	</g>
	<g
   id="g60">
		<g
   id="g58">
			<path
   d="M382.5,953.5c27,32,57,61.9,92.8,84.1c1.6,1,3.2-1.6,1.5-2.6c-35.6-22-65.4-51.7-92.2-83.6     C383.4,949.9,381.3,952.1,382.5,953.5L382.5,953.5z"
   style="fill:#E8E8E8;"
   id="path56" />
		</g>
	</g>
	<g
   id="g66">
		<g
   id="g64">
			<path
   d="M411.2,951.8c25.7,29.9,54.2,58.3,86,81.7c1.6,1.1,3.1-1.5,1.5-2.6c-31.6-23.2-59.9-51.6-85.4-81.2     C412,948.2,409.9,950.3,411.2,951.8L411.2,951.8z"
   style="fill:#E8E8E8;"
   id="path62" />
		</g>
	</g>
	<g
   id="g72">
		<g
   id="g70">
			<path
   d="M444,953.9c17.4,21.3,37.4,40.3,59.6,56.6c1.6,1.1,3.1-1.5,1.5-2.6c-22-16.1-41.8-35-59-56.1     C444.9,950.3,442.8,952.4,444,953.9L444,953.9z"
   style="fill:#E8E8E8;"
   id="path68" />
		</g>
	</g>
	<g
   id="g78">
		<g
   id="g76">
			<path
   d="M470.8,952.8c11.2,12.6,24,23.4,38.2,32.5c1.6,1,3.1-1.6,1.5-2.6c-14-8.9-26.6-19.7-37.6-32     C471.6,949.2,469.5,951.3,470.8,952.8L470.8,952.8z"
   style="fill:#E8E8E8;"
   id="path74" />
		</g>
	</g>
	<g
   id="g84">
		<g
   id="g82">
			<path
   d="M332.4,788c6.5,13.7,10.9,28.1,13.4,43.1c0.1,0.7,0.8,1.1,1.4,1.1c0.6,0,3.8-0.1,4,0.9     c0.1,0.4-1.9,2.7-2.1,3.2c-0.6,1.6-0.6,3.5,0,5.1c0.8,1.9,2.3,3.2,4.1,3.9c0.6,0.3,1.3,0.4,2,0.5c0.6,0.1,1.2,0.1,1.8,0     c0.8-0.1,0.7,0-0.2,0.4c-1,1.5-2.4,1.7-2.8,3.9c-0.3,2.1,0.7,4.1,1.5,5.9c3.3,7,5.2,14.4,7.9,21.7c9.3,24.8,27.1,45.3,47.2,62.2     c1.5,1.2,3.6-0.9,2.1-2.1c-20.7-17.4-39.1-38.7-47.8-64.8c-1.1-3.4-2.1-6.8-3.3-10.1c-1-2.9-2.9-5.9-3.8-8.8     c-1-1.6-0.9-3.4,0.4-5.2c0.4-0.3,0.8-0.6,1.2-0.9c0.3-0.5,0.9-0.8,1.2-1.4c0.4-1.1,0.1-2.1-0.7-2.9c-1.3-1.3-3.3-0.6-5-1.1     c-6.5-1.9-1.2-6.3-0.7-9.5c0.7-4.2-4.5-3.7-7.3-3.9c0.5,0.4,1,0.7,1.4,1.1c-2.5-15.2-7.1-29.9-13.7-43.8     C334.2,784.7,331.6,786.2,332.4,788L332.4,788z"
   style="fill:#E8E8E8;"
   id="path80" />
		</g>
	</g>
	<g
   id="g90">
		<g
   id="g88">
			<path
   d="M333.5,787.3c32.5,8.7,61,30.8,81.7,57c22,27.8,35.7,61.2,43.1,95.7c0.4,1.9,3.3,1.1,2.9-0.8     c-7.5-35-21.5-68.8-43.8-97c-21-26.5-50-48.9-83-57.7C332.4,783.9,331.6,786.8,333.5,787.3L333.5,787.3z"
   style="fill:#E8E8E8;"
   id="path86" />
		</g>
	</g>
	<g
   id="g96">
		<g
   id="g94">
			<path
   d="M345.3,799.7c39.8,38.7,70.5,86.2,89.4,138.5c0.7,1.8,3.6,1,2.9-0.8c-19.1-52.7-50-100.7-90.2-139.8     C346.1,796.2,343.9,798.3,345.3,799.7L345.3,799.7z"
   style="fill:#E8E8E8;"
   id="path92" />
		</g>
	</g>
	<g
   id="g102">
		<g
   id="g100">
			<path
   d="M363,862.6c8.4,0.9,16.6,2.8,24.4,5.9c7.6,3,15.9,6.8,20.7,13.7c1.1,1.6,3.7,0.1,2.6-1.5     c-4.8-6.9-12.3-10.8-19.9-14c-8.9-3.8-18.2-6.1-27.9-7.1C361.1,859.4,361.1,862.4,363,862.6L363,862.6z"
   style="fill:#E8E8E8;"
   id="path98" />
		</g>
	</g>
	<g
   id="g108">
		<g
   id="g106">
			<path
   d="M377.9,807.8c-0.1,11.5,1.8,22.8,5.5,33.7c0.6,1.8,3.5,1,2.9-0.8c-3.6-10.6-5.4-21.6-5.4-32.9     C380.9,805.9,377.9,805.9,377.9,807.8L377.9,807.8z"
   style="fill:#E8E8E8;"
   id="path104" />
		</g>
	</g>
	<g
   id="g114">
		<g
   id="g112">
			<path
   d="M432.8,862.2c4.9-18.3,21.2-29.2,35.1-40.4c14.8-11.9,29.1-24.6,42.7-37.8c-0.8-0.5-1.7-1-2.5-1.5     c-4.5,12.1-5.4,24.8-5.2,37.6c0.2,12.8,3.1,27.5-1,39.9c0.5-0.4,1-0.7,1.4-1.1c-3.2,0.2-6.4,0.5-9.6,0.7c-1,0.1-2,1.3-1.3,2.3     c2.3,3.1,5,4.1,4.9,8.7c0,3.2-0.8,6.9-1.9,9.9c-1.1,3.1-4,5.2-5,8.1c-0.8,2.6,1.2,4.8,1.2,7.4c0.1,4.3-3,7.9-5.2,11.3     c-2.1,3.2-4,6.5-5.7,9.9c-3.4,6.7-6.1,13.6-8.1,20.8c-0.5,1.9,2.4,2.7,2.9,0.8c2.5-8.9,6.1-17.5,10.8-25.5     c3.2-5.4,9.2-11.7,8.5-18.5c-0.3-2.7-1.7-3.5-0.5-6.6c0.1-0.1,1.9-2.5,2-2.7c1.9-3.1,2.8-6.6,3.4-10.1c0.4-2.6,1.2-5.8,0.8-8.4     c-0.6-3.7-3.4-4-5.5-6.8c-0.4,0.8-0.9,1.5-1.3,2.3c3.2-0.2,6.4-0.5,9.6-0.7c0.7-0.1,1.2-0.4,1.4-1.1c3.8-11.6,1.5-25.1,1.1-37.1     c-0.4-13.7,0.1-27.5,5-40.5c0.6-1.5-1.5-2.4-2.5-1.5c-14.5,14.1-29.7,27.6-45.6,40.2c-13.6,10.8-28.3,21.8-33,39.4     C429.4,863.3,432.3,864.1,432.8,862.2L432.8,862.2z"
   style="fill:#E8E8E8;"
   id="path110" />
		</g>
	</g>
	<g
   id="g120">
		<g
   id="g118">
			<path
   d="M499.5,797c-9.8,17.1-19.8,34-29.2,51.3c-8.8,16-16.6,32.6-20.3,50.5c-0.4,1.9,2.5,2.7,2.9,0.8     c3.8-18.3,11.9-35.1,20.9-51.4c9.2-16.7,18.9-33.1,28.3-49.7C503,796.9,500.4,795.3,499.5,797L499.5,797z"
   style="fill:#E8E8E8;"
   id="path116" />
		</g>
	</g>
	<g
   id="g126">
		<g
   id="g124">
			<path
   d="M470,824.8c1.3,5.7,1.9,11.4,1.7,17.2c-0.1,1.9,2.9,1.9,3,0c0.2-6.1-0.4-12-1.8-18     C472.4,822.1,469.6,822.9,470,824.8L470,824.8z"
   style="fill:#E8E8E8;"
   id="path122" />
		</g>
	</g>
	<g
   id="g132">
		<g
   id="g130">
			<path
   d="M486.3,805.7c1.1,4.3,1.3,8.5,0.8,12.8c-0.2,1.9,2.8,1.9,3,0c0.6-4.6,0.3-9.1-0.9-13.6     C488.7,803.1,485.8,803.9,486.3,805.7L486.3,805.7z"
   style="fill:#E8E8E8;"
   id="path128" />
		</g>
	</g>
	<g
   id="g138">
		<g
   id="g136">
			<path
   d="M487,825.6c5.9-3.5,12-6.6,18.3-9.2c1.8-0.7,1-3.6-0.8-2.9c-6.6,2.7-12.9,5.9-19.1,9.5     C483.8,824,485.3,826.6,487,825.6L487,825.6z"
   style="fill:#E8E8E8;"
   id="path134" />
		</g>
	</g>
	<g
   id="g144">
		<g
   id="g142">
			<path
   d="M461.2,875.8c3.8-3.2,7.6-6.3,11.5-9.3c4.1-3.2,8.6-7.5,13.6-9.5c1.8-0.7,1-3.6-0.8-2.9c-4.5,1.7-8.2,5-12,8     c-4.9,3.8-9.7,7.6-14.4,11.6C457.6,874.9,459.7,877,461.2,875.8L461.2,875.8z"
   style="fill:#E8E8E8;"
   id="path140" />
		</g>
	</g>
	<g
   id="g150">
		<g
   id="g148">
			<path
   d="M345.4,819.7c7,0.7,14,1.4,21,2c1.9,0.2,1.9-2.8,0-3c-7-0.7-14-1.4-21-2     C343.5,816.5,343.5,819.5,345.4,819.7L345.4,819.7z"
   style="fill:#E8E8E8;"
   id="path146" />
		</g>
	</g>
	<g
   id="g156">
		<g
   id="g154">
			<path
   d="M528.9,1019.2c125.3,0,250.5,0,375.8,0c35.3,0,70.6,0,105.9,0c1.9,0,1.9-3,0-3c-125.3,0-250.5,0-375.8,0     c-35.3,0-70.6,0-105.9,0C526.9,1016.2,526.9,1019.2,528.9,1019.2L528.9,1019.2z"
   style="fill:#E8E8E8;"
   id="path152" />
		</g>
	</g>
	<g
   id="g162">
		<g
   id="g160">
			<path
   d="M952.7,774.2c0,14.6,0,29.2,0,43.8c0,1.9,3,1.9,3,0c0-14.6,0-29.2,0-43.8     C955.7,772.3,952.7,772.3,952.7,774.2L952.7,774.2z"
   style="fill:#E8E8E8;"
   id="path158" />
		</g>
	</g>
	<g
   id="g168">
		<g
   id="g166">
			<path
   d="M883.7,824.7c48.5,0,97,0,145.5,0c1.9,0,1.9-3,0-3c-48.5,0-97,0-145.5,0     C881.8,821.7,881.7,824.7,883.7,824.7L883.7,824.7z"
   style="fill:#E8E8E8;"
   id="path164" />
		</g>
	</g>
	<g
   id="g174">
		<g
   id="g172">
			<path
   d="M916.3,825.5c0,12.6,0,25.2,0,37.9c0,1.9,3,1.9,3,0c0-12.6,0-25.2,0-37.9     C919.3,823.5,916.3,823.5,916.3,825.5L916.3,825.5z"
   style="fill:#E8E8E8;"
   id="path170" />
		</g>
	</g>
	<g
   id="g180">
		<g
   id="g178">
			<path
   d="M991.3,824.7c0,11.1,0,22.3,0,33.4c0,1.9,3,1.9,3,0c0-11.1,0-22.3,0-33.4     C994.3,822.8,991.3,822.8,991.3,824.7L991.3,824.7z"
   style="fill:#E8E8E8;"
   id="path176" />
		</g>
	</g>
	<g
   id="g186">
		<g
   id="g184">
			<path
   d="M943.8,866.3c37.1,0,74.2,0,111.3,0c1.9,0,1.9-3,0-3c-37.1,0-74.2,0-111.3,0     C941.9,863.3,941.9,866.3,943.8,866.3L943.8,866.3z"
   style="fill:#E8E8E8;"
   id="path182" />
		</g>
	</g>
	<g
   id="g192">
		<g
   id="g190">
			<path
   d="M859.9,1048.2c81.9,0,163.8,0,245.7,0c1.9,0,1.9-3,0-3c-81.9,0-163.8,0-245.7,0     C858,1045.2,858,1048.2,859.9,1048.2L859.9,1048.2z"
   style="fill:#E8E8E8;"
   id="path188" />
		</g>
	</g>
	<g
   id="g198">
		<g
   id="g196">
			<path
   d="M1198.6,1022.3c80.4,0,160.9,0,241.3,0c22.6,0,45.2,0,67.8,0c1.9,0,1.9-3,0-3c-80.4,0-160.9,0-241.3,0     c-22.6,0-45.2,0-67.8,0C1196.7,1019.3,1196.7,1022.3,1198.6,1022.3L1198.6,1022.3z"
   style="fill:#E8E8E8;"
   id="path194" />
		</g>
	</g>
	<g
   id="g204">
		<g
   id="g202">
			<path
   d="M201.7,1073.5c82.4,0,164.9,0,247.3,0c1.9,0,1.9-3,0-3c-82.4,0-164.9,0-247.3,0     C199.8,1070.5,199.8,1073.5,201.7,1073.5L201.7,1073.5z"
   style="fill:#E8E8E8;"
   id="path200" />
		</g>
	</g>
	<g
   id="g210">
		<g
   id="g208">
			<path
   d="M367.9,1103.5c67.3,0,134.6,0,201.9,0c1.9,0,1.9-3,0-3c-67.3,0-134.6,0-201.9,0     C365.9,1100.5,365.9,1103.5,367.9,1103.5L367.9,1103.5z"
   style="fill:#E8E8E8;"
   id="path206" />
		</g>
	</g>
	<g
   id="g216">
		<g
   id="g214">
			<path
   d="M1391,248.5c0-27.9,0-55.7,0-83.6c0-1.9-3-1.9-3,0c0,27.9,0,55.7,0,83.6C1388,250.4,1391,250.4,1391,248.5     L1391,248.5z"
   style="fill:#E8E8E8;"
   id="path212" />
		</g>
	</g>
	<g
   id="g222">
		<g
   id="g220">
			<path
   d="M1390.5,164.3c36.1,0,72.2,0,108.3,0c1.9,0,1.9-3,0-3c-36.1,0-72.2,0-108.3,0     C1388.6,161.3,1388.6,164.3,1390.5,164.3L1390.5,164.3z"
   style="fill:#E8E8E8;"
   id="path218" />
		</g>
	</g>
	<g
   id="g228">
		<g
   id="g226">
			<path
   d="M1497.3,163c-0.2,28.3-0.4,56.6-0.7,84.9c0,1.9,3,1.9,3,0c0.2-28.3,0.4-56.6,0.7-84.9     C1500.3,161.1,1497.3,161.1,1497.3,163L1497.3,163z"
   style="fill:#E8E8E8;"
   id="path224" />
		</g>
	</g>
	<g
   id="g234">
		<g
   id="g232">
			<path
   d="M1391,250c35.6,0,71.2,0,106.8,0c1.9,0,1.9-3,0-3c-35.6,0-71.2,0-106.8,0C1389.1,247,1389.1,250,1391,250     L1391,250z"
   style="fill:#E8E8E8;"
   id="path230" />
		</g>
	</g>
	<g
   id="g240">
		<g
   id="g238">
			<path
   d="M1393.9,170.7c0,23.5,0,46.9,0,70.4c0,1.9,3,1.9,3,0c0-23.5,0-46.9,0-70.4     C1396.9,168.8,1393.9,168.8,1393.9,170.7L1393.9,170.7z"
   style="fill:#E8E8E8;"
   id="path236" />
		</g>
	</g>
	<g
   id="g246">
		<g
   id="g244">
			<path
   d="M1396.1,172.2c31.6,0,63.1,0,94.7,0c1.9,0,1.9-3,0-3c-31.6,0-63.1,0-94.7,0     C1394.1,169.2,1394.1,172.2,1396.1,172.2L1396.1,172.2z"
   style="fill:#E8E8E8;"
   id="path242" />
		</g>
	</g>
	<g
   id="g252">
		<g
   id="g250">
			<path
   d="M1489.2,171.4c-0.1,23-0.2,46-0.3,69.1c0,1.9,3,1.9,3,0c0.1-23,0.2-46,0.3-69.1     C1492.2,169.5,1489.2,169.5,1489.2,171.4L1489.2,171.4z"
   style="fill:#E8E8E8;"
   id="path248" />
		</g>
	</g>
	<g
   id="g258">
		<g
   id="g256">
			<path
   d="M1396.7,243c31.1,0,62.2,0,93.3,0c1.9,0,1.9-3,0-3c-31.1,0-62.2,0-93.3,0C1394.8,240,1394.8,243,1396.7,243     L1396.7,243z"
   style="fill:#E8E8E8;"
   id="path254" />
		</g>
	</g>
	<g
   id="g264">
		<g
   id="g262">
			<path
   d="M1396.1,222.3c11.5-4,23.6-0.4,34.8,2.9c11.4,3.3,22.6,7.3,33.5,11.9c1.8,0.7,2.6-2.2,0.8-2.9     c-12.1-5.1-24.5-9.4-37.1-12.9c-10.7-2.9-22-5.7-32.8-1.9C1393.5,220,1394.3,222.9,1396.1,222.3L1396.1,222.3z"
   style="fill:#E8E8E8;"
   id="path260" />
		</g>
	</g>
	<g
   id="g270">
		<g
   id="g268">
			<path
   d="M1434.1,225.7c18.9-1.1,36.6-8.7,55.3-10.8c1.9-0.2,1.9-3.2,0-3c-18.7,2.1-36.4,9.6-55.3,10.8     C1432.1,222.9,1432.1,225.9,1434.1,225.7L1434.1,225.7z"
   style="fill:#E8E8E8;"
   id="path266" />
		</g>
	</g>
	<g
   id="g276">
		<g
   id="g274">
			<path
   d="M1469.9,189.1c-4.2-2.4-0.4-10.3,4.1-8.4c2.4,1,2.9,3.9,1.6,6c-1.4,2.3-4.3,2.7-6.7,2     c-1.9-0.5-2.7,2.4-0.8,2.9c4,1.1,8.5-0.1,10.5-4c1.8-3.5,0.4-8.1-3.4-9.7c-7.8-3.3-14.2,9.7-6.8,13.8     C1470,192.6,1471.6,190,1469.9,189.1L1469.9,189.1z"
   style="fill:#E8E8E8;"
   id="path272" />
		</g>
	</g>
	<g
   id="g282">
		<g
   id="g280">
			<path
   d="M1439.3,162.3c0.1-1.7,0.2-3.4,0.7-5c0.4-1.3,1.4-4.4,2.9-5c2.7-1,3.7,8.5,3.9,10.3c0.2,1.9,3.2,1.9,3,0     c-0.3-3.5-1.1-14.5-6.7-13.7c-2.4,0.3-4.1,3-5,5c-1.2,2.6-1.6,5.5-1.7,8.3C1436.3,164.2,1439.3,164.2,1439.3,162.3L1439.3,162.3z     "
   style="fill:#E8E8E8;"
   id="path278" />
		</g>
	</g>
	<g
   id="g288">
		<g
   id="g286">
			<path
   d="M1456.1,628.8c0,12,0,24.1,0,36.1c0,1.9,3,1.9,3,0c0-12,0-24.1,0-36.1     C1459.1,626.9,1456.1,626.9,1456.1,628.8L1456.1,628.8z"
   style="fill:#E8E8E8;"
   id="path284" />
		</g>
	</g>
	<g
   id="g294">
		<g
   id="g292">
			<path
   d="M1419.8,669.3c27.2,0,54.5,0,81.7,0c1.9,0,1.9-3,0-3c-27.2,0-54.5,0-81.7,0     C1417.9,666.3,1417.9,669.3,1419.8,669.3L1419.8,669.3z"
   style="fill:#E8E8E8;"
   id="path290" />
		</g>
	</g>
	<g
   id="g300">
		<g
   id="g298">
			<path
   d="M1431.3,670.2c0,5.7,0,11.3,0,17c0,1.9,3,1.9,3,0c0-5.7,0-11.3,0-17C1434.3,668.3,1431.3,668.3,1431.3,670.2     L1431.3,670.2z"
   style="fill:#E8E8E8;"
   id="path296" />
		</g>
	</g>
	<g
   id="g306">
		<g
   id="g304">
			<path
   d="M1475,671.1c0,6.7,0,13.5,0,20.2c0,1.9,3,1.9,3,0c0-6.7,0-13.5,0-20.2C1478,669.1,1475,669.1,1475,671.1     L1475,671.1z"
   style="fill:#E8E8E8;"
   id="path302" />
		</g>
	</g>
	<g
   id="g312">
		<g
   id="g310">
			<path
   d="M1453.8,695.2c18.9,0,37.8,0,56.7,0c1.9,0,1.9-3,0-3c-18.9,0-37.8,0-56.7,0     C1451.9,692.2,1451.9,695.2,1453.8,695.2L1453.8,695.2z"
   style="fill:#E8E8E8;"
   id="path308" />
		</g>
	</g>
</g>
<g
   id="cat">
	<path
   d="M761.9,987.6c31.5-21.3,47.3-32,51.4-33.3c10-3.2,42.4-13.5,70.7,3.8c20.3,12.4,39,39.3,31.2,57.3   c-5.6,12.8-22.7,16.8-38.2,20.5c-22.9,5.4-42.5,2.4-53.5-0.2c-4.3,4.2-11.2,9.8-20.9,13.5c-16.1,6.2-34.7,5.1-35.6,1.4   c-0.4-1.9,3.6-5.6,23-13.2c-2.3-2.5-5.7-5.5-10.5-7.6c-14.2-6.5-28.4-0.2-31.1,1.1c13.9,8.1,16.9,12.3,16.2,14.6   c-1.8,5.8-30.1,7.7-37.7-5.6c-0.8-1.3-3-5.8-1.2-14.3C729.3,1010,742.3,1000.9,761.9,987.6z"
   style="fill:#161616;"
   id="path315" />
	<path
   d="M899.1,1009.8c3.2-6.6,17.6-5,23.2-4.4c7.2,0.8,13.6,1.5,19.4,6.6c4.4,3.8,10.8,12.1,8.5,18.8   c-2.1,6.4-10,5.9-25.3,13.4c-2.6,1.3-27.6,13.6-25.9,21.7c0.7,3.3,5.2,3.2,19.5,9.3c12.4,5.2,19.7,8.4,25.8,15.4   c3,3.5,9,10.4,7.4,17.4c-3,12.9-29.8,15.1-30.5,13.1c-0.6-1.7,18.2-6.4,18.4-15.2c0.2-6.7-10.3-12.1-16.9-15.6   c-19.4-10.1-32.5-6.5-37.6-16.2c-2.9-5.5-1.3-11.4-1-12.5c1.5-5.4,5.7-10,26.2-20.3c18.7-9.4,27-11.6,26.9-15.8   c-0.1-3.9-7.3-7.1-11.7-8.2c-12.4-3.3-21.5,4.5-25.7,0.1C898,1015.4,898.1,1012,899.1,1009.8z"
   style="fill:#161616;"
   id="path317" />
	<path
   d="M728.3,961.4c6.3,4.7,12.6,9.4,18.9,14.1c9-0.9,17.9-1.7,26.9-2.6c5.6-5.4,11.2-10.9,16.8-16.3   c0.4,3.4,1.2,11.1,1.5,14.8c3.5,33.3,3.8,36.2,1.7,40c-6.9,12.3-30.2,17.3-43.6,8.7c-6.5-4.2-9-10.5-13.7-22.6   C731.1,982.9,729.1,970.1,728.3,961.4z"
   style="fill:#161616;"
   id="path319" />
	<g
   id="g325">
		<g
   id="g323">
			<path
   d="M753.7,996c-1.5,3.1-4.8,5-8.2,4.4c-0.9-0.2-1.3,1.3-0.4,1.4c4.1,0.7,8.2-1.3,9.9-5.1     C755.4,995.9,754.2,995.1,753.7,996L753.7,996z"
   style="fill:#FFFFFF;"
   id="path321" />
		</g>
	</g>
	<g
   id="g331">
		<g
   id="g329">
			<path
   d="M767.6,995c3.3,3.2,7.7,4.6,12.2,3.9c1-0.1,0.5-1.6-0.4-1.4c-4,0.6-7.9-0.7-10.8-3.5     C767.9,993.3,766.9,994.3,767.6,995L767.6,995z"
   style="fill:#FFFFFF;"
   id="path327" />
		</g>
	</g>
	<g
   id="g337">
		<g
   id="g335">
			<path
   d="M762.3,1004.5C762.3,1004.5,762.3,1004.5,762.3,1004.5c-0.3,0-0.5-0.1-0.8-0.1c0.1-0.1,0.1-0.3,0.2-0.4     c0.2,0.2,0.5,0.4,0.7,0.6c0-0.2-0.1-0.3-0.1-0.5c-0.3-0.9-1.7-0.5-1.4,0.4c0.5,2.2,1.3,5.6-1.4,6.7c-0.9,0.4-0.5,1.8,0.4,1.4     c3.6-1.5,3.2-5.4,2.5-8.6c-0.5,0.1-1,0.3-1.4,0.4c0,0.2,0.1,0.3,0.1,0.5c0.1,0.3,0.4,0.6,0.7,0.6c2.6-0.2,0.5-3.8-0.7-1.7     C760.6,1004.5,761.8,1005.3,762.3,1004.5L762.3,1004.5z"
   style="fill:#FFFFFF;"
   id="path333" />
		</g>
	</g>
	<g
   id="g343">
		<g
   id="g341">
			<path
   d="M761.3,1005.2c0.5,1.7,0.6,3.6,1.7,5.1c0.9,1.2,2.3,1.8,3.8,1.5c0.9-0.2,0.5-1.6-0.4-1.4     c-2.8,0.6-3.2-3.8-3.7-5.6C762.5,1003.9,761.1,1004.3,761.3,1005.2L761.3,1005.2z"
   style="fill:#FFFFFF;"
   id="path339" />
		</g>
	</g>
	<g
   id="g349">
		<g
   id="g347">
			<path
   d="M756.5,1006.6c-2.9-1.3-5.9-1.9-9.1-1.7c-1,0.1-1,1.6,0,1.5c2.9-0.2,5.7,0.3,8.3,1.5     C756.6,1008.3,757.4,1007,756.5,1006.6L756.5,1006.6z"
   style="fill:#FFFFFF;"
   id="path345" />
		</g>
	</g>
	<g
   id="g355">
		<g
   id="g353">
			<path
   d="M753.9,1008.6c-2.5,0.2-4.7,1.2-6.4,2.9c-0.7,0.7,0.4,1.7,1.1,1.1c1.5-1.4,3.3-2.3,5.4-2.5     C754.8,1010,754.8,1008.5,753.9,1008.6L753.9,1008.6z"
   style="fill:#FFFFFF;"
   id="path351" />
		</g>
	</g>
	<g
   id="g361">
		<g
   id="g359">
			<path
   d="M768.2,1005.9c2.9-1.1,5.8-1.5,8.9-1.2c1,0.1,1-1.4,0-1.5c-3.2-0.3-6.3,0.2-9.3,1.3     C766.9,1004.8,767.2,1006.3,768.2,1005.9L768.2,1005.9z"
   style="fill:#FFFFFF;"
   id="path357" />
		</g>
	</g>
	<g
   id="g367">
		<g
   id="g365">
			<path
   d="M770.2,1008.6c2.2-0.3,4.3-0.1,6.4,0.7c0.9,0.3,1.3-1.1,0.4-1.4c-2.2-0.8-4.5-1-6.8-0.7     C769.2,1007.2,769.2,1008.8,770.2,1008.6L770.2,1008.6z"
   style="fill:#FFFFFF;"
   id="path363" />
		</g>
	</g>
	<g
   id="g373">
		<g
   id="g371">
			<path
   d="M746.6,991.6c1.5-0.9,3.3-0.9,4.8,0c0.8,0.5,1.6-0.8,0.8-1.3c-2-1.1-4.3-1.1-6.3,0     C745,990.8,745.8,992.1,746.6,991.6L746.6,991.6z"
   style="fill:#FFFFFF;"
   id="path369" />
		</g>
	</g>
	<g
   id="g379">
		<g
   id="g377">
			<path
   d="M767.6,989.6c1.5-0.8,3.2-1,5-0.8c0.9,0.1,1.4-1.3,0.4-1.4c-2.1-0.3-4.2,0-6.1,1     C765.9,988.7,766.7,990,767.6,989.6L767.6,989.6z"
   style="fill:#FFFFFF;"
   id="path375" />
		</g>
	</g>
	<g
   id="g385">
		<g
   id="g383">
			<path
   d="M743.7,958.2c3.1-1.3,6.2-2.6,9.2-4c-0.6-0.4-1.1-0.8-1.7-1.3c-1.2,3.8-3,7.2-5.4,10.4     c-0.6,0.8,0.4,2,1.3,1.7c3.4-1.3,6.8-2.5,10.2-3.8c1.3-0.5,0.8-2.7-0.6-2.2c-3.4,1.3-6.8,2.5-10.2,3.8c0.4,0.6,0.8,1.1,1.3,1.7     c2.6-3.3,4.4-6.9,5.7-10.9c0.3-1-0.8-1.6-1.7-1.3c-3.1,1.3-6.2,2.6-9.2,4C741.2,956.9,742.4,958.8,743.7,958.2L743.7,958.2z"
   style="fill:#161616;"
   id="path381" />
		</g>
	</g>
	<g
   id="g391">
		<g
   id="g389">
			<path
   d="M748.7,940c2.1-1.2,4.2-2,6.5-2.5c-0.4-0.6-0.8-1.1-1.3-1.7c-0.9,2-2,4-3.3,5.8c-0.5,0.8,0.2,1.6,1,1.7     c2.7,0.2,5.2-0.5,7.3-2.1c1.1-0.9,0-2.8-1.1-1.9c-1.8,1.4-3.8,2-6.1,1.8c0.3,0.6,0.6,1.1,1,1.7c1.3-1.9,2.4-3.8,3.3-5.8     c0.4-0.9-0.3-1.9-1.3-1.7c-2.5,0.5-4.9,1.4-7.1,2.7C746.3,938.8,747.4,940.7,748.7,940L748.7,940z"
   style="fill:#161616;"
   id="path387" />
		</g>
	</g>
	<g
   id="g397">
		<g
   id="g395">
			<path
   d="M765.2,964.2c-3.3-3.3,2.4-5.2,3-8.1c0.6-3.4-3.4-6.6,1.1-9.2c1.3-0.7,0.1-2.7-1.1-1.9     c-1.6,0.9-2.9,2.3-3.3,4.2c-0.6,3.2,2.2,5.1-0.2,8c-1.1,1.4-2.4,1.8-2.8,3.7c-0.4,1.9,0.4,3.5,1.7,4.9     C764.7,966.8,766.3,965.2,765.2,964.2L765.2,964.2z"
   style="fill:#161616;"
   id="path393" />
		</g>
	</g>
</g>
<path
   d="m 1041.3,678.7 c -250.7,18.1 -501.4,36.1 -752,54.2 -6.8,-181.8 -13.6,-363.6 -20.3,-545.4 251.8,-3.4 503.6,-6.8 755.4,-10.2 5.6,167.1 11.2,334.2 16.9,501.4 z"
   style="fill:#ffffff;stroke:#161616;stroke-width:3.5;stroke-miterlimit:10"
   id="path400" /><g
   id="g406">
		<g
   id="g404">
			<path
   d="m 482,276 c 48.6,0 97.3,0 145.9,0 1.9,0 1.9,-3 0,-3 -48.6,0 -97.3,0 -145.9,0 -1.9,0 -1.9,3 0,3 z"
   style="fill:#161616"
   id="path402" />
		</g>
	</g><g
   id="g412">
		<g
   id="g410">
			<path
   d="m 536.6,288.3 c 50.1,0 100.2,0 150.3,0 1.9,0 1.9,-3 0,-3 -50.1,0 -100.2,0 -150.3,0 -2,0 -2,3 0,3 z"
   style="fill:#161616"
   id="path408" />
		</g>
	</g><g
   id="g418">
		<g
   id="g416">
			<path
   d="m 299.4,581.7 c 1.8,41.8 3.6,83.7 5.4,125.5 0.1,1.9 3.1,1.9 3,0 -1.8,-41.8 -3.6,-83.7 -5.4,-125.5 -0.1,-1.9 -3.1,-1.9 -3,0 z"
   style="fill:#161616"
   id="path414" />
		</g>
	</g><g
   id="g424">
		<g
   id="g422">
			<path
   d="m 519.7,557.3 c 4.3,0 8.6,0 13,0 1.9,0 1.9,-3 0,-3 -4.3,0 -8.6,0 -13,0 -1.9,0 -1.9,3 0,3 z"
   style="fill:#161616"
   id="path420" />
		</g>
	</g><g
   id="g430">
		<g
   id="g428">
			<path
   d="m 544,557.3 c 11.1,0 22.1,0 33.2,0 1.9,0 1.9,-3 0,-3 -11.1,0 -22.1,0 -33.2,0 -1.9,0 -1.9,3 0,3 z"
   style="fill:#161616"
   id="path426" />
		</g>
	</g><g
   id="g436">
		<g
   id="g434">
			<path
   d="m 602.3,555.7 c 13.2,0 26.4,0 39.7,0 1.9,0 1.9,-3 0,-3 -13.2,0 -26.4,0 -39.7,0 -1.9,0 -1.9,3 0,3 z"
   style="fill:#161616"
   id="path432" />
		</g>
	</g><g
   id="g442">
		<g
   id="g440">
			<path
   d="m 537.6,578.3 c 16.2,0 32.4,0 48.6,0 1.9,0 1.9,-3 0,-3 -16.2,0 -32.4,0 -48.6,0 -2,0 -2,3 0,3 z"
   style="fill:#161616"
   id="path438" />
		</g>
	</g><g
   id="g448">
		<g
   id="g446">
			<path
   d="m 561,567 c 18.9,0 37.8,0 56.7,0 1.9,0 1.9,-3 0,-3 -18.9,0 -37.8,0 -56.7,0 -1.9,0 -1.9,3 0,3 z"
   style="fill:#161616"
   id="path444" />
		</g>
	</g><g
   id="g454">
		<g
   id="g452">
			<path
   d="m 661.4,673.9 c 31.8,0 63.7,0 95.5,0 1.9,0 1.9,-3 0,-3 -31.8,0 -63.7,0 -95.5,0 -1.9,0 -1.9,3 0,3 z"
   style="fill:#161616"
   id="path450" />
		</g>
	</g><g
   id="g460">
		<g
   id="g458">
			<path
   d="m 739.9,682 c 16.7,0 33.5,0 50.2,0 1.9,0 1.9,-3 0,-3 -16.7,0 -33.5,0 -50.2,0 -1.9,0 -1.9,3 0,3 z"
   style="fill:#161616"
   id="path456" />
		</g>
	</g><g
   id="g466">
		<g
   id="g464">
			<path
   d="m 783.6,669.8 c 16.5,0 32.9,0 49.4,0 1.9,0 1.9,-3 0,-3 -16.5,0 -32.9,0 -49.4,0 -1.9,0 -1.9,3 0,3 z"
   style="fill:#161616"
   id="path462" />
		</g>
	</g><g
   id="g472">
		<g
   id="g470">
			<path
   d="m 867.8,398.7 c 30.5,0 61,0 91.5,0 1.9,0 1.9,-3 0,-3 -30.5,0 -61,0 -91.5,0 -1.9,0 -1.9,3 0,3 z"
   style="fill:#161616"
   id="path468" />
		</g>
	</g><g
   id="g478">
		<g
   id="g476">
			<path
   d="m 839.5,403.5 c 9.7,0 19.4,0 29.1,0 1.9,0 1.9,-3 0,-3 -9.7,0 -19.4,0 -29.1,0 -2,0 -2,3 0,3 z"
   style="fill:#161616"
   id="path474" />
		</g>
	</g><g
   id="g484">
		<g
   id="g482">
			<path
   d="m 845.1,411.6 c 32.6,0 65.3,0 97.9,0 1.9,0 1.9,-3 0,-3 -32.6,0 -65.3,0 -97.9,0 -1.9,0 -1.9,3 0,3 z"
   style="fill:#161616"
   id="path480" />
		</g>
	</g><g
   id="g490">
		<g
   id="g488">
			<path
   d="m 965.8,404.3 c 6.2,0 12.4,0 18.6,0 1.9,0 1.9,-3 0,-3 -6.2,0 -12.4,0 -18.6,0 -2,0 -2,3 0,3 z"
   style="fill:#161616"
   id="path486" />
		</g>
	</g><g
   id="g496">
		<g
   id="g494">
			<path
   d="m 941.5,526.5 c 9.2,0 18.3,0 27.5,0 1.9,0 1.9,-3 0,-3 -9.2,0 -18.3,0 -27.5,0 -2,0 -2,3 0,3 z"
   style="fill:#161616"
   id="path492" />
		</g>
	</g><g
   id="g502">
		<g
   id="g500">
			<path
   d="m 923.7,534.6 c 10,0 20,0 29.9,0 1.9,0 1.9,-3 0,-3 -10,0 -20,0 -29.9,0 -2,0 -2,3 0,3 z"
   style="fill:#161616"
   id="path498" />
		</g>
	</g><g
   id="g508">
		<g
   id="g506">
			<path
   d="m 938.2,542.7 c 19.7,0 39.4,0 59.1,0 1.9,0 1.9,-3 0,-3 -19.7,0 -39.4,0 -59.1,0 -1.9,0 -1.9,3 0,3 z"
   style="fill:#161616"
   id="path504" />
		</g>
	</g><g
   id="g514">
		<g
   id="g512">
			<path
   d="m 975.5,533 c 5.9,0 11.9,0 17.8,0 1.9,0 1.9,-3 0,-3 -5.9,0 -11.9,0 -17.8,0 -2,0 -2,3 0,3 z"
   style="fill:#161616"
   id="path510" />
		</g>
	</g><g
   id="g520">
		<g
   id="g518">
			<path
   d="m 563.6,408.3 c 14,0 27.9,0 41.9,0 1.9,0 1.9,-3 0,-3 -14,0 -27.9,0 -41.9,0 -1.9,0 -1.9,3 0,3 z"
   style="fill:#161616"
   id="path516" />
		</g>
	</g><g
   id="g526">
		<g
   id="g524">
			<path
   d="m 594.1,416.9 c 20.6,0 41.3,0 61.9,0 1.9,0 1.9,-3 0,-3 -20.6,0 -41.3,0 -61.9,0 -1.9,0 -2,3 0,3 z"
   style="fill:#161616"
   id="path522" />
		</g>
	</g><g
   id="g532">
		<g
   id="g530">
			<path
   d="m 648.4,405.4 c 11.7,0 23.5,0 35.2,0 1.9,0 1.9,-3 0,-3 -11.7,0 -23.5,0 -35.2,0 -1.9,0 -1.9,3 0,3 z"
   style="fill:#161616"
   id="path528" />
		</g>
	</g><g
   id="g538">
		<g
   id="g536">
			<path
   d="m 290.5,245.8 c 2.2,75.9 4.4,151.9 6.6,227.8 0.6,21.6 1.2,43.1 1.9,64.7 0.1,1.9 3.1,1.9 3,0 -2.2,-75.9 -4.4,-151.9 -6.6,-227.8 -0.6,-21.6 -1.2,-43.1 -1.9,-64.7 0,-1.9 -3,-1.9 -3,0 z"
   style="fill:#161616"
   id="path534" />
		</g>
	</g><g
   id="g544">
		<g
   id="g542">
			<path
   d="m 1017.4,493.9 c 1.5,50.2 3,100.3 4.5,150.5 0.1,1.9 3.1,1.9 3,0 -1.5,-50.2 -3,-100.3 -4.5,-150.5 0,-1.9 -3,-1.9 -3,0 z"
   style="fill:#161616"
   id="path540" />
		</g>
	</g>
<path
   d="m 810.3,470.9 c 0.6,6.1 1.2,12.3 1.7,18.4 5.8,-1.5 11.5,-3.1 17.3,-4.6 -0.8,-6.1 -1.5,-12.3 -2.3,-18.4 -5.6,1.5 -11.1,3.1 -16.7,4.6 z"
   style="fill:#13cff2;fill-opacity:1"
   id="path547" /><path
   d="m 806.8,517.6 c 6,-0.8 11.9,-1.5 17.9,-2.3 0.8,7.3 1.5,14.6 2.3,21.9 -5.4,0.2 -10.8,0.4 -16.1,0.6 -1.4,-6.8 -2.7,-13.5 -4.1,-20.2 z"
   style="fill:#13cff2;fill-opacity:1"
   id="path549" /><path
   d="m 828.7,561.9 c 1.9,6.3 3.8,12.7 5.8,19 5.4,-2.5 10.8,-5 16.1,-7.5 -1.7,-5.6 -3.5,-11.1 -5.2,-16.7 -5.5,1.8 -11.1,3.5 -16.7,5.2 z"
   style="fill:#13cff2;fill-opacity:1"
   id="path551" /><path
   d="m 433.4,621.5 c 1.3,19.4 2.6,38.8 3.9,58.1 34,-2.2 68,-4.3 102,-6.5 0.6,-17.4 1.3,-34.9 1.9,-52.3 -35.9,0.3 -71.9,0.5 -107.8,0.7 z"
   style="fill:#9759e4;fill-opacity:1"
   id="path553" /><ellipse
   cx="856.09998"
   cy="220.89999"
   rx="7.0999999"
   ry="5.9000001"
   style="fill:#9759e4;fill-opacity:1"
   id="ellipse555" /><ellipse
   cx="373.60001"
   cy="267.10001"
   rx="5.9000001"
   ry="3.9000001"
   style="fill:#13cff2;fill-opacity:1"
   id="ellipse557" /><ellipse
   cx="467.5"
   cy="378.70001"
   rx="4.5999999"
   ry="5.4000001"
   style="fill:#13cff2;fill-opacity:1"
   id="ellipse559" /><path
   d="m 425.3,249.4 c 1.8,-0.3 5.3,16.4 13.9,46.7 11.3,39.9 22.5,72.1 30.6,94.1 -12.3,7.6 -39.8,22.1 -77.3,22.6 -26.5,0.3 -47.4,-6.5 -59.8,-11.7 24.3,2.7 43.9,2 57.6,0.7 21.7,-2 17.9,-4.3 34.3,-5.1 6.8,-0.3 15.7,-0.3 24.8,-5.8 3.3,-2 5.7,-4.2 7.3,-5.8 -6.4,-13.2 -14.6,-32.6 -21.2,-56.9 -10.5,-39.5 -12.8,-78.3 -10.2,-78.8 z"
   style="opacity:0.21;fill:#6d6c6c"
   id="path561" /><path
   d="m 519,357.9 c 1.6,12.7 4.5,26.9 9.3,42.1 13.7,43.2 36.8,74 54.2,93 -10.4,7.7 -23.3,15.7 -38.8,22.4 -47,20.3 -90.9,17.3 -114.4,13.7 -0.9,-5.3 -1.8,-10.6 -2.7,-15.9 10,0.3 20.6,0.1 31.7,-0.5 39.6,-2.5 73.6,-11.4 100.7,-21.3 -8.6,-14.6 -14.8,-27.2 -19.1,-36.7 -10.4,-22.7 -18.1,-39.8 -20.8,-62.9 -1.7,-14.1 -1,-26 -0.1,-33.9 z"
   style="opacity:0.25;fill:#6d6c6c"
   id="path563" /><path
   d="m 836.9,424.1 c 1,22.8 3.4,41.7 5.5,55.3 4.9,31.2 8.5,52.8 21.3,77.1 8,15.1 17,26.2 23.5,33.4 -11.3,9.7 -26.5,20.7 -46,29.5 -49,22.3 -95,17.8 -116.5,14.2 -1.1,-4.9 -2.2,-9.8 -3.3,-14.8 2.7,0.2 6.9,0.4 12,0.5 17,0.4 52.4,1 93,-12.6 11.4,-3.8 27.4,-10.2 45.4,-20.8 -7.1,-9.5 -14.1,-20.8 -20.2,-33.9 -24.1,-51.7 -19.3,-101.9 -14.7,-127.9 z"
   style="opacity:0.14;fill:#6d6c6c"
   id="path565" /><path
   d="m 913.5,199.8 c 2,9.3 4.9,23.5 7.8,41.2 5.4,34.2 5,46.6 11.3,66.8 3.3,10.5 9.2,25.4 20.3,42.4 -9.3,7.6 -20.9,15.5 -35.2,22.1 -46.8,21.7 -91.6,15.6 -112.2,11.3 0.2,-4 0.4,-8 0.6,-11.9 2.6,0.7 6.5,1.6 11.3,2.4 6.3,1 29.6,4.4 73.4,-6.6 12.1,-3 28.4,-7.8 47.1,-15.5 -3.6,-6.4 -8.9,-16.4 -13.7,-29.2 -14,-37.1 -13.9,-69.3 -13.7,-85.9 0.1,-9.1 0.7,-21.8 3,-37.1 z"
   style="opacity:0.18;fill:#6d6c6c"
   id="path567" /><g
   id="g573">
		<g
   id="g571">
			<path
   d="m 315.7,243.7 c -9.9,52.4 0.1,105.4 10.1,157 0.4,1.9 3.3,1.1 2.9,-0.8 -9.9,-51 -19.8,-103.5 -10.1,-155.4 0.3,-1.8 -2.6,-2.7 -2.9,-0.8 z"
   style="fill:#161616"
   id="path569" />
		</g>
	</g><g
   id="g579">
		<g
   id="g577">
			<path
   d="m 318.5,243.3 c 14.3,9.6 31.6,11.3 48.5,10.1 19.3,-1.4 38.4,-5.5 57.5,-8.7 1.9,-0.3 1.1,-3.2 -0.8,-2.9 -18.3,3 -36.6,6.9 -55.1,8.4 -16.9,1.4 -34.2,0.1 -48.6,-9.6 -1.6,-1 -3.1,1.6 -1.5,2.7 z"
   style="fill:#161616"
   id="path575" />
		</g>
	</g><g
   id="g585">
		<g
   id="g583">
			<path
   d="m 422.5,246.8 c 2.8,47.8 10,96.6 34.2,138.6 1,1.7 3.6,0.2 2.6,-1.5 -23.9,-41.6 -31,-89.9 -33.8,-137.1 -0.1,-1.9 -3.1,-1.9 -3,0 z"
   style="fill:#161616"
   id="path581" />
		</g>
	</g><g
   id="g591">
		<g
   id="g589">
			<path
   d="m 328.3,401.5 c 22.7,6.6 47.1,2.6 70.2,0.7 20.5,-1.7 42.5,-2.5 60.1,-14.5 1.6,-1.1 0.1,-3.7 -1.5,-2.6 -17.7,12.1 -39.9,12.5 -60.5,14.2 -22.2,1.8 -45.6,5.5 -67.5,-0.8 -1.9,-0.4 -2.7,2.5 -0.8,3 z"
   style="fill:#161616"
   id="path587" />
		</g>
	</g><g
   id="g595">
			<path
   d="m 366.7,267.7 c -2,-0.9 0.2,-2.8 1.4,-3.1 1.5,-0.4 4.4,-0.6 5.1,1.1 0.5,1.3 -0.3,3 -1.5,3.5 -1.9,0.9 -4,-0.2 -5.3,-1.5 -1.4,-1.4 -3.5,0.7 -2.1,2.1 2.5,2.5 6.6,3.8 9.7,1.5 2.5,-1.8 3.4,-5.8 1.3,-8.2 -2.4,-2.7 -7.5,-2.4 -10.2,-0.4 -2.4,1.8 -2.9,6.1 0.2,7.5 1.7,0.9 3.2,-1.7 1.4,-2.5 z"
   style="fill:#161616"
   id="path593" />
		</g><g
   id="g603">
		<g
   id="g601">
			<path
   d="m 406.8,401.9 c -7.2,36.5 0.5,73.4 8.3,109.2 0.4,1.9 3.3,1.1 2.9,-0.8 -7.7,-35.2 -15.3,-71.6 -8.3,-107.6 0.4,-1.9 -2.5,-2.7 -2.9,-0.8 z"
   style="fill:#161616"
   id="path599" />
		</g>
	</g><g
   id="g609">
		<g
   id="g607">
			<path
   d="m 448.1,363.6 c 23.1,-4.4 46.5,-6 69.9,-5.1 -0.5,-0.5 -1,-1 -1.5,-1.5 -4.7,48.2 15.9,94.1 40.9,134 1,1.6 3.6,0.1 2.6,-1.5 C 535.3,450 514.8,404.7 519.5,357 c 0.1,-0.8 -0.8,-1.5 -1.5,-1.5 -23.7,-0.9 -47.4,0.8 -70.7,5.2 -1.9,0.4 -1.1,3.3 0.8,2.9 z"
   style="fill:#161616"
   id="path605" />
		</g>
	</g><g
   id="g615">
		<g
   id="g613">
			<path
   d="m 416.7,513.2 c 48.6,5.7 97.9,-1.6 142.9,-20.8 1.8,-0.8 0.2,-3.3 -1.5,-2.6 -44.4,19 -93.4,26 -141.4,20.4 -1.9,-0.2 -1.9,2.8 0,3 z"
   style="fill:#161616"
   id="path611" />
		</g>
	</g><g
   id="g621">
		<g
   id="g619">
			<path
   d="m 466.9,375.9 c 0,-0.1 0.3,-0.6 0.3,-0.8 0.1,-0.4 0.4,-0.8 0.7,-1.1 0.6,-0.5 1.3,-0.9 2.1,-1 1.5,-0.2 2.9,0.6 3.3,2.1 0.3,1.2 -0.2,2.8 -1.6,3 -1.3,0.2 -2.5,-0.7 -2.7,-2 -0.3,-1.9 -3.2,-1.1 -2.9,0.8 0.5,3.5 5,5.2 7.9,3.5 3.2,-1.9 3,-6.8 0.3,-9.1 -3,-2.5 -8,-1.2 -9.7,2.2 -0.8,1.7 -0.8,4 1.1,5 1.5,0.8 3.7,0.1 4.1,-1.8 0.3,-1.9 -2.6,-2.7 -2.9,-0.8 z"
   style="fill:#161616"
   id="path617" />
		</g>
	</g><g
   id="g627">
		<g
   id="g625">
			<path
   d="m 325.6,298.1 c 26.6,3.7 53,-1.8 78.5,-9.1 1.9,-0.5 1.1,-3.4 -0.8,-2.9 -25,7.1 -50.9,12.7 -76.9,9.1 -1.9,-0.3 -2.7,2.6 -0.8,2.9 z"
   style="fill:#161616"
   id="path623" />
		</g>
	</g><g
   id="g633">
		<g
   id="g631">
			<path
   d="m 330.6,317.7 c 13.8,1.5 27.6,0.1 40.9,-4.1 1.8,-0.6 1.1,-3.5 -0.8,-2.9 -13,4.1 -26.5,5.4 -40.1,4 -1.9,-0.2 -1.9,2.8 0,3 z"
   style="fill:#161616"
   id="path629" />
		</g>
	</g><g
   id="g639">
		<g
   id="g637">
			<path
   d="m 330.6,341.9 c 26.4,3.1 53,1.2 78.6,-5.5 1.9,-0.5 1.1,-3.4 -0.8,-2.9 -25.4,6.7 -51.7,8.5 -77.8,5.4 -1.9,-0.3 -1.9,2.7 0,3 z"
   style="fill:#161616"
   id="path635" />
		</g>
	</g><g
   id="g645">
		<g
   id="g643">
			<path
   d="m 429.4,495.4 c 26.5,1.2 53,-2 78.4,-9.6 1.8,-0.5 1.1,-3.4 -0.8,-2.9 -25.2,7.5 -51.3,10.7 -77.6,9.5 -2,-0.1 -2,2.9 0,3 z"
   style="fill:#161616"
   id="path641" />
		</g>
	</g><g
   id="g651">
		<g
   id="g649">
			<path
   d="m 434.5,472.5 c 11.8,-0.4 23.6,-1.3 35.4,-2.6 1.9,-0.2 1.9,-3.2 0,-3 -11.8,1.3 -23.5,2.2 -35.4,2.6 -1.9,0.1 -1.9,3.1 0,3 z"
   style="fill:#161616"
   id="path647" />
		</g>
	</g><g
   id="g657">
		<g
   id="g655">
			<path
   d="m 444.1,431.3 c 7.8,1 15.9,-1 23.6,-2.1 8.5,-1.3 16.9,-2.5 25.4,-3.8 1.9,-0.3 1.1,-3.2 -0.8,-2.9 -7.8,1.2 -15.7,2.4 -23.5,3.5 -8.1,1.2 -16.5,3.4 -24.7,2.3 -1.9,-0.3 -1.9,2.7 0,3 z"
   style="fill:#161616"
   id="path653" />
		</g>
	</g><g
   id="g663">
		<g
   id="g661">
			<path
   d="m 797.5,207.1 c -10.9,53.5 -12,108.5 -3.3,162.4 0.3,1.9 3.2,1.1 2.9,-0.8 -8.6,-53.3 -7.4,-107.9 3.3,-160.8 0.4,-1.9 -2.5,-2.7 -2.9,-0.8 z"
   style="fill:#161616"
   id="path659" />
		</g>
	</g><g
   id="g669">
		<g
   id="g667">
			<path
   d="m 800.9,207.8 c 36.3,-8.3 73.8,-10 110.8,-5 1.9,0.3 2.7,-2.6 0.8,-2.9 -37.5,-5.1 -75.5,-3.4 -112.4,5 -1.8,0.5 -1,3.4 0.8,2.9 z"
   style="fill:#161616"
   id="path665" />
		</g>
	</g><g
   id="g675">
		<g
   id="g673">
			<path
   d="m 910.8,200.1 c -1.1,51.5 -0.4,105.9 25.7,152 1,1.7 3.5,0.2 2.6,-1.5 -25.8,-45.6 -26.4,-99.5 -25.3,-150.5 0.1,-1.9 -2.9,-1.9 -3,0 z"
   style="fill:#161616"
   id="path671" />
		</g>
	</g><g
   id="g681">
		<g
   id="g679">
			<path
   d="m 796.5,371.1 c 11.2,3.4 23.2,3.6 34.8,3.7 12.5,0.1 25,-0.7 37.5,-2.4 23.9,-3.2 47.2,-9.7 69.5,-19.1 1.8,-0.7 0.2,-3.3 -1.5,-2.6 -22.3,9.4 -45.8,15.8 -69.8,18.9 -11.2,1.4 -22.5,2.2 -33.8,2.1 -11.9,0 -24.4,-0.1 -35.8,-3.6 -2,-0.4 -2.7,2.5 -0.9,3 z"
   style="fill:#161616"
   id="path677" />
		</g>
	</g><g
   id="g687">
		<g
   id="g685">
			<path
   d="m 857.7,211 c -3.4,1.2 -4.9,5.1 -3.7,8.4 1.4,3.7 5.7,4.6 8.9,2.4 3.1,-2.2 4.1,-6.6 1.1,-9.4 -2.6,-2.4 -7.1,-2.5 -9.5,0.1 -1.3,1.4 0.8,3.5 2.1,2.1 3,-3.2 8.9,1.3 4.8,4.5 -1.6,1.2 -3.9,1.2 -4.6,-0.9 -0.5,-1.6 0,-3.8 1.7,-4.4 1.8,-0.6 1,-3.5 -0.8,-2.8 z"
   style="fill:#161616"
   id="path683" />
		</g>
	</g><g
   id="g693">
		<g
   id="g691">
			<path
   d="m 799,253.6 c 27.3,0.7 54.5,0.2 81.7,-1.6 1.9,-0.1 1.9,-3.1 0,-3 -27.2,1.8 -54.5,2.4 -81.7,1.6 -2,0 -2,3 0,3 z"
   style="fill:#161616"
   id="path689" />
		</g>
	</g><g
   id="g699">
		<g
   id="g697">
			<path
   d="m 801.7,268.8 c 10.2,0.4 20.4,0.8 30.5,1.2 1.9,0.1 1.9,-2.9 0,-3 -10.2,-0.4 -20.4,-0.8 -30.5,-1.2 -2,-0.1 -2,2.9 0,3 z"
   style="fill:#161616"
   id="path695" />
		</g>
	</g><g
   id="g705">
		<g
   id="g703">
			<path
   d="m 798.9,290 c 25.7,1.4 51.7,2.6 77,-3 1.9,-0.4 1.1,-3.3 -0.8,-2.9 -25.1,5.5 -50.8,4.3 -76.2,2.9 -1.9,-0.1 -1.9,2.9 0,3 z"
   style="fill:#161616"
   id="path701" />
		</g>
	</g><g
   id="g711">
		<g
   id="g709">
			<path
   d="m 426.1,615.1 c -2.3,20 -3.1,40.1 -2.4,60.2 0.1,1.9 3.1,1.9 3,0 -0.7,-20.1 0.1,-40.2 2.4,-60.2 0.2,-1.9 -2.8,-1.9 -3,0 z"
   style="fill:#161616"
   id="path707" />
		</g>
	</g><g
   id="g717">
		<g
   id="g715">
			<path
   d="m 427.1,616.3 c 35.6,0 71.3,-0.5 106.9,-1.6 1.9,-0.1 1.9,-3.1 0,-3 -35.6,1.1 -71.3,1.6 -106.9,1.6 -1.9,0 -1.9,3 0,3 z"
   style="fill:#161616"
   id="path713" />
		</g>
	</g><g
   id="g723">
		<g
   id="g721">
			<path
   d="m 533.7,613.3 c 0.3,17.4 0.6,34.7 0.9,52.1 0,1.9 3,1.9 3,0 -0.3,-17.4 -0.6,-34.7 -0.9,-52.1 0,-1.9 -3.1,-1.9 -3,0 z"
   style="fill:#161616"
   id="path719" />
		</g>
	</g><g
   id="g729">
		<g
   id="g727">
			<path
   d="m 423.4,673.1 c 0.2,6.5 11.5,3.6 15.2,3.4 10.6,-0.7 21.2,-1.4 31.7,-2.2 21.5,-1.5 43,-2.9 64.5,-4.4 1.9,-0.1 1.9,-3.1 0,-3 -18.3,1.2 -36.5,2.5 -54.8,3.7 -8.7,0.6 -17.4,1.2 -26.1,1.8 -2.6,0.2 -27.5,2.6 -27.6,0.7 0.1,-1.9 -2.9,-1.9 -2.9,0 z"
   style="fill:#161616"
   id="path725" />
		</g>
	</g><g
   id="g735">
		<g
   id="g733">
			<path
   d="m 435.2,629.8 c 24,-1.1 48,-0.2 71.8,2.8 1.9,0.2 1.9,-2.8 0,-3 -23.8,-3 -47.8,-3.9 -71.8,-2.8 -2,0.1 -2,3.1 0,3 z"
   style="fill:#161616"
   id="path731" />
		</g>
	</g><g
   id="g741">
		<g
   id="g739">
			<path
   d="m 436.1,645 c 13.4,-1 26.9,-2.1 40.3,-3.1 1.9,-0.1 1.9,-3.1 0,-3 -13.4,1 -26.9,2.1 -40.3,3.1 -1.9,0.1 -1.9,3.1 0,3 z"
   style="fill:#161616"
   id="path737" />
		</g>
	</g><g
   id="g747">
		<g
   id="g745">
			<path
   d="m 440.6,660.3 c 19.3,-2.5 40.3,-7.6 59.7,-4.1 1.9,0.3 2.7,-2.5 0.8,-2.9 -19.8,-3.6 -40.8,1.4 -60.5,4 -1.8,0.3 -1.9,3.3 0,3 z"
   style="fill:#161616"
   id="path743" />
		</g>
	</g><g
   id="g753">
		<g
   id="g751">
			<path
   d="m 700.7,444.9 c -15.9,56.6 -13.9,117.2 5.6,172.7 0.6,1.8 3.5,1 2.9,-0.8 -19.3,-55 -21.3,-115 -5.6,-171.1 0.5,-1.9 -2.4,-2.7 -2.9,-0.8 z"
   style="fill:#161616"
   id="path749" />
		</g>
	</g><g
   id="g759">
		<g
   id="g757">
			<path
   d="m 702.7,445.9 c 44.5,-0.2 88.8,-6 131.9,-17.3 1.9,-0.5 1.1,-3.4 -0.8,-2.9 -42.8,11.2 -86.8,17 -131.1,17.2 -2,0 -2,3 0,3 z"
   style="fill:#161616"
   id="path755" />
		</g>
	</g><g
   id="g765">
		<g
   id="g763">
			<path
   d="m 833.8,426.8 c -1.8,27.8 -0.6,55.8 4.4,83.3 2.5,13.9 5.5,27.8 11,40.8 5.5,12.9 13.1,24.6 22,35.3 1.2,1.5 3.4,-0.6 2.1,-2.1 -9.1,-10.9 -16.8,-23 -22.2,-36.2 -5.1,-12.6 -7.9,-26.1 -10.2,-39.4 -4.8,-26.9 -5.9,-54.4 -4.2,-81.7 0.2,-1.9 -2.8,-1.9 -2.9,0 z"
   style="fill:#161616"
   id="path761" />
		</g>
	</g><g
   id="g771">
		<g
   id="g769">
			<path
   d="m 706.7,619.2 c 56.6,4 115.7,-2.4 165.3,-31.6 1.7,-1 0.2,-3.6 -1.5,-2.6 -49.3,29 -107.8,35.1 -163.8,31.2 -1.9,-0.2 -1.9,2.8 0,3 z"
   style="fill:#161616"
   id="path767" />
		</g>
	</g><g
   id="g777">
		<g
   id="g775">
			<path
   d="m 766.9,454.9 c -1.7,-2.9 1.7,-6.5 4.6,-4.2 3.1,2.5 -0.2,6.5 -3.5,5.2 -1.8,-0.7 -2.6,2.2 -0.8,2.9 2.7,1.1 6,-0.1 7.6,-2.5 1.8,-2.7 1,-6.1 -1.5,-8 -5.4,-4.3 -12.2,2.4 -9,8.1 1,1.7 3.6,0.2 2.6,-1.5 z"
   style="fill:#161616"
   id="path773" />
		</g>
	</g><g
   id="g783">
		<g
   id="g781">
			<path
   d="m 703.7,489.4 c 29.9,-0.5 59.8,-2.6 89.6,-6.2 1.9,-0.2 1.9,-3.2 0,-3 -29.7,3.7 -59.6,5.7 -89.6,6.2 -1.9,0.1 -1.9,3.1 0,3 z"
   style="fill:#161616"
   id="path779" />
		</g>
	</g><g
   id="g789">
		<g
   id="g787">
			<path
   d="m 804,469.3 c 0.9,4.6 1.8,9.3 2.7,13.9 0.4,1.9 3.3,1.1 2.9,-0.8 -0.9,-4.6 -1.8,-9.3 -2.7,-13.9 -0.3,-1.9 -3.2,-1.1 -2.9,0.8 z"
   style="fill:#161616"
   id="path785" />
		</g>
	</g><g
   id="g795">
		<g
   id="g793">
			<path
   d="m 806,468.9 c 5.5,-0.8 11,-1.6 16.6,-2.5 1.9,-0.3 1.1,-3.2 -0.8,-2.9 -5.5,0.8 -11,1.6 -16.6,2.5 -1.9,0.3 -1.1,3.2 0.8,2.9 z"
   style="fill:#161616"
   id="path791" />
		</g>
	</g><g
   id="g801">
		<g
   id="g799">
			<path
   d="m 821.7,465.5 c 0.8,4.3 1.5,8.6 2.3,12.8 0.3,1.9 3.2,1.1 2.9,-0.8 -0.8,-4.3 -1.5,-8.6 -2.3,-12.8 -0.3,-1.8 -3.2,-1 -2.9,0.8 z"
   style="fill:#161616"
   id="path797" />
		</g>
	</g><g
   id="g807">
		<g
   id="g805">
			<path
   d="m 809.2,485.5 c 5.9,-1.2 11.5,-2.8 17.1,-5 1.8,-0.7 1,-3.6 -0.8,-2.9 -5.6,2.1 -11.3,3.8 -17.1,5 -1.9,0.4 -1.1,3.3 0.8,2.9 z"
   style="fill:#161616"
   id="path803" />
		</g>
	</g><g
   id="g813">
		<g
   id="g811">
			<path
   d="m 809.7,472.3 c 1.1,2.5 2.6,4.5 4.8,6.2 0.8,0.6 2.3,0.6 2.5,-0.7 0.8,-5.4 2.7,-10.2 5.9,-14.7 1.1,-1.6 -1.5,-3.1 -2.6,-1.5 -3.3,4.6 -5.4,9.8 -6.2,15.4 0.8,-0.2 1.7,-0.4 2.5,-0.7 -1.9,-1.5 -3.3,-3.3 -4.3,-5.6 -0.8,-1.7 -3.4,-0.2 -2.6,1.6 z"
   style="fill:#161616"
   id="path809" />
		</g>
	</g><g
   id="g819">
		<g
   id="g817">
			<path
   d="m 810.8,515.2 c -1.6,7.2 -0.9,14.2 2,20.9 0.8,1.8 3.3,0.2 2.6,-1.5 -2.6,-5.9 -3.1,-12.3 -1.7,-18.6 0.4,-1.9 -2.5,-2.7 -2.9,-0.8 z"
   style="fill:#161616"
   id="path815" />
		</g>
	</g><g
   id="g825">
		<g
   id="g823">
			<path
   d="m 812.8,516.2 c 6,-1 12,-1.9 18,-2.9 -0.6,-0.6 -1.2,-1.2 -1.8,-1.8 -1,6.4 -0.3,12.5 2.2,18.5 0.7,1.8 3.6,1 2.9,-0.8 -2.3,-5.4 -3.1,-11.1 -2.2,-16.9 0.2,-1.2 -0.6,-2 -1.8,-1.8 -6,0.9 -12,1.9 -18,2.9 -2,0.2 -1.2,3.1 0.7,2.8 z"
   style="fill:#161616"
   id="path821" />
		</g>
	</g><g
   id="g831">
		<g
   id="g829">
			<path
   d="m 814.1,536.2 c 6.6,-0.2 12.9,-1.5 19.1,-3.7 1.8,-0.7 1,-3.6 -0.8,-2.9 -5.9,2.2 -12,3.4 -18.3,3.6 -1.9,0 -1.9,3 0,3 z"
   style="fill:#161616"
   id="path827" />
		</g>
	</g><g
   id="g837">
		<g
   id="g835">
			<path
   d="m 815,522.3 c 0.9,2.6 2.4,4.4 4.8,5.8 1.1,0.6 2.1,-0.2 2.3,-1.3 0.6,-5.3 2,-10.4 4.2,-15.3 0.8,-1.7 -1.8,-3.3 -2.6,-1.5 -2.4,5.4 -3.9,11 -4.6,16.8 0.8,-0.4 1.5,-0.9 2.3,-1.3 -1.7,-1 -2.7,-2.2 -3.4,-4.1 -0.7,-1.7 -3.6,-0.9 -3,0.9 z"
   style="fill:#161616"
   id="path833" />
		</g>
	</g><g
   id="g843">
		<g
   id="g841">
			<path
   d="m 817,561.6 c 0.7,6.7 2.5,13 5.5,19 0.8,1.7 3.4,0.2 2.6,-1.5 -2.7,-5.5 -4.4,-11.4 -5,-17.5 -0.3,-1.9 -3.3,-1.9 -3.1,0 z"
   style="fill:#161616"
   id="path839" />
		</g>
	</g><g
   id="g849">
		<g
   id="g847">
			<path
   d="m 818.4,561.3 c 7.7,0.7 14.9,-0.7 21.8,-4.1 -0.7,-0.3 -1.5,-0.6 -2.2,-0.9 1.3,6.1 4,11.4 8.2,16.1 1.3,1.4 3.4,-0.7 2.1,-2.1 -3.8,-4.3 -6.2,-9.1 -7.4,-14.7 -0.2,-1 -1.4,-1.3 -2.2,-0.9 -6.4,3.1 -13.2,4.3 -20.3,3.7 -1.9,-0.2 -1.9,2.8 0,2.9 z"
   style="fill:#161616"
   id="path845" />
		</g>
	</g><g
   id="g855">
		<g
   id="g853">
			<path
   d="m 825.2,581.7 c 7.8,-2.9 15.5,-6 23,-9.4 1.8,-0.8 0.2,-3.4 -1.5,-2.6 -7.3,3.3 -14.8,6.3 -22.3,9.1 -1.8,0.7 -1,3.6 0.8,2.9 z"
   style="fill:#161616"
   id="path851" />
		</g>
	</g><g
   id="g861">
		<g
   id="g859">
			<path
   d="m 823.6,566.6 c 2.4,2.1 7.9,9.3 10.7,4 1.3,-2.4 1,-5.7 1.8,-8.4 1.2,-3.8 3.2,-7.3 5.8,-10.3 1.2,-1.5 -0.9,-3.6 -2.1,-2.1 -2.8,3.3 -5,6.9 -6.3,11.1 -0.6,1.9 -1.1,3.9 -1.4,5.9 -0.4,2.5 -1.1,1.9 -3,0.7 -1.2,-0.8 -2.3,-2 -3.4,-3 -1.4,-1.3 -3.5,0.8 -2.1,2.1 z"
   style="fill:#161616"
   id="path857" />
		</g>
	</g><g
   id="g867">
		<g
   id="g865">
			<path
   d="m 706.4,538.3 c 28,-0.3 55.9,-2.6 83.5,-7 1.9,-0.3 1.1,-3.2 -0.8,-2.9 -27.4,4.3 -55,6.6 -82.7,6.8 -1.9,0.1 -1.9,3.1 0,3.1 z"
   style="fill:#161616"
   id="path863" />
		</g>
	</g><g
   id="g873">
		<g
   id="g871">
			<path
   d="m 703.2,497.7 c 18.1,0.5 36.1,-0.1 54.1,-1.6 1.9,-0.2 1.9,-3.2 0,-3 -18,1.5 -36.1,2 -54.1,1.6 -1.9,-0.1 -1.9,2.9 0,3 z"
   style="fill:#161616"
   id="path869" />
		</g>
	</g><g
   id="g879">
		<g
   id="g877">
			<path
   d="m 707.5,544.2 c 19,0.9 38,0.2 56.8,-2.2 1.9,-0.2 1.9,-3.2 0,-3 -18.9,2.3 -37.9,3.1 -56.8,2.2 -1.9,-0.1 -1.9,2.9 0,3 z"
   style="fill:#161616"
   id="path875" />
		</g>
	</g><g
   id="g885">
		<g
   id="g883">
			<path
   d="m 770.7,540.6 c 5.4,0.1 10.7,-0.6 15.9,-2.3 1.8,-0.6 1,-3.5 -0.8,-2.9 -4.9,1.6 -9.9,2.3 -15.1,2.2 -1.9,0 -1.9,3 0,3 z"
   style="fill:#161616"
   id="path881" />
		</g>
	</g><g
   id="g891">
		<g
   id="g889">
			<path
   d="m 717.7,581.8 c 22.8,-1.4 45.5,-3.5 68.1,-6.6 1.9,-0.3 1.9,-3.3 0,-3 -22.6,3 -45.3,5.2 -68.1,6.6 -2,0.1 -2,3.1 0,3 z"
   style="fill:#161616"
   id="path887" />
		</g>
	</g><g
   id="g897">
		<g
   id="g895">
			<path
   d="m 720.3,588.8 c 7.5,0 15,0 22.5,0 1.9,0 1.9,-3 0,-3 -7.5,0 -15,0 -22.5,0 -1.9,0 -1.9,3 0,3 z"
   style="fill:#161616"
   id="path893" />
		</g>
	</g><g
   id="g903">
		<g
   id="g901">
			<path
   d="m 726.8,595.5 c 11.7,-0.7 23.4,-1.8 35.1,-3.2 9.4,-1.2 19.5,-1.7 27.6,-7.2 1.6,-1.1 0.1,-3.7 -1.5,-2.6 -8.5,5.8 -19.9,6.1 -29.8,7.2 -10.4,1.2 -20.9,2.1 -31.3,2.8 -2,0.1 -2.1,3.1 -0.1,3 z"
   style="fill:#161616"
   id="path899" />
		</g>
	</g><g
   id="g909">
		<g
   id="g907">
			<path
   d="m 841,514.7 c 18.2,-0.9 36.3,-3.3 54.2,-7.1 -0.6,-0.3 -1.2,-0.7 -1.8,-1 8.4,25 20.8,48.3 36.7,69.4 1.1,1.5 3.8,0 2.6,-1.5 -15.7,-20.8 -28,-43.9 -36.4,-68.6 -0.3,-0.8 -1,-1.2 -1.8,-1 -17.6,3.8 -35.4,6.1 -53.4,7 -2.1,-0.1 -2.1,2.9 -0.1,2.8 z"
   style="fill:#161616"
   id="path905" />
		</g>
	</g><g
   id="g915">
		<g
   id="g913">
			<path
   d="m 844.1,599.1 c 2.7,3.8 4.9,7.8 6.8,12.1 0.2,0.6 1.1,0.9 1.7,0.7 14.7,-4.9 29.2,-10.3 43.4,-16.4 7.2,-3.1 14.3,-6.3 21.4,-9.7 3.4,-1.6 6.8,-3.3 10.1,-5 2,-1 4.3,-1.6 5,-3.8 0.2,-0.6 -0.1,-1.4 -0.7,-1.7 -0.9,-0.5 -1.4,-0.5 -2.3,0 -0.6,0.3 -0.9,1.1 -0.7,1.7 0,0.1 0.1,0.2 0.1,0.3 0.5,1.9 3.4,1.1 2.9,-0.8 0,-0.1 -0.1,-0.2 -0.1,-0.3 -0.2,0.6 -0.5,1.1 -0.7,1.7 -0.2,0 -0.5,0 -0.7,0 -0.2,-0.6 -0.5,-1.1 -0.7,-1.7 -0.6,1.8 -6.9,3.7 -8.6,4.6 -2.8,1.4 -5.6,2.7 -8.5,4.1 -6.7,3.2 -13.5,6.2 -20.4,9.1 -13.2,5.6 -26.7,10.6 -40.3,15.1 0.6,0.2 1.1,0.5 1.7,0.7 -1.8,-4.3 -4.1,-8.3 -6.8,-12.1 -1.1,-1.7 -3.7,-0.2 -2.6,1.4 z"
   style="fill:#161616"
   id="path911" />
		</g>
	</g><g
   id="g921">
		<g
   id="g919">
			<path
   d="m 861.5,522.5 c -0.2,-1.3 2.2,-2.5 3.1,-1.6 1.2,1.2 -0.8,3.4 -2.2,2.9 -1.8,-0.7 -2.6,2.2 -0.8,2.9 4.3,1.6 8.5,-4.6 5.2,-7.9 -1.5,-1.5 -3.8,-1.4 -5.6,-0.5 -1.9,1 -2.9,2.9 -2.5,5 0.2,1.9 3.1,1 2.8,-0.8 z"
   style="fill:#161616"
   id="path917" />
		</g>
	</g><g
   id="g927">
		<g
   id="g925">
			<path
   d="m 418.4,442.5 c 11.1,0.2 22.3,-0.3 33.3,-1.8 11.5,-1.6 22.9,-4.9 34.6,-4.4 1.9,0.1 1.9,-2.9 0,-3 -10.7,-0.4 -21.1,2.3 -31.6,3.9 -12,1.9 -24.2,2.6 -36.4,2.3 -1.8,0 -1.8,3 0.1,3 z"
   style="fill:#161616"
   id="path923" />
		</g>
	</g><g
   id="g933">
		<g
   id="g931">
			<path
   d="m 420,409.4 c 17,1.3 34,-0.2 50.5,-4.5 1.9,-0.5 1.1,-3.4 -0.8,-2.9 -16.3,4.2 -32.9,5.7 -49.7,4.4 -1.9,-0.1 -1.9,2.9 0,3 z"
   style="fill:#161616"
   id="path929" />
		</g>
	</g><g
   id="g939">
		<g
   id="g937">
			<path
   d="m 804.8,325.2 c -1.7,11 -3.1,22.9 3.8,32.5 1.1,1.6 3.7,0.1 2.6,-1.5 -6.4,-8.9 -5,-20 -3.5,-30.2 0.3,-1.9 -2.6,-2.7 -2.9,-0.8 z"
   style="fill:#161616"
   id="path935" />
		</g>
	</g><g
   id="g945">
		<g
   id="g943">
			<path
   d="m 805.7,325.1 c 23.8,0.9 47.6,-1.4 70.8,-6.9 -0.6,-0.3 -1.2,-0.7 -1.8,-1 2.1,10.3 6.1,19.9 11.7,28.7 1,1.6 3.6,0.1 2.6,-1.5 -5.5,-8.6 -9.3,-18 -11.4,-28 -0.2,-0.8 -1.1,-1.2 -1.8,-1 -22.9,5.4 -46.4,7.7 -70,6.8 -2,-0.2 -2,2.8 -0.1,2.9 z"
   style="fill:#161616"
   id="path941" />
		</g>
	</g><g
   id="g951">
		<g
   id="g949">
			<path
   d="m 811.1,357.6 c 25.8,-0.8 51.3,-4.6 76.1,-11.4 1.9,-0.5 1.1,-3.4 -0.8,-2.9 -24.6,6.8 -49.8,10.6 -75.3,11.3 -2,0.1 -2,3.1 0,3 z"
   style="fill:#161616"
   id="path947" />
		</g>
	</g>
<path
   d="m 1163.7,1056.1 c 0,11.3 0,22.5 0,33.8 -80,31.7 -96.3,43 -95.1,47.1 0.3,1 2.4,4 44.4,-0.9 41.6,-4.9 75.3,-12 98.7,-17.8 -4.1,-23.1 -8.3,-46.2 -12.4,-69.3 -11.9,2.4 -23.8,4.8 -35.6,7.1 z"
   style="fill:#161616"
   id="path954" /><path
   d="m 1199.6,577.8 c -2.3,4.3 -3.1,7.8 -3.3,8.6 -14.3,60.8 -33,96.7 -45.2,167.2 -23.3,135.8 -3.2,290.1 -1.3,304.6 6.4,2.8 18.7,7 34.4,6.4 13.8,-0.6 24.5,-4.7 30.6,-7.6 -2.3,-44.3 0,-99 15.3,-159.3 18.7,-73.9 42.4,-98.4 63.7,-184.8 15.8,-64 34.1,-138.5 2.5,-160.6 -24.2,-17.2 -80.9,-4.6 -96.7,25.5 z"
   style="fill:#13cff2;fill-opacity:1"
   id="path956" /><path
   d="m 1254.9,609.7 c -16,73 -30.9,150.8 -43.5,233.1 -11.9,77.4 -20.8,151.5 -27.4,221.9 10.1,-2.1 20.1,-4.2 30.2,-6.3 -1.3,-31.1 0.1,-57.6 2.1,-77.9 2.4,-25.2 8.5,-83.9 33,-142.5 3.2,-7.5 7.3,-16.6 14,-33.7 11.3,-28.3 19.5,-52.5 23.2,-63.9 17.4,-54.4 26.1,-117.5 28.8,-138.3 -20.2,2.4 -40.3,5 -60.4,7.6 z"
   style="opacity:0.2;fill:#6d6c6c"
   id="path958" /><path
   d="m 1287.9,736.8 c -39.2,51.1 -57.5,97.4 -66.7,128.5 -8.4,28.3 -12.1,53.3 -16.9,85.7 -6.8,46 -9.4,84.8 -10.5,112.4 6.6,-1.6 13.1,-3.3 19.7,-4.9 -1.1,-38.7 1.6,-71.8 4.9,-97.6 4,-30.6 8.6,-66.1 24.6,-108.8 5.8,-15.5 8.6,-19.9 21.8,-53.4 10.2,-26.2 18,-47.7 23.1,-61.9 z"
   style="opacity:0.19;fill:#6d6c6c"
   id="path960" />
<path
   d="m 1379.7,1044.6 c 5.6,13.9 11.3,27.8 16.9,41.8 -47,29.9 -69.2,47.3 -66.7,52.4 3.1,6.3 43.7,-6.2 121.8,-37.3 -8.3,-27 -16.6,-53.9 -24.9,-80.9 -15.7,8 -31.4,16 -47.1,24 z"
   style="fill:#161616"
   id="path963" /><path
   d="m 1341.1,579 c 24.5,22.4 23.7,53.8 26.8,105.8 0,0 7.6,127.9 33.1,230.7 6.4,25.7 18,65.6 39.5,113.4 -3.6,4.6 -13.4,15.8 -30.6,21.7 -17.6,6 -32.6,2.8 -38.2,1.3 -30.6,-52.2 -52.3,-96.7 -66.3,-127.5 -64.9,-142.2 -70.1,-217.1 -70.1,-256.2 0,-40.2 0.7,-88.4 30.6,-104.5 22.5,-12.1 55.5,-2.7 75.2,15.3 z"
   style="fill:#13cff2;fill-opacity:1"
   id="path965" /><path
   d="m 1271.7,594.3 c 11.1,42.7 23.1,86.1 35.9,130.1 33.4,114.2 69.7,222.1 107.8,323.3 3.7,-1.9 8.2,-4.5 12.8,-8 4.7,-3.6 8.4,-7.2 11.2,-10.4 -5.2,-12.1 -12.4,-29.6 -20,-51.1 -11.5,-32.9 -30.2,-93.4 -39.9,-174 -9.3,-77.4 -14,-116.1 -13.6,-140.5 0.3,-20.1 2.1,-61 -23.9,-83 -5.4,-4.5 -10.7,-7.2 -14.4,-8.8 -18.7,7.5 -37.3,15 -55.9,22.4 z"
   style="opacity:0.15;fill:#6d6c6c"
   id="path967" /><path
   d="m 1367.1,689.7 c -4.6,46.5 -6.1,108.8 5.1,180.8 11.3,72.4 31.8,131.5 50.3,174.5 5.7,-4.7 11.4,-9.4 17.1,-14.2 -6.8,-16.1 -15.7,-38.5 -24.6,-65.9 -17.1,-52.7 -24.5,-93.8 -30.9,-130.7 -6.5,-37.8 -13.3,-86.7 -17,-144.5 z"
   style="opacity:0.22;fill:#6d6c6c"
   id="path969" /><path
   d="M 1640.5,990.3"
   style="fill:#6d6c6c"
   id="path971" />
<g
   id="hand_r">
	<path
   d="M898.9,213.7c-4,2-9.5,5.5-13.8,11.5c-2.3,3.1-5.1,7.2-5.5,13c-0.1,2.3-0.4,7.3,2.8,10.6   c0.9,1,3.3,2.9,15.1,2.5c10.5-0.4,15.8-0.6,18.5-3.4c5.2-5.4,3.3-15.6,0-21.7C910.8,216.5,900.6,214.1,898.9,213.7z"
   style="fill:#FFFFFF;stroke:#161616;stroke-width:2;stroke-miterlimit:10;"
   id="path974" />
	<path
   d="M959.3,238.8c14.1,16.1,36.7,25.7,78.2,42.8c52.3,21.6,78.5,32.4,109.5,36.2c33.5,4.1,51.4-0.2,57.6,10.7   c8.1,14.1-10.9,40.5-30.5,62.6c-14.6-3.2-29.7-7.2-45.3-12.4c-85.5-28.3-147.3-78.1-187.9-119.5c-5.1,1.1-13.8,2.2-23.7-0.8   c-8.5-2.5-20.5-8.9-19.8-14c0.9-6.2,22.6-7.3,23.9-7.4c-6.6-2.7-16.1-7.3-26.4-14.8c-3-2.2-20.2-14.9-18.1-18.9   c1.8-3.5,17.4,1.3,32.1,5.8c13.4,4.1,22.7,7,32.9,14C951.6,229.7,957.3,236.5,959.3,238.8z"
   style="fill:#FFFFFF;stroke:#161616;stroke-width:2;stroke-miterlimit:10;"
   id="path976" />
	<g
   id="g982">
		<g
   id="g980">
			<path
   d="M890.1,214.8c2.4,2.7,2.9,6.3,5,9.1c1.8,2.5,4.4,4.3,7.1,5.8c8.1,4.5,16.7,8.2,25,12.3     c1.4,0.7,3.2-1.2,1.8-2.4c-4.3-3.7-8.9-7-13.7-10c-1.6-1-3.2,1.6-1.5,2.6c4.6,2.9,9,6,13.1,9.5c0.6-0.8,1.2-1.6,1.8-2.4     c-7.9-3.8-15.8-7.5-23.6-11.6c-3.7-1.9-7-4.1-8.9-7.9c-1.3-2.6-2-5.1-4-7.3C890.9,211.3,888.8,213.4,890.1,214.8L890.1,214.8z"
   style="fill:#FFFFFF;"
   id="path978" />
		</g>
	</g>
	<g
   id="g988">
		<g
   id="g986">
			<path
   d="M897.9,225.3c4.6,2,9,4.6,13,7.7c1.5,1.2,3.6-0.9,2.1-2.1c-4.2-3.3-8.7-6-13.6-8.2     C897.6,221.9,896.1,224.5,897.9,225.3L897.9,225.3z"
   style="fill:#FFFFFF;"
   id="path984" />
		</g>
	</g>
	<g
   id="g994">
		<g
   id="g992">
			<path
   d="M886.1,213c3.8,6.1,8.8,11.1,14.7,15.1c1.6,1.1,3.1-1.5,1.5-2.6c-5.5-3.7-10.1-8.4-13.6-14.1     C887.7,209.9,885.1,211.4,886.1,213L886.1,213z"
   style="fill:#FFFFFF;"
   id="path990" />
		</g>
	</g>
	<g
   id="g1000">
		<g
   id="g998">
			<path
   d="M890.6,221.2c2,2.7,4.2,5.2,6.7,7.4c1.8,1.6,9.7,7.3,5.6,10.2c-0.8,0.5,0,1.8,0.8,1.3c2.8-1.9,1.7-5.3,0-7.6     c-1.3-1.7-3.1-3-4.8-4.5c-2.6-2.3-4.9-4.8-7-7.5C891.3,219.6,890,220.4,890.6,221.2L890.6,221.2z"
   style="fill:#161616;"
   id="path996" />
		</g>
	</g>
	<g
   id="g1006">
		<g
   id="g1004">
			<path
   d="M888.5,231.6c3,4.1,8.7,9.9,14.3,8.2c0.9-0.3,0.5-1.7-0.4-1.4c-4.8,1.5-10.1-4-12.6-7.5     C889.2,230.1,887.9,230.8,888.5,231.6L888.5,231.6z"
   style="fill:#161616;"
   id="path1002" />
		</g>
	</g>
	<g
   id="g1012">
		<g
   id="g1010">
			<path
   d="M884.1,238.6c3.3,4.5,8.1,7.1,13.7,7.4c1,0.1,1-1.4,0-1.5c-5-0.3-9.4-2.7-12.4-6.7     C884.8,237,883.5,237.8,884.1,238.6L884.1,238.6z"
   style="fill:#161616;"
   id="path1008" />
		</g>
	</g>
	<g
   id="g1018">
		<g
   id="g1016">
			<path
   d="M880.9,247.6c4.7,4.9,12.5,5,17.2,0c0.7-0.7-0.4-1.8-1.1-1.1c-4.1,4.4-10.9,4.3-15,0     C881.3,245.8,880.2,246.9,880.9,247.6L880.9,247.6z"
   style="fill:#161616;"
   id="path1014" />
		</g>
	</g>
	<g
   id="g1024">
		<g
   id="g1022">
			<path
   d="M881.9,212.8c11.1,7.3,19.1,19.6,33,22c0.9,0.2,1.4-1.3,0.4-1.4c-13.7-2.3-21.7-14.6-32.6-21.8     C881.8,210.9,881.1,212.2,881.9,212.8L881.9,212.8z"
   style="fill:#161616;"
   id="path1020" />
		</g>
	</g>
	<path
   d="M880.7,245.5c-3.6-4.9-0.6-15.4,8.1-25.3c9.8,5.7,19.5,11.5,29.3,17.2c-1.8,0-17.6,0.2-18.7,5.1   c-0.2,0.8,0,2,1.5,3.7c5,2.4,13.4,5.6,24.2,5.9c5.6,0.1,10.5-0.6,14.3-1.5c20.4,20.6,56.3,51.7,109.1,74.3   c46.4,19.8,88,25.5,115.5,27.1c-0.9,11.8-1.8,23.5-2.7,35.3c-45.3-12-106.7-34.8-167.7-80.6c-20.8-15.6-38.6-31.7-53.8-47.2   c-14,2.3-22.7-0.1-28.2-2.9c-4.7-2.4-7.7-5.4-13.9-5.9c-4.1-0.3-7.6,0.7-12.1-1.5C885.1,249,882.2,247.5,880.7,245.5z"
   style="opacity:0.2;fill:#6D6C6C;"
   id="path1026" />
	<path
   d="M1009.5,316.1c14,7.5,30.2,15.1,48.7,21.6c40.3,14.3,76.8,18.8,104.7,19.8c-0.4,10.2-0.7,20.5-1.1,30.7   c-29-6.8-65.4-18.7-104-40.3C1039.3,337.6,1023.3,326.7,1009.5,316.1z"
   style="opacity:0.14;fill:#6D6C6C;"
   id="path1028" />
</g>
<g
   id="torso">
	<path
   d="M1167.6,344.6c-5.7,12.9-6,23.6-6.5,42.8c-0.4,14.5,0.6,30.1,8.4,71.1c9.5,49.6,14,57.6,15.5,83.9   c1.2,20.6-0.4,37.5-1.9,48.7c12.6,6.9,33.7,16.3,61.3,18.4c48.8,3.7,84.9-17.8,97.3-26c1.5-31.4,3-62.9,4.6-94.3   c-5.5-26.8-12-47.8-16.7-61.6c-14.8-43.5-28.6-64.1-19.8-85.9c4.9-12.1,14.6-19.5,21.3-23.6c-4.7-3.6-54-40.1-107.8-21.2   C1217.7,298.8,1182.3,311.3,1167.6,344.6z"
   style="fill:#FFFFFF;stroke:#161616;stroke-width:2;stroke-miterlimit:10;"
   id="path1031" />
	<path
   d="M1223.1,296.8c15,24,23.4,45.2,28.2,60c0,0,23.5,71.4,6.3,167.2c-3.7,20.4-10.3,49.4-23.3,82.6   c5,1.1,11,2,17.8,2.3c0,0,10.5,0.5,22.3-1c14.4-1.9,39.1-9.6,68.2-24.4c0.5-33.5,1-66.9,1.5-100.4c-7.4-28.3-14.9-51-20.5-66.9   c-13.5-37.9-23-55.7-15.2-74.5c5.1-12.3,15.5-19.9,23.6-24.3c-10.6-7-30.2-17.9-57-22.1C1252.9,291.9,1234.7,294.3,1223.1,296.8z"
   style="opacity:0.19;fill:#6D6C6C;"
   id="path1033" />
	<path
   d="M1236.8,294.5c16.1,19.8,34.9,48.7,46.5,86.8c32.9,108.8-21.2,204.2-33.7,225.1c10.5-0.1,22.8-1,36.2-3.6   c23.9-4.6,43-12.8,56.7-20.1c0.5-31.2,1-62.4,1.5-93.5c-8.5-28.9-16.5-56.3-27.4-93.5c-7.4-25.5-13.2-46.4-2.3-63.1   c5.3-8.1,12.7-12.6,18.3-15.2C1300.7,309.7,1268.7,302.1,1236.8,294.5z"
   style="opacity:0.11;fill:#6D6C6C;"
   id="path1035" />
</g>
<g
   id="files">
	<path
   d="M1229.4,498.8c-0.3-21.4-0.5-42.7-0.8-64.1c51.3-2.6,102.6-5.2,154-7.8c1.8,19.8,3.6,39.6,5.5,59.4   C1335.2,490.5,1282.3,494.6,1229.4,498.8z"
   style="fill:#FFFFFF;stroke:#161616;stroke-width:2;stroke-miterlimit:10;"
   id="path1038" />
	<path
   d="M1213.8,491.8c0-7.8,0-15.6,0-23.4c65.9-4.9,131.8-9.9,197.7-14.8c0.5,9.6,1,19.3,1.6,28.9   C1346.7,485.5,1280.2,488.7,1213.8,491.8z"
   style="fill:#FFFFFF;stroke:#161616;stroke-width:2;stroke-miterlimit:10;"
   id="path1040" />
	<path
   d="M1219.3,456.6c0.8,11.5,1.6,22.9,2.3,34.4c61-4.9,121.9-9.9,182.9-14.8c0.5-10.4,1-20.8,1.6-31.3   C1343.8,448.8,1281.5,452.7,1219.3,456.6z"
   style="fill:#FFFFFF;stroke:#161616;stroke-width:2;stroke-miterlimit:10;"
   id="path1042" />
	<path
   d="M1204.4,482.4c1.8,45.6,3.6,91.2,5.5,136.8c68-7.6,136-15.1,204-22.7c2.1-44.8,4.2-89.6,6.3-134.4   C1348.2,468.9,1276.3,475.6,1204.4,482.4z"
   style="fill:#FFFFFF;stroke:#161616;stroke-width:2;stroke-miterlimit:10;"
   id="path1044" />
	<g
   id="g1050">
		<g
   id="g1048">
			<path
   d="M1216,500.2c30.9-4.1,61.8-7,92.9-8.8c1.4-0.1,1.4-2.3,0-2.3c-31.1,1.8-62.1,4.7-92.9,8.8     C1214.6,498.1,1214.6,500.4,1216,500.2L1216,500.2z"
   style="fill:#161616;"
   id="path1046" />
		</g>
	</g>
	<g
   id="g1056">
		<g
   id="g1054">
			<path
   d="M1250.5,506.3c23.7-3,47.4-6.1,71.2-9.1c1.4-0.2,1.4-2.4,0-2.3c-23.7,3-47.4,6.1-71.2,9.1     C1249.1,504.3,1249.1,506.5,1250.5,506.3L1250.5,506.3z"
   style="fill:#161616;"
   id="path1052" />
		</g>
	</g>
	<g
   id="g1062">
		<g
   id="g1060">
			<path
   d="M1364.4,570.3c-0.4,6.3-0.4,12.7,0.2,19c0.1,1.4,2.4,1.4,2.3,0c-0.6-6.3-0.7-12.7-0.2-19     C1366.8,568.9,1364.5,568.9,1364.4,570.3L1364.4,570.3z"
   style="fill:#161616;"
   id="path1058" />
		</g>
	</g>
	<g
   id="g1068">
		<g
   id="g1066">
			<path
   d="M1365.4,570.5c12.4,0.3,24.7-0.4,37-2c-0.4-0.4-0.8-0.8-1.1-1.1c-0.2,5.8,0,11.5,0.4,17.2     c0.1,1.4,2.4,1.4,2.3,0c-0.5-5.7-0.6-11.5-0.4-17.2c0-0.6-0.5-1.2-1.1-1.1c-12.3,1.6-24.6,2.2-37,2     C1363.9,568.2,1363.9,570.4,1365.4,570.5L1365.4,570.5z"
   style="fill:#161616;"
   id="path1064" />
		</g>
	</g>
	<g
   id="g1074">
		<g
   id="g1072">
			<path
   d="M1366.3,591.1c12.3,0.2,24.4-1.1,36.4-3.8c1.4-0.3,0.8-2.5-0.6-2.2c-11.8,2.6-23.7,3.9-35.8,3.7     C1364.9,588.8,1364.9,591,1366.3,591.1L1366.3,591.1z"
   style="fill:#161616;"
   id="path1070" />
		</g>
	</g>
	<g
   id="g1080">
		<g
   id="g1078">
			<path
   d="M1371,577.5c7.6,0.5,15.1,0.1,22.7-1.1c1.4-0.2,0.8-2.4-0.6-2.2c-7.3,1.2-14.7,1.5-22.1,1     C1369.6,575.1,1369.6,577.4,1371,577.5L1371,577.5z"
   style="fill:#161616;"
   id="path1076" />
		</g>
	</g>
	<g
   id="g1086">
		<g
   id="g1084">
			<path
   d="M1375.8,583.8c7.9-0.2,15.5-1.7,23-4.4c1.3-0.5,0.8-2.7-0.6-2.2c-7.2,2.7-14.7,4.1-22.4,4.4     C1374.4,581.5,1374.3,583.8,1375.8,583.8L1375.8,583.8z"
   style="fill:#161616;"
   id="path1082" />
		</g>
	</g>
	<path
   d="M1236.7,614c1.8-42.2,3.6-84.4,5.3-126.7c58.4-4.7,116.9-9.3,175.3-14c-1.3,40-2.7,80-4,120   C1354.4,600.2,1295.6,607.1,1236.7,614z"
   style="opacity:0.2;fill:#6D6C6C;"
   id="path1088" />
	<path
   d="M1395.3,446c0.3,11.6-0.3,25.4-3.3,40.7c-7.4,37.6-25.2,64.7-37.3,80c8.2,10.9,16.4,21.8,24.7,32.7   c-25.1,2.9-50.2,5.8-75.3,8.7c4-45.8,8-91.6,12-137.3c-1.3-6-2.7-12-4-18C1339.8,450.4,1367.6,448.2,1395.3,446z"
   style="opacity:0.2;fill:#6D6C6C;"
   id="path1090" />
</g>
<g
   id="hand_l">
	<path
   d="M1325.7,315.4c20.9-2.8,45.8,45.2,55.7,79.7c11.4,39.7,6.4,74,2.3,92.1c-8,35.5-24.6,60.5-35,74   c1.6,5.3,5.3,19.7-0.8,35.5c-9,23.1-33.4,34.2-35.3,32.1c-0.6-0.7,0.6-3.6,10.1-14.5c-2,2.1-16.4,16.4-32.6,13   c-2.8-0.6-6.3-1.3-8.3-4.1c-4.7-6.8,3.1-22.2,19.7-39.3c-18.1,4.5-22.9,3.3-23.8,1.3c-2.3-4.8,16.2-18.4,22.9-23.4   c9.9-7.3,18.8-12.3,24.9-15.4c17.1-35.5,16.2-63.2,14.7-76.2c-2.2-19.2-9.4-40.1-10.8-44.1c-4-11.5-5.9-14.1-13.9-34.8   c-12.9-33.2-12.9-38.9-12.4-43.3C1304.9,334.8,1313.8,317,1325.7,315.4z"
   style="fill:#FFFFFF;stroke:#161616;stroke-width:2;stroke-miterlimit:10;"
   id="path1093" />
	<g
   id="g1099">
		<g
   id="g1097">
			<path
   d="M1282.2,620.4c11.1-6.3,20.8-14.4,28.9-24.2c1.2-1.5-0.9-3.6-2.1-2.1c-7.9,9.6-17.4,17.6-28.3,23.8     C1279,618.7,1280.5,621.3,1282.2,620.4L1282.2,620.4z"
   style="fill:#161616;"
   id="path1095" />
		</g>
	</g>
	<g
   id="g1105">
		<g
   id="g1103">
			<path
   d="M1292,627.1c11-5.7,20.4-13.6,28-23.4c1.2-1.5-1.4-3-2.6-1.5c-7.2,9.4-16.4,16.9-26.9,22.3     C1288.8,625.4,1290.3,628,1292,627.1L1292,627.1z"
   style="fill:#161616;"
   id="path1101" />
		</g>
	</g>
	<path
   d="M1317.3,320.2c-19.9,17.3,61.3,93.2,47.4,179.4c-9.5,59.1-48.9,97.7-48.9,97.7c-11,11-31.7,24.5-29.2,29.2   c1.8,3.4,14.3,0.3,18.8-1.1c8.5-2.6,14.4-7,17.7-9.9c-5,5.6-10.7,12.5-9.5,13.9c1.7,1.8,15.9-5.6,24.8-16   c15.4-18,13.2-43,11.7-53.2c3.6-4.7,8.3-11.3,13.1-19.7c4.4-7.5,17.1-30.9,22.6-62.7c9.7-56.3-10.2-100.7-18.2-118.1   c-7.2-15.5-19.4-41.2-37.9-42.3C1327.3,317.1,1321.2,316.8,1317.3,320.2z"
   style="opacity:0.17;fill:#6D6C6C;"
   id="path1107" />
	<path
   d="M1384.7,476.2c-5.4,15.7-11.8,32.2-19.4,49.5c-5.4,12.3-10.9,23.8-16.5,34.7c-2.8,9-8.1,22.5-18.6,36.4   c-11,14.6-23.1,23.5-31.2,28.6c2.3,0.1,5.1-0.1,8.2-0.9c7.8-1.8,13-6.1,15.6-8.7c-3,3.8-6.1,7.5-9.1,11.3c2.4-0.4,6.2-1.1,10.4-3   c22-9.9,26.6-36.8,26.9-38.6c0.8-4.9,1.3-13.3-1.7-23.7c7.2-8.5,16.3-21.2,23.6-38.3C1381,504.7,1383.7,487.8,1384.7,476.2z"
   style="opacity:0.22;fill:#6D6C6C;"
   id="path1109" />
</g>
<path
   d="m 1144.6,249.6 c -16.1,18.4 -5,44.1 -3.5,47.6 5.6,13 20.1,31.5 38.5,30 13.4,-1.2 21.9,-12.5 24,-15.5 14.8,-21.3 9.9,-62 -15.1,-72.5 -13.8,-5.8 -32.8,-2.4 -43.9,10.4 z"
   style="fill:#9759e4;fill-opacity:1"
   id="path1112" /><path
   d="m 1185.2,266 c 0.7,7.9 9,9.6 14.6,22.6 4,9.4 4,18.6 3.3,25.2 6.5,0.6 18.5,0.9 32.1,-4.3 10.7,-4.1 18.2,-10 22.7,-14.1 -2.1,-4.7 -5.2,-11.6 -8.9,-19.8 -16,-34.9 -18.6,-37.9 -22.5,-39.4 -15.6,-5.9 -42.6,15.1 -41.3,29.8 z"
   style="fill:#ffffff;stroke:#161616;stroke-width:2;stroke-miterlimit:10"
   id="path1114" /><path
   d="m 1127.6,162.7 c -3.4,4.8 -5.5,10.7 -5.8,36 -0.2,21.6 1,41.3 3,58.8 4.5,-2.6 9,-5.2 13.5,-7.8 2,4.9 5.4,11.6 11.2,18.1 11.5,12.9 25.5,17.3 31.7,18.9 6.5,-1.6 22.7,-6.6 35,-21.9 8.1,-10.2 10.7,-20.3 11.3,-22.6 3.7,-15.1 0.1,-27.6 -1.8,-32.8 2.4,-1.1 6.1,-3.2 8.9,-7 5.9,-8 7.5,-22.3 0.2,-27.1 -5.4,-3.6 -15,-1.5 -22.2,5.9 -1.6,-3.7 -4.1,-8.8 -8.1,-14.1 -1,-1.3 -8.5,-11.1 -17.7,-16.2 -17.7,-10.2 -47,-5.4 -59.2,11.8 z"
   style="fill:#ffffff;stroke:#161616;stroke-width:2;stroke-miterlimit:10"
   id="path1116" /><path
   d="m 1120.3,194.1 c -4,-0.7 -11.4,-2.8 -14.9,-8.9 -6,-10.3 2.8,-26 5,-29.9 1.8,-3.3 6.6,-11.2 27,-25.5 15.5,-10.9 23.3,-16.3 31.7,-18.9 29.8,-8.9 57.1,6.5 62.2,9.4 10.7,6.1 17.5,12.7 22.9,17.9 8.3,8 17.6,17.2 28,27.8 26.7,34.6 36.1,66.2 39.9,85.1 4.3,21.4 8.7,43.2 -4.1,56 -12.8,12.8 -36.2,10.2 -50.5,4.1 -19.9,-8.5 -28.4,-26.5 -35,-40.4 -11.2,-23.8 -11.9,-46.6 -10.8,-61.4 10,-2.9 15.1,-12.3 12.8,-19.4 -1.8,-5.6 -8.5,-11.2 -15.4,-9.2 -5.3,1.5 -9.1,7 -8.8,13.4 -4.8,-0.1 -17.6,-1.2 -29.8,-10.4 -8.9,-6.7 -13.4,-14.7 -15.5,-19.1 -5.5,0.7 -16.5,2.7 -27.6,10.7 -9.3,6.4 -14.5,14.1 -17.1,18.7 z"
   style="fill:#9759e4;fill-opacity:1"
   id="path1118" /><path
   d="m 1186.5,213.2 c 12,14.5 15.8,29.8 15.8,29.8 3.9,17.2 -1.7,31.8 -4.2,37.7 6.3,-4.8 12.7,-9.6 19,-14.4 4.4,14.6 8.7,29.1 13.1,43.7 3.3,-0.3 10.1,-1.5 16.9,-6.3 5.2,-3.7 8.3,-8 10,-10.7 -8.1,-7.5 -23.6,-24.1 -30.7,-50.2 -3.4,-12.6 -3.9,-23.8 -3.5,-32.2 9.1,-3.7 13.8,-12.6 11.9,-20 -1.4,-5.4 -6.9,-11.9 -14,-10.9 -5.9,0.9 -10.8,6.7 -10.7,13.8 -4.5,0 -15.1,-0.5 -26.2,-7.2 -11.5,-6.9 -17,-16.5 -19.1,-20.6 0.5,19.2 6.4,30.3 11.7,36.9 3.5,4.5 5.1,4.7 10,10.6 z"
   style="opacity:0.24;fill:#6d6c6c"
   id="path1120" /><g
   id="g1126">
		<g
   id="g1124">
			<path
   d="m 1140,209 c -1.1,4 -1,8.1 0.5,12 0.5,1.4 2.4,1.5 2.9,0 1.2,-3.6 1.2,-7.4 0.1,-11 -0.6,-1.8 -3.5,-1.1 -2.9,0.8 1,3.2 0.9,6.3 -0.1,9.5 1,0 1.9,0 2.9,0 -1.3,-3.4 -1.5,-6.9 -0.5,-10.4 0.5,-2 -2.3,-2.8 -2.9,-0.9 z"
   style="fill:#161616"
   id="path1122" />
		</g>
	</g><g
   id="g1132">
		<g
   id="g1130">
			<path
   d="m 1136.4,202.8 c 2.6,-1.6 5.8,-1.3 8,0.8 1.4,1.3 3.5,-0.8 2.1,-2.1 -3.1,-3 -7.9,-3.6 -11.6,-1.3 -1.6,1 -0.1,3.6 1.5,2.6 z"
   style="fill:#161616"
   id="path1128" />
		</g>
	</g><g
   id="g1138">
		<g
   id="g1136">
			<path
   d="m 1147.2,228.2 c 1.9,0 1.9,-3 0,-3 -2,0 -2,3 0,3 z"
   style="fill:#161616"
   id="path1134" />
		</g>
	</g><g
   id="g1144">
		<g
   id="g1142">
			<path
   d="m 1153.8,219.5 c 0,0.1 0,0.2 0,0.3 0,0.8 0.7,1.5 1.5,1.5 0.8,0 1.5,-0.7 1.5,-1.5 0,-0.1 0,-0.2 0,-0.3 0,-0.8 -0.7,-1.5 -1.5,-1.5 -0.8,0 -1.5,0.6 -1.5,1.5 z"
   style="fill:#161616"
   id="path1140" />
		</g>
	</g><g
   id="g1150">
		<g
   id="g1148">
			<path
   d="m 1154.1,227 c 1.9,0 1.9,-3 0,-3 -1.9,0 -1.9,3 0,3 z"
   style="fill:#161616"
   id="path1146" />
		</g>
	</g><g
   id="g1156">
		<g
   id="g1154">
			<path
   d="m 1112.9,213.6 c -1.2,4 -1.1,8.1 0.3,12 0.5,1.4 2.4,1.4 2.9,0 1.2,-3.6 1.3,-7.4 0.3,-11 -0.5,-1.9 -3.4,-1.1 -2.9,0.8 0.9,3.2 0.8,6.3 -0.3,9.4 1,0 1.9,0 2.9,0 -1.2,-3.4 -1.4,-6.9 -0.3,-10.4 0.5,-1.9 -2.4,-2.7 -2.9,-0.8 z"
   style="fill:#161616"
   id="path1152" />
		</g>
	</g><g
   id="g1162">
		<g
   id="g1160">
			<path
   d="m 1111.2,206.1 c 2.1,-1.1 5,-0.6 6.4,1.4 1.1,1.5 3.7,0 2.6,-1.5 -2.5,-3.3 -6.8,-4.4 -10.5,-2.5 -1.7,0.9 -0.2,3.5 1.5,2.6 z"
   style="fill:#161616"
   id="path1158" />
		</g>
	</g><g
   id="g1168">
		<g
   id="g1166">
			<path
   d="m 1144.9,260.5 c 7.7,-1.4 14.4,-5.5 19.4,-11.6 0.9,-1.1 -0.7,-2.7 -1.6,-1.6 -4.7,5.8 -11,9.6 -18.4,11 -1.4,0.3 -0.8,2.5 0.6,2.2 z"
   style="fill:#161616"
   id="path1164" />
		</g>
	</g><g
   id="g1174">
		<g
   id="g1172">
			<path
   d="m 1160.5,247.5 c 1.8,0.6 3.3,1.5 4.6,2.8 1,1 2.6,-0.6 1.6,-1.6 -1.6,-1.6 -3.5,-2.7 -5.6,-3.4 -1.4,-0.4 -2,1.8 -0.6,2.2 z"
   style="fill:#161616"
   id="path1170" />
		</g>
	</g><path
   d="m 1222.8,116.7 c 12.7,17.6 29,42.5 44.5,74.3 16.4,33.6 28.4,58.9 19.1,68.9 -12.3,13.3 -54.8,-7.8 -61.6,-11.3 1.4,9.1 4.9,23.6 15.2,38.1 5.2,7.3 14.3,20.2 31.1,26.2 10.1,3.6 19.1,3.4 22.6,3.1 4.7,-0.3 10.1,-0.7 16,-3.9 0,0 7.7,-4.1 12.9,-12.5 7.9,-12.8 3.7,-30.1 -1.9,-51.8 -6.7,-26 -15.7,-43.3 -24.5,-60.4 -2.2,-4.2 -4.8,-9.1 -9,-14.8 -4.2,-5.8 -7.3,-8.9 -20.3,-21.4 -19.3,-18.7 -22.3,-21.4 -28.1,-25.3 -6.4,-4.4 -12.1,-7.3 -16,-9.2 z"
   style="opacity:0.45;fill:#371b9b"
   id="path1176" /><path
   d="m 1198.7,286.8 c 0.8,2.3 2.6,8.8 0,16 -3.9,10.7 -14.7,14.3 -16.4,14.8 -12.3,4 -27.8,-2.3 -38.2,-16 1.4,3.6 4.5,10 10.9,15.6 3.2,2.8 11.9,10.3 24.2,9.4 2.1,-0.2 15.6,-1.2 21.8,-12.9 4.5,-8.3 3.5,-18.7 -2.3,-26.9 z"
   style="opacity:0.43;fill:#371b9b"
   id="path1178" />
</svg>
