<?xml version="1.0" encoding="UTF-8" standalone="no"?>
<svg
   version="1.1"
   x="0px"
   y="0px"
   viewBox="0 0 1600 1200"
   style="enable-background:new 0 0 1600 1200;"
   xml:space="preserve"
   width="1600px"
   height="1200px"
   id="svg1367"
   xmlns="http://www.w3.org/2000/svg"
   xmlns:svg="http://www.w3.org/2000/svg"><defs
   id="defs1371">
	
	
	
	
	
	
	
	

	
	
	
	
	
	
	
	
	
	
	
	
	
	
	
	
	
	
	
	
	
	
	
	
	
	
	
	
	
	
	
	
	
	
	
	
	
	
	
	
	
	
	
	
	
	
	
	
	
	
	
	
	
	
	
	
	
	
	
	
	
	
	
	
	
	
	
	
	
	
	
	
	
	
	
	
	
	
	
	
	
	
	
	
	
	
	
	

		
		
		
		
		
		
		
		
		
		
		
		
		
		
		
		
		
	</defs>

<g
   id="ground">
	<g
   id="g6">
		<g
   id="g4">
			<path
   d="M346.7,1006.3c35.5,0,71,0,106.5,0c1.9,0,1.9-3,0-3c-35.5,0-71,0-106.5,0     C344.8,1003.3,344.8,1006.3,346.7,1006.3L346.7,1006.3z"
   style="fill:#161616;"
   id="path2" />
		</g>
	</g>
	<g
   id="g12">
		<g
   id="g10">
			<path
   d="M459.6,1035.3c75.3,0,150.5,0,225.8,0c1.9,0,1.9-3,0-3c-75.3,0-150.5,0-225.8,0     C457.7,1032.3,457.7,1035.3,459.6,1035.3L459.6,1035.3z"
   style="fill:#161616;"
   id="path8" />
		</g>
	</g>
	<g
   id="g18">
		<g
   id="g16">
			<path
   d="M746.7,1007.9c73.5,0,146.9,0,220.4,0c73.1,0,146.3,0,219.4,0c41.6,0,83.1,0,124.7,0c1.9,0,1.9-3,0-3     c-73.5,0-146.9,0-220.4,0c-73.1,0-146.3,0-219.4,0c-41.6,0-83.1,0-124.7,0C744.8,1004.9,744.8,1007.9,746.7,1007.9L746.7,1007.9z     "
   style="fill:#161616;"
   id="path14" />
		</g>
	</g>
	<g
   id="g24">
		<g
   id="g22">
			<path
   d="M1072.5,986.9c85.4,0,170.8,0,256.2,0c24.3,0,48.5,0,72.8,0c1.9,0,1.9-3,0-3c-85.4,0-170.8,0-256.2,0     c-24.3,0-48.5,0-72.8,0C1070.6,983.9,1070.6,986.9,1072.5,986.9L1072.5,986.9z"
   style="fill:#161616;"
   id="path20" />
		</g>
	</g>
	<g
   id="g30">
		<g
   id="g28">
			<path
   d="M1241.9,1040.1c75.6,0,151.3,0,226.9,0c21.7,0,43.3,0,65,0c1.9,0,1.9-3,0-3c-75.6,0-151.3,0-226.9,0     c-21.7,0-43.3,0-65,0C1239.9,1037.1,1239.9,1040.1,1241.9,1040.1L1241.9,1040.1z"
   style="fill:#161616;"
   id="path26" />
		</g>
	</g>
</g>
<g
   id="background">
	<g
   id="g37">
		<g
   id="g35">
			<path
   d="M1259,78.1c20.3,9.9,26.7,33.3,29,54c3.1,27.8,2.4,56.5,2.2,84.4c-0.4,61-4,122-7.3,182.9     c-6.5,121.7-13.1,243.4-19.6,365.1c-3.7,68.5-7.4,137-11,205.5c-0.1,1.9,2.9,1.9,3,0c6.7-124.4,13.4-248.8,20-373.1     c3.3-61.9,6.6-123.7,10-185.6c3.3-61.6,7.1-123.2,7.9-184.9c0.2-17.2,0.2-34.4-0.2-51.7c-0.3-14.7-0.4-29.5-2.1-44.1     c-2.6-21.3-9.5-45.1-30.3-55.2C1258.8,74.7,1257.3,77.3,1259,78.1L1259,78.1z"
   style="fill:#E8E8E8;"
   id="path33" />
		</g>
	</g>
	<g
   id="g43">
		<g
   id="g41">
			<path
   d="M1206.5,58.3c22.8,3.8,44.2,12.6,63.1,25.8c1.6,1.1,3.1-1.5,1.5-2.6c-19.1-13.3-40.9-22.2-63.8-26.1     C1205.4,55,1204.6,57.9,1206.5,58.3L1206.5,58.3z"
   style="fill:#E8E8E8;"
   id="path39" />
		</g>
	</g>
	<g
   id="g49">
		<g
   id="g47">
			<path
   d="M1118,29.1c31.1,3.2,64.6,7.3,88.5,29.6c1.4,1.3,3.5-0.8,2.1-2.1c-24.5-22.9-58.6-27.2-90.6-30.5     C1116,25.9,1116.1,28.9,1118,29.1L1118,29.1z"
   style="fill:#E8E8E8;"
   id="path45" />
		</g>
	</g>
	<g
   id="g55">
		<g
   id="g53">
			<path
   d="M1205.8,58.8c-4.3,32-22,61.5-48.3,80.2c-1.6,1.1-0.1,3.7,1.5,2.6c27.3-19.5,45.4-49.6,49.8-82.8     C1209.1,56.9,1206.1,56.9,1205.8,58.8L1205.8,58.8z"
   style="fill:#E8E8E8;"
   id="path51" />
		</g>
	</g>
	<g
   id="g61">
		<g
   id="g59">
			<path
   d="M1116.1,27.4c26.2,31.8,40.3,72.5,39.5,113.7c0,1.9,3,1.9,3,0c0.7-42-13.7-83.4-40.4-115.8     C1117,23.8,1114.9,25.9,1116.1,27.4L1116.1,27.4z"
   style="fill:#E8E8E8;"
   id="path57" />
		</g>
	</g>
	<g
   id="g67">
		<g
   id="g65">
			<path
   d="M1131.8,62.3c-12-0.8-23.1,14.3-17.3,25.5c4.3,8.3,20.6,12.7,26.3,3.7c1-1.6-1.6-3.1-2.6-1.5     c-4.5,7.2-18.5,2.3-21.2-4.2c-4-9.4,5.2-21.2,14.9-20.5C1133.7,65.4,1133.7,62.4,1131.8,62.3L1131.8,62.3z"
   style="fill:#E8E8E8;"
   id="path63" />
		</g>
	</g>
	<g
   id="g73">
		<g
   id="g71">
			<path
   d="M1115.3,26.8c1.1,14,3.3,27.9,6.7,41.5c0.5,1.9,3.4,1.1,2.9-0.8c-3.3-13.4-5.5-27-6.6-40.7     C1118.1,24.9,1115.1,24.9,1115.3,26.8L1115.3,26.8z"
   style="fill:#E8E8E8;"
   id="path69" />
		</g>
	</g>
	<g
   id="g79">
		<g
   id="g77">
			<path
   d="M1134,96.9c6.6,15,13.2,30,19.7,45c0.8,1.8,3.4,0.2,2.6-1.5c-6.6-15-13.2-30-19.7-45     C1135.9,93.7,1133.3,95.2,1134,96.9L1134,96.9z"
   style="fill:#E8E8E8;"
   id="path75" />
		</g>
	</g>
	<g
   id="g85">
		<g
   id="g83">
			<path
   d="M1134.8,95.6c3.9,11.2,7.9,22.4,14,32.7c1,1.7,3.5,0.2,2.6-1.5c-5.4-10.1-9.3-20.7-11.8-31.8     c-0.8,0.5-1.7,1-2.5,1.5c0.1,0.1,0.1,0.1,0.2,0.2c-0.1-0.6-0.2-1.2-0.2-1.8c-0.1,0.1-0.1,0.2-0.2,0.3c0.8-0.1,1.6-0.2,2.4-0.3     c-0.1-0.2,8.8-8.3,9.4-8.8c-0.8-0.2-1.7-0.4-2.5-0.7c2.1,9.1,3.5,18.3,4.4,27.6c1-0.1,2-0.3,2.9-0.4c-1.7-6.5-3.9-12.9-6.5-19.1     c-0.7-1.7-3.3-1.1-2.9,0.8c1.7,8.1,3.3,16.2,5,24.4c1-0.3,1.9-0.5,2.9-0.8c-2.2-6.8-4.6-13.4-7.3-20c-0.7-1.8-3.4-1.1-2.9,0.8     c2,7.5,4,15.1,6,22.6c0.9-0.4,1.8-0.8,2.7-1.2c-2.8-6.5-5.5-13-8.3-19.6c-0.7-1.5-3.3-0.4-2.7,1.2c4,10.8,8,21.6,11.8,32.5     c0.6,1.8,3.4,1.1,2.9-0.8c-1.5-5.3-2.6-10.7-3.1-16.2c-1,0.1-2,0.3-2.9,0.4c1.8,6.2,3.6,12.4,5.4,18.6c0.5,1.9,3.3,1.1,2.9-0.8     c-1.6-7-2.7-14.1-3.4-21.3c-1,0.1-2,0.3-2.9,0.4c1.3,7.3,2.5,14.6,4.3,21.8c0.4,1.6,3.1,1.3,2.9-0.4c-0.8-9-2.3-17.9-4.5-26.7     c-0.5-1.9-3.3-1.1-2.9,0.8c0.7,3.1,0.7,6.1,0.3,9.3c0.9-0.3,1.9-0.5,2.8-0.8c-2.5-4.3-4.1-8.7-4.7-13.6c-0.2-1.5-1.9-2.1-2.8-0.8     c-0.7,1-1.3,2-2,3c0.9,0,1.7,0,2.6,0c-1.3-3-1.8-5.8-1.7-9.1c-1,0-2,0-3,0c-0.2,0.7-0.4,1.4-0.6,2.1c0.8,0.2,1.7,0.4,2.5,0.7     c-0.5-2.6-0.5-4.6-0.3-7.1c-1,0.1-2,0.3-2.9,0.4c-0.2,1.1-0.3,2.2-0.5,3.3c0.9,0,1.7,0,2.6,0c0.4-1.4,0.9-2.8,1.3-4.2     c-0.7-0.3-1.5-0.6-2.2-0.9c-0.5,1.6-1,3.2-1.5,4.8c0.8,0.5,1.7,1,2.5,1.5c0.7-3.2,2.1-5.5,4.5-7.8c-0.8-0.2-1.7-0.4-2.5-0.7     c0.4,2.7,0.1,4.9-0.8,7.5c1,0.1,2,0.3,2.9,0.4c0-2.2,0.3-4.1,1.1-6.2c-1-0.1-2-0.3-2.9-0.4c0,1.8,0.1,3.6,0.1,5.4     c0,1.6,2.7,2.1,2.9,0.4c0.3-1.8,0.6-3.6,0.9-5.4c-1,0-1.9,0-2.9,0c0,1-0.1,2-0.1,3.1c-0.8,1.8,1.8,3.3,2.6,1.5     c0.9-2,1.1-3.2,0.4-5.4c-0.4-1.3-2.6-1.5-2.9,0c-0.3,1.8-0.6,3.6-0.9,5.4c1,0.1,2,0.3,2.9,0.4c0-1.8-0.1-3.6-0.1-5.4     c0-1.7-2.4-2-2.9-0.4c-0.9,2.4-1.2,4.5-1.2,7c0,1.7,2.4,2,2.9,0.4c1.1-3.1,1.3-5.8,0.8-9.1c-0.2-1.2-1.8-1.3-2.5-0.7     c-2.7,2.5-4.4,5.5-5.3,9.1c-0.3,1.4,1.4,2.6,2.5,1.5c2.1-2.3,2.8-4.6,2.2-7.7c-0.2-0.9-1.5-1.4-2.2-0.9c-3,2-3.8,5-2.4,8.3     c0.5,1.1,2,0.8,2.6,0c1.3-1.9,1.5-3.5,0.8-5.6c-0.6-1.7-2.8-1.3-2.9,0.4c-0.3,2.7-0.1,5.2,0.4,7.9c0.2,1.1,1.8,1.4,2.5,0.7     c1.2-1.3,1.7-2.3,1.5-4.2c-0.2-1.9-3-2-3,0c-0.1,3.8,0.6,7.1,2.1,10.6c0.5,1.1,2,0.8,2.6,0c0.7-1,1.3-2,2-3     c-0.9-0.3-1.9-0.5-2.8-0.8c0.7,5.5,2.3,10.4,5.1,15.1c0.8,1.4,2.6,0.6,2.8-0.8c0.5-3.5,0.3-6.6-0.4-10.1c-1,0.3-1.9,0.5-2.9,0.8     c2.2,8.5,3.6,17.2,4.4,25.9c1-0.1,2-0.3,2.9-0.4c-1.7-7.2-3-14.5-4.3-21.8c-0.3-1.7-3.1-1.3-2.9,0.4c0.7,7.5,1.8,14.8,3.5,22.1     c1-0.3,1.9-0.5,2.9-0.8c-1.8-6.2-3.6-12.4-5.4-18.6c-0.5-1.6-3.1-1.3-2.9,0.4c0.6,5.8,1.6,11.4,3.2,17c1-0.3,1.9-0.5,2.9-0.8     c-3.9-10.9-7.8-21.7-11.8-32.5c-0.9,0.4-1.8,0.8-2.7,1.2c2.8,6.5,5.5,13,8.3,19.6c0.7,1.6,3.2,0.4,2.7-1.2c-2-7.5-4-15.1-6-22.6     c-1,0.3-1.9,0.5-2.9,0.8c2.6,6.6,5,13.3,7.3,20c0.6,1.8,3.3,1.1,2.9-0.8c-1.7-8.1-3.3-16.2-5-24.4c-1,0.3-1.9,0.5-2.9,0.8     c2.6,6.2,4.8,12.6,6.5,19.1c0.4,1.6,3.1,1.3,2.9-0.4c-0.9-9.6-2.4-19-4.5-28.4c-0.3-1.1-1.7-1.4-2.5-0.7     c-2.8,2.6-7.7,5.7-9.6,9.1c-0.9,1.7-0.9,2.6,0.2,3.9c0.7,0.8,1.8,0.4,2.4-0.3c0.1-0.1,0.1-0.2,0.2-0.3c0.4-0.5,0.2-1.4-0.2-1.8     c-0.1-0.1-0.1-0.1-0.2-0.2c-1.1-1.1-2.8,0-2.5,1.5c2.5,11.4,6.5,22.3,12.1,32.5c0.9-0.5,1.7-1,2.6-1.5c-5.9-10.1-9.9-21-13.7-32     C1137,93,1134.1,93.8,1134.8,95.6L1134.8,95.6z"
   style="fill:#E8E8E8;"
   id="path81" />
		</g>
	</g>
	<g
   id="g91">
		<g
   id="g89">
			<path
   d="M1116.9,31.1c2.9,10.7,5,21.5,6.4,32.4c0.1,1.1,1.2,1.9,2.3,1.3c3.3-1.8,6.6-3.1,10.3-4     c0.9-0.2,1.4-1.4,0.9-2.2c-4.6-6.9-8.9-14-12.9-21.2c-0.9-1.7-3.4-0.2-2.6,1.5c2.7,5.9,4.8,12,6.5,18.2c0.9-0.4,1.8-0.8,2.7-1.2     c-2.3-4.4-3.9-8.9-4.9-13.8c-0.9,0.4-1.8,0.8-2.7,1.2c3.7,5.4,5.7,11.3,6,17.8c0.9-0.4,1.7-0.7,2.6-1.1c-2.3-2.1-3.6-4.4-4.3-7.5     c-0.7,0.6-1.5,1.1-2.2,1.7c2.1,1.6,2.8,3.4,2.3,5.5c0.9-0.3,1.9-0.5,2.8-0.8c-2.5-3.3-4.5-6.8-6.3-10.5c-0.7,0.7-1.4,1.4-2.1,2.1     c2.8,1.8,6.5,19.7,13.6,11.6c2.6-3,1.1-6.8-0.6-9.9c-2.8-5.2-6.3-10-9.9-14.6c-1.1-1.4-3.2,0.4-2.4,1.8     c3.9,6.7,6.8,13.7,8.7,21.2c0.9-0.4,1.8-0.8,2.7-1.2c-0.4-0.9-0.8-1.7-1.2-2.6c-0.7,0.7-1.4,1.4-2.1,2.1c0-0.1,0-0.1,0-0.2     c-0.6,0.5-1.3,1-1.9,1.4c1.3,0.5,2.7,1,4,1.5c1.8,0.7,2.6-2.2,0.8-2.9c-1.3-0.5-2.7-1-4-1.5c-0.9-0.4-1.9,0.6-1.9,1.4     c-0.1,7.9,11.1,1.6,4.5-2.4c-1.4-0.8-2.7,0.8-2.1,2.1c0.4,0.9,0.8,1.7,1.2,2.6c0.7,1.6,3.1,0.4,2.7-1.2c-2-7.8-4.9-15-9-21.9     c-0.8,0.6-1.6,1.2-2.4,1.8c2.2,2.9,4.3,5.8,6.3,8.8c0.8,1.2,1.6,2.4,2.3,3.7c0.6,0.9,1.1,1.9,1.5,2.9c1.6,2.1,0.4,3.3-3.7,3.5     c-1.4-1.1-1.6-4.8-2.2-6.4c-0.8-2-1.8-3.3-3.6-4.4c-1.4-0.8-2.6,0.8-2.1,2.1c1.8,3.8,3.8,7.2,6.3,10.5c0.9,1.2,2.6,0.8,2.8-0.8     c0.4-3.5-0.9-6.1-3.8-8.1c-1.1-0.8-2.5,0.5-2.2,1.7c0.8,3.5,2.5,6.4,5.1,8.8c0.9,0.8,2.6,0.3,2.6-1.1c-0.3-7.1-2.5-13.5-6.4-19.3     c-1-1.4-3.1-0.5-2.7,1.2c1.1,5.1,2.8,9.9,5.2,14.5c0.8,1.5,3.2,0.5,2.7-1.2c-1.7-6.5-4-12.8-6.8-18.9c-0.9,0.5-1.7,1-2.6,1.5     c4,7.3,8.3,14.3,12.9,21.2c0.3-0.7,0.6-1.5,0.9-2.2c-3.9,0.9-7.5,2.3-11,4.3c0.8,0.4,1.5,0.9,2.3,1.3     c-1.4-11.2-3.5-22.3-6.5-33.2C1119.3,28.4,1116.4,29.2,1116.9,31.1L1116.9,31.1z"
   style="fill:#E8E8E8;"
   id="path87" />
		</g>
	</g>
	<g
   id="g97">
		<g
   id="g95">
			<path
   d="M1117,82.1c-2.3-5.7,3.2-11,7.6-13.6c4.3-2.6,9.1-3.5,14.1-3.2c1.4,0.1,1.8-1.6,1.1-2.6     c-0.9-1.1-1.7-2.2-2.6-3.3c-0.8-1-2.7-0.2-2.6,1.1c-0.3-2-3.1-0.8-4.4-0.8c-4.8-0.1-2.9-1-3.1-3.7c-0.4-3.3-2.3-6.7-3.1-9.9     c-1.2-4.7-1.8-9.4-2.2-14.2c-0.1-1.9-3.1-1.9-3,0c0.4,5.7,1.2,11.3,2.7,16.8c0.7,2.4,2.4,5.4,2.1,7.9c-0.1,1.1-0.9,1.9-0.9,3     c0.1,2.3,2.4,3.7,4.5,3.7c2.3,0,4.6-0.5,7-0.4c1.3,0.1,1.5,0.4,2.7-0.4c0.4-0.3,0.8-0.8,0.7-1.3c0-0.2-0.1-0.5-0.1-0.7     c-0.9,0.4-1.7,0.7-2.6,1.1c0.9,1.1,1.7,2.2,2.6,3.3c0.4-0.9,0.7-1.7,1.1-2.6c-9.8-0.6-29.9,7.5-24.6,20.6     C1114.8,84.7,1117.7,83.9,1117,82.1L1117,82.1z"
   style="fill:#E8E8E8;"
   id="path93" />
		</g>
	</g>
	<g
   id="g103">
		<g
   id="g101">
			<path
   d="M1122.7,65.3c-4.4,3.6-7.8,8.7-8.5,14.5c-0.6,5.1,2.5,9.6,6.3,12.8c10.2,8.7,21.1-1,27.5-9.2     c1.2-1.5-0.9-3.6-2.1-2.1c-5.2,6.7-14.3,16.5-23.2,9.2c-3.9-3.2-6.3-7.6-5-12.7c1.1-4.2,3.8-7.7,7.2-10.4     C1126.4,66.2,1124.2,64.1,1122.7,65.3L1122.7,65.3z"
   style="fill:#E8E8E8;"
   id="path99" />
		</g>
	</g>
	<g
   id="g109">
		<g
   id="g107">
			<path
   d="M1152.6,102.3c0-0.1,0-0.2-0.1-0.3c-0.2,0.6-0.5,1.1-0.7,1.7c0.1-0.1,0.2-0.1,0.3-0.2     c-0.7-0.2-1.4-0.4-2.1-0.5c1.4,2.2,1.4,6.2,1.8,8.7c0.5,3.3,1,6.7,1.4,10c0.6,5.7,0.9,11.4,1.1,17.2c0,1.9,3,1.9,3,0     c-0.2-7-0.6-14-1.5-21c-0.3-2.7-0.7-5.3-1.2-8c-0.4-2.7-0.5-6.2-2-8.5c-0.4-0.7-1.3-0.9-2.1-0.5c-0.1,0.1-0.2,0.1-0.3,0.2     c-0.6,0.3-0.9,1.1-0.7,1.7c0,0.1,0,0.2,0.1,0.3C1150.2,105,1153.1,104.2,1152.6,102.3L1152.6,102.3z"
   style="fill:#E8E8E8;"
   id="path105" />
		</g>
	</g>
	<g
   id="g115">
		<g
   id="g113">
			<path
   d="M1117.9,31.7c3.5,4.4,6.1,9.3,7.8,14.7c0.6,1.8,3.5,1,2.9-0.8c-1.9-5.9-4.7-11.2-8.6-16     C1118.9,28,1116.7,30.2,1117.9,31.7L1117.9,31.7z"
   style="fill:#E8E8E8;"
   id="path111" />
		</g>
	</g>
	<g
   id="g121">
		<g
   id="g119">
			<path
   d="M1037.2,47.1c13.7,3.9,27.5,7.3,41.5,10.1c1.9,0.4,2.7-2.5,0.8-2.9c-14-2.8-27.8-6.2-41.5-10.1     C1036.2,43.6,1035.4,46.5,1037.2,47.1L1037.2,47.1z"
   style="fill:#E8E8E8;"
   id="path117" />
		</g>
	</g>
	<g
   id="g127">
		<g
   id="g125">
			<path
   d="M1002.2,93.8c26.2-2.1,52.1-7,77.4-14.6c1.8-0.6,1.1-3.5-0.8-2.9c-25,7.5-50.6,12.4-76.6,14.4     C1000.3,90.9,1000.3,93.9,1002.2,93.8L1002.2,93.8z"
   style="fill:#E8E8E8;"
   id="path123" />
		</g>
	</g>
	<g
   id="g133">
		<g
   id="g131">
			<path
   d="M1097.4,95.3c-6,3.7-11.6,7.9-16.9,12.5c-1.5,1.3,0.7,3.4,2.1,2.1c5.1-4.4,10.6-8.4,16.3-12     C1100.6,96.9,1099.1,94.3,1097.4,95.3L1097.4,95.3z"
   style="fill:#E8E8E8;"
   id="path129" />
		</g>
	</g>
	<g
   id="g139">
		<g
   id="g137">
			<path
   d="M1099.3,127.4c-21.4,18.5-42.9,37-64.3,55.5c-1.5,1.3,0.7,3.4,2.1,2.1c21.4-18.5,42.9-37,64.3-55.5     C1102.9,128.3,1100.8,126.1,1099.3,127.4L1099.3,127.4z"
   style="fill:#E8E8E8;"
   id="path135" />
		</g>
	</g>
	<g
   id="g145">
		<g
   id="g143">
			<path
   d="M1107.4,150.2c-6.5,12.4-13.1,24.9-19.6,37.3c-0.9,1.7,1.7,3.2,2.6,1.5c6.5-12.4,13.1-24.9,19.6-37.3     C1110.9,150,1108.3,148.5,1107.4,150.2L1107.4,150.2z"
   style="fill:#E8E8E8;"
   id="path141" />
		</g>
	</g>
	<g
   id="g151">
		<g
   id="g149">
			<path
   d="M1125,157.2c-3.3,19.5-5.3,39.2-6.1,59c-0.1,1.9,2.9,1.9,3,0c0.8-19.5,2.8-39,6-58.2     C1128.2,156.1,1125.3,155.3,1125,157.2L1125,157.2z"
   style="fill:#E8E8E8;"
   id="path147" />
		</g>
	</g>
	<g
   id="g157">
		<g
   id="g155">
			<path
   d="M1214.6,61.3c25.6-3.4,48.7,13.3,61.3,34.5c14.9,25,15.4,55.9,14.7,84.2c-1.5,64.1-4.2,128.1-6.8,192.1     c-5.2,128.9-11.7,257.8-19.3,386.7c-4.3,72.4-9,144.7-14.1,217.1c-0.3,3.9,5.7,3.8,6,0c9.3-132.1,17.3-264.2,24-396.4     c6.7-131.9,12.6-263.9,16.2-395.9c0.8-30.9,0.6-64.8-16.2-92c-13.7-22.2-38.6-39.8-65.7-36.2     C1210.8,55.8,1210.8,61.8,1214.6,61.3L1214.6,61.3z"
   style="fill:#E8E8E8;"
   id="path153" />
		</g>
	</g>
	<g
   id="g163">
		<g
   id="g161">
			<path
   d="M1209.2,60c7.2,0.2,14.4,0.3,21.4,1.9c7.3,1.7,12.9,5.8,19.4,9.1c1.7,0.9,3.2-1.7,1.5-2.6     c-6.8-3.4-12.6-7.6-20.1-9.4c-7.3-1.7-14.8-1.9-22.2-2.1C1207.3,56.9,1207.3,59.9,1209.2,60L1209.2,60z"
   style="fill:#E8E8E8;"
   id="path159" />
		</g>
	</g>
	<g
   id="g169">
		<g
   id="g167">
			<path
   d="M1209.2,62c21.4,2.1,41.7,9.9,59.1,22.6c1.6,1.1,3.1-1.5,1.5-2.6c-17.9-12.9-38.7-20.8-60.6-23     C1207.3,58.8,1207.3,61.8,1209.2,62L1209.2,62z"
   style="fill:#E8E8E8;"
   id="path165" />
		</g>
	</g>
	<g
   id="g175">
		<g
   id="g173">
			<path
   d="M1204.9,55c9.4,1.8,18.6,4.2,27.6,7c1.8,0.6,2.6-2.3,0.8-2.9c-9.1-2.9-18.3-5.2-27.6-7     C1203.8,51.7,1203,54.6,1204.9,55L1204.9,55z"
   style="fill:#E8E8E8;"
   id="path171" />
		</g>
	</g>
	<g
   id="g181">
		<g
   id="g179">
			<path
   d="M1207.1,54.7c11.7,1.3,23.1,3.8,34.2,7.4c1.8,0.6,2.6-2.3,0.8-2.9c-11.4-3.7-23.1-6.2-35-7.5     C1205.2,51.5,1205.2,54.5,1207.1,54.7L1207.1,54.7z"
   style="fill:#E8E8E8;"
   id="path177" />
		</g>
	</g>
	<g
   id="g187">
		<g
   id="g185">
			<path
   d="M1170.3,37.4c15.4,5.4,30.1,12.2,44.1,20.4c1.7,1,3.2-1.6,1.5-2.6c-14.3-8.4-29.3-15.3-44.9-20.7     C1169.3,33.9,1168.5,36.8,1170.3,37.4L1170.3,37.4z"
   style="fill:#E8E8E8;"
   id="path183" />
		</g>
	</g>
	<g
   id="g193">
		<g
   id="g191">
			<path
   d="M1166.1,36.4c15.7,5.8,30.8,12.8,45.3,21.1c1.7,1,3.2-1.6,1.5-2.6c-14.8-8.4-30.1-15.5-46.1-21.4     C1165.1,32.9,1164.3,35.8,1166.1,36.4L1166.1,36.4z"
   style="fill:#E8E8E8;"
   id="path189" />
		</g>
	</g>
	<g
   id="g199">
		<g
   id="g197">
			<path
   d="M1189.3,110.9c9.1-16,17-32.6,23.7-49.8c0.7-1.8-2.2-2.6-2.9-0.8c-6.6,16.9-14.4,33.3-23.4,49.1     C1185.8,111,1188.4,112.5,1189.3,110.9L1189.3,110.9z"
   style="fill:#E8E8E8;"
   id="path195" />
		</g>
	</g>
	<g
   id="g205">
		<g
   id="g203">
			<path
   d="M1208.9,59.9c-1.8,3-3.1,6.1-4,9.5c-0.5,1.9,2.4,2.7,2.9,0.8c0.8-3.1,2-6,3.7-8.8     C1212.5,59.7,1209.9,58.2,1208.9,59.9L1208.9,59.9z"
   style="fill:#E8E8E8;"
   id="path201" />
		</g>
	</g>
	<g
   id="g211">
		<g
   id="g209">
			<path
   d="M432.5,574.3c0,4.8,0,9.6,0,14.4c0,1.9,3,1.9,3,0c0-4.8,0-9.6,0-14.4C435.5,572.4,432.5,572.4,432.5,574.3     L432.5,574.3z"
   style="fill:#E8E8E8;"
   id="path207" />
		</g>
	</g>
	<g
   id="g217">
		<g
   id="g215">
			<path
   d="M434,590.8c70.1,0,140.2,0,210.3,0c1.9,0,1.9-3,0-3c-70.1,0-140.2,0-210.3,0     C432.1,587.8,432.1,590.8,434,590.8L434,590.8z"
   style="fill:#E8E8E8;"
   id="path213" />
		</g>
	</g>
	<g
   id="g223">
		<g
   id="g221">
			<path
   d="M435.6,575.3c69.2,0,138.5,0,207.7,0c1.9,0,1.9-3,0-3c-69.2,0-138.5,0-207.7,0     C433.7,572.3,433.7,575.3,435.6,575.3L435.6,575.3z"
   style="fill:#E8E8E8;"
   id="path219" />
		</g>
	</g>
	<g
   id="g229">
		<g
   id="g227">
			<path
   d="M641.7,574.9c0.2,4.8,0.1,9.6-0.5,14.4c-0.2,1.9,2.8,1.9,3,0c0.6-4.8,0.8-9.6,0.5-14.4     C644.6,572.9,641.6,572.9,641.7,574.9L641.7,574.9z"
   style="fill:#E8E8E8;"
   id="path225" />
		</g>
	</g>
	<g
   id="g235">
		<g
   id="g233">
			<path
   d="M553.1,507.5c-5.7,21.6-2.5,43.9,2.7,65.2c0.5,1.9,3.3,1.1,2.9-0.8c-5.1-20.9-8.3-42.5-2.7-63.6     C556.5,506.4,553.6,505.6,553.1,507.5L553.1,507.5z"
   style="fill:#E8E8E8;"
   id="path231" />
		</g>
	</g>
	<g
   id="g241">
		<g
   id="g239">
			<path
   d="M600.8,511.5c0.7,4.5,1.4,8.9,2.1,13.4c0.3,1.9,3.2,1.1,2.9-0.8c-0.7-4.5-1.4-8.9-2.1-13.4     C603.4,508.8,600.5,509.6,600.8,511.5L600.8,511.5z"
   style="fill:#E8E8E8;"
   id="path237" />
		</g>
	</g>
	<g
   id="g247">
		<g
   id="g245">
			<path
   d="M604.6,525.4c8.1-6.1,12.7,5.8,12.8,12c0.1,7.8-3.6,14.8-12.1,15.4c-1.9,0.1-1.9,3.1,0,3     c11.6-0.7,16-10.9,14.9-21.3c-0.8-8-8.5-18.1-17.1-11.6C601.5,524,603,526.6,604.6,525.4L604.6,525.4z"
   style="fill:#E8E8E8;"
   id="path243" />
		</g>
	</g>
	<g
   id="g253">
		<g
   id="g251">
			<path
   d="M604,553.8c-0.6,6-1.7,11.8-3.1,17.7c-0.5,1.9,2.4,2.7,2.9,0.8c1.5-6.1,2.6-12.2,3.3-18.5     C607.2,551.8,604.2,551.9,604,553.8L604,553.8z"
   style="fill:#E8E8E8;"
   id="path249" />
		</g>
	</g>
	<g
   id="g259">
		<g
   id="g257">
			<path
   d="M606.7,530.1c3.2-2.6,4.5,5.6,4.6,6.7c0.1,1.3-0.1,2.7-0.4,4c-0.8,3.1-2.5,5.6-4.9,7.6     c-1.5,1.2,0.6,3.3,2.1,2.1c4.6-3.8,7-9.9,6-15.8c-0.7-4.4-4.6-10.8-9.5-6.7C603.1,529.2,605.2,531.3,606.7,530.1L606.7,530.1z"
   style="fill:#E8E8E8;"
   id="path255" />
		</g>
	</g>
	<g
   id="g265">
		<g
   id="g263">
			<path
   d="M604.2,527.6c-0.4,7-0.3,14,0.2,21.1c0.1,1.9,3.1,1.9,3,0c-0.5-7-0.6-14-0.2-21.1     C607.3,525.6,604.3,525.6,604.2,527.6L604.2,527.6z"
   style="fill:#E8E8E8;"
   id="path261" />
		</g>
	</g>
	<g
   id="g271">
		<g
   id="g269">
			<path
   d="M558.1,510.9c12.1,3.9,24.7,4.9,37.3,3c1.9-0.3,1.1-3.2-0.8-2.9c-12.1,1.8-24.1,0.8-35.7-3     C557.1,507.4,556.3,510.3,558.1,510.9L558.1,510.9z"
   style="fill:#E8E8E8;"
   id="path267" />
		</g>
	</g>
	<g
   id="g277">
		<g
   id="g275">
			<path
   d="M565,503.3c-5.9-3.7,1-11.8,2-16.5c1-4.7-1.7-7-3.5-11c-2.6-5.8,3.4-10.1,4.3-15.7c0.8-4.9-3.2-9,2.2-13     c1.5-1.1,0.1-3.7-1.5-2.6c-3.3,2.4-5.3,6.1-4.6,10.3c0.5,3.1,1.3,4.7-0.2,7.9c-0.7,1.6-1.7,3-2.5,4.6c-1,2.2-1.9,4.5-1.6,7     c0.2,2.5,1.5,3.6,2.7,5.6c3.5,5.9,0.3,8.9-1.7,14.5c-1.5,4.2-1.1,8.8,2.9,11.3C565.1,506.9,566.6,504.3,565,503.3L565,503.3z"
   style="fill:#E8E8E8;"
   id="path273" />
		</g>
	</g>
	<g
   id="g283">
		<g
   id="g281">
			<path
   d="M582.8,431.6c-1.5,3.9-3.4,8.3-3.7,12.5c-0.3,3.8,2.5,5.9,3.4,9.3c1.1,4.1-2.8,7.5-3.2,11.5     c-0.5,5.2,4.1,8.6-0.4,13.6c-1.3,1.4,0.8,3.6,2.1,2.1c2.3-2.5,3.5-5.5,3.1-8.9c-0.3-2.5-2.1-4.6-1.7-7.3c0.3-2.1,1.9-4,2.6-6     c1.2-3.2,0.7-5.7-0.9-8.6c-3.2-6-0.6-11.5,1.6-17.4C586.4,430.6,583.5,429.8,582.8,431.6L582.8,431.6z"
   style="fill:#E8E8E8;"
   id="path279" />
		</g>
	</g>
	<g
   id="g289">
		<g
   id="g287">
			<path
   d="M597.6,461.4c-4.7,4.9-6.9,11.6-5.6,18.4c0.4,2.2,1.5,4.4,1.6,6.7c0.2,2.9-1.6,4.3-2.4,6.8     c-1.1,3.2,2.8,7.8,0.4,10.3c-1.3,1.4,0.8,3.5,2.1,2.1c1.5-1.6,1.9-3.4,1.5-5.6c-0.4-2.4-1.8-4.1-0.8-6.6c0.6-1.5,1.8-2.3,2.2-4     c0.8-3.8-1.2-7.4-1.8-11.1c-0.9-5.5,1.1-10.9,4.9-14.9C601.1,462.1,598.9,460,597.6,461.4L597.6,461.4z"
   style="fill:#E8E8E8;"
   id="path285" />
		</g>
	</g>
	<g
   id="g295">
		<g
   id="g293">
			<path
   d="M450.6,572.3c-0.3-3.9-0.4-7.7-0.3-11.6c-0.5,0.5-1,1-1.5,1.5c16.1-1.6,32.3-2.4,48.5-2.6     c7.8-0.1,15.6,0,23.3,0.3c1.9,0.1,3.9,0.1,5.8,0.2c1.3,0.1,4.6-0.4,5.8,0.3c2.9,1.7,1.7,10.9,1.8,13.8c0.1,1.9,3.1,1.9,3,0     c-0.1-4.1,0.6-9.5-0.5-13.4c-0.5-1.7-1.1-2.6-2.9-3.3c-3.6-1.3-9.3-0.6-13.1-0.7c-4.5-0.2-9.1-0.3-13.6-0.3     c-19.4-0.2-38.9,0.7-58.2,2.6c-0.8,0.1-1.5,0.6-1.5,1.5c-0.2,3.9-0.1,7.7,0.3,11.6C447.7,574.2,450.7,574.2,450.6,572.3     L450.6,572.3z"
   style="fill:#E8E8E8;"
   id="path291" />
		</g>
	</g>
	<g
   id="g301">
		<g
   id="g299">
			<path
   d="M475.6,557.9c0-1.8-0.7-5.6,0.1-7.2c1.3-2.9,6.7-2.1,9.3-2.2c5.7-0.2,11.3-0.5,17-0.7     c5.3-0.2,10.6-0.4,16-0.6c3.4-0.1,7.2-1.1,8.6,2.7c0.8,2.2,0.5,5.6,0.7,7.9c0.2,1.9,3.2,1.9,3,0c-0.4-4,0.8-12.4-4.4-13.8     c-2.9-0.8-6.9,0.1-10,0.2c-4.7,0.2-9.3,0.4-14,0.6c-8.2,0.3-17.2-0.4-25.2,1.1c-5.7,1-4.1,7.7-4.2,12     C472.6,559.8,475.6,559.8,475.6,557.9L475.6,557.9z"
   style="fill:#E8E8E8;"
   id="path297" />
		</g>
	</g>
	<g
   id="g307">
		<g
   id="g305">
			<path
   d="M508.2,559.8c1.7,4.6,2.3,9.2,1.7,14c-0.2,1.9,2.8,1.9,3,0c0.7-5.1,0.1-10-1.8-14.8     C510.4,557.2,507.5,558,508.2,559.8L508.2,559.8z"
   style="fill:#E8E8E8;"
   id="path303" />
		</g>
	</g>
	<g
   id="g313">
		<g
   id="g311">
			<path
   d="M508.4,546.8c1.8,4.1,2.2,8.4,1.4,12.8c-0.4,1.9,2.5,2.7,2.9,0.8c1-5.2,0.4-10.2-1.7-15.1     C510.2,543.5,507.7,545,508.4,546.8L508.4,546.8z"
   style="fill:#E8E8E8;"
   id="path309" />
		</g>
	</g>
	<g
   id="g319">
		<g
   id="g317">
			<path
   d="M519.7,545.9c0.7,3.6,1.4,7.3,1.8,10.9c0.2,1.9,3.2,1.9,3,0c-0.5-3.9-1.1-7.9-1.9-11.7     C522.2,543.2,519.3,544,519.7,545.9L519.7,545.9z"
   style="fill:#E8E8E8;"
   id="path315" />
		</g>
	</g>
	<g
   id="g325">
		<g
   id="g323">
			<path
   d="M524.8,560.3c1.5,4,1.8,8,0.9,12.1c-0.4,1.9,2.4,2.7,2.9,0.8c1.1-4.6,0.8-9.3-0.9-13.7     C527,557.7,524.1,558.5,524.8,560.3L524.8,560.3z"
   style="fill:#E8E8E8;"
   id="path321" />
		</g>
	</g>
	<g
   id="g331">
		<g
   id="g329">
			<path
   d="M416.4,302.6c0,4.1,0.2,8.2,0.5,12.2c0.2,1.9,3.2,1.9,3,0c-0.4-4.1-0.6-8.1-0.5-12.2     C419.4,300.7,416.4,300.7,416.4,302.6L416.4,302.6z"
   style="fill:#E8E8E8;"
   id="path327" />
		</g>
	</g>
	<g
   id="g337">
		<g
   id="g335">
			<path
   d="M419.2,318.1c72.1,0,144.1,0,216.2,0c1.9,0,1.9-3,0-3c-72.1,0-144.1,0-216.2,0     C417.3,315.1,417.3,318.1,419.2,318.1L419.2,318.1z"
   style="fill:#E8E8E8;"
   id="path333" />
		</g>
	</g>
	<g
   id="g343">
		<g
   id="g341">
			<path
   d="M418.8,303.7c72.1,0,144.1,0,216.2,0c1.9,0,1.9-3,0-3c-72.1,0-144.1,0-216.2,0     C416.8,300.7,416.8,303.7,418.8,303.7L418.8,303.7z"
   style="fill:#E8E8E8;"
   id="path339" />
		</g>
	</g>
	<g
   id="g349">
		<g
   id="g347">
			<path
   d="M634.4,302.6c0,4.7,0,9.3,0,14c0,1.9,3,1.9,3,0c0-4.7,0-9.3,0-14C637.4,300.7,634.4,300.7,634.4,302.6     L634.4,302.6z"
   style="fill:#E8E8E8;"
   id="path345" />
		</g>
	</g>
	<g
   id="g355">
		<g
   id="g353">
			<path
   d="M427.4,259.4c3.3,14,6.6,28,10.1,41.9c0.5,1.9,3.4,1.1,2.9-0.8c-3.5-13.9-6.8-27.9-10.1-41.9     C429.9,256.7,427,257.5,427.4,259.4L427.4,259.4z"
   style="fill:#E8E8E8;"
   id="path351" />
		</g>
	</g>
	<g
   id="g361">
		<g
   id="g359">
			<path
   d="M428.8,259.2c7.4-0.2,14.7-0.5,22-1c3.5-0.2,7-0.5,10.5-0.8c4-0.4,8.4-1.3,12.2,0.5c1.7,0.8,3.3-1.8,1.5-2.6     c-6.2-3-13.9-0.9-20.5-0.4c-8.6,0.6-17.2,1.1-25.9,1.3C426.8,256.2,426.8,259.2,428.8,259.2L428.8,259.2z"
   style="fill:#E8E8E8;"
   id="path357" />
		</g>
	</g>
	<g
   id="g367">
		<g
   id="g365">
			<path
   d="M472.5,256.8c-1.2,14.8-3.8,29.4-7.6,43.8c-0.5,1.9,2.4,2.7,2.9,0.8c3.9-14.6,6.5-29.5,7.7-44.6     C475.6,254.9,472.6,254.9,472.5,256.8L472.5,256.8z"
   style="fill:#E8E8E8;"
   id="path363" />
		</g>
	</g>
	<g
   id="g373">
		<g
   id="g371">
			<path
   d="M437.9,255.6c-5.8-6.9-10.4-14-13.3-22.6c-2.5-7.3-3.9-14.9-5.3-22.5c-0.6,0.6-1.2,1.2-1.8,1.8     c18.4,6.3,27.6,24.2,31.2,42.2c0.4,1.9,3.3,1.1,2.9-0.8c-3.8-19.1-13.9-37.6-33.3-44.2c-1.2-0.4-2,0.8-1.8,1.8     c1.6,8.7,3.2,17.4,6.4,25.6c3,7.7,7.6,14.4,12.9,20.7C437,259.2,439.1,257.1,437.9,255.6L437.9,255.6z"
   style="fill:#E8E8E8;"
   id="path369" />
		</g>
	</g>
	<g
   id="g379">
		<g
   id="g377">
			<path
   d="M446.8,236.6c-2.6-9.3,6.1-16.1,11.1-22.7c4.8-6.3,8.7-13.2,11.9-20.5c-0.9-0.1-1.8-0.2-2.7-0.4     c4.9,20.1,9.6,44.2-6,61c-1.3,1.4,0.8,3.5,2.1,2.1c16.3-17.7,11.9-42.7,6.7-63.9c-0.3-1.2-2.2-1.6-2.7-0.4     c-4,9.4-9.4,17.8-16,25.6c-4.9,5.7-9.4,12.1-7.2,20C444.4,239.2,447.3,238.5,446.8,236.6L446.8,236.6z"
   style="fill:#E8E8E8;"
   id="path375" />
		</g>
	</g>
	<g
   id="g385">
		<g
   id="g383">
			<path
   d="M517.2,301.3c0-5.7,0-11.4,0-17c0-1.9-3-1.9-3,0c0,5.7,0,11.4,0,17C514.2,303.3,517.2,303.3,517.2,301.3     L517.2,301.3z"
   style="fill:#E8E8E8;"
   id="path381" />
		</g>
	</g>
	<g
   id="g391">
		<g
   id="g389">
			<path
   d="M515.7,285.4c36.3,0,72.5,0,108.8,0c1.9,0,1.9-3,0-3c-36.3,0-72.5,0-108.8,0     C513.8,282.4,513.8,285.4,515.7,285.4L515.7,285.4z"
   style="fill:#E8E8E8;"
   id="path387" />
		</g>
	</g>
	<g
   id="g397">
		<g
   id="g395">
			<path
   d="M623.4,285.2c0,5.5,0,11.1,0,16.6c0,1.9,3,1.9,3,0c0-5.5,0-11.1,0-16.6C626.4,283.2,623.4,283.2,623.4,285.2     L623.4,285.2z"
   style="fill:#E8E8E8;"
   id="path393" />
		</g>
	</g>
	<g
   id="g403">
		<g
   id="g401">
			<path
   d="M537.3,283.4c0-3.3,0-6.7,0-10c0-1.9-3-1.9-3,0c0,3.3,0,6.7,0,10C534.3,285.4,537.3,285.4,537.3,283.4     L537.3,283.4z"
   style="fill:#E8E8E8;"
   id="path399" />
		</g>
	</g>
	<g
   id="g409">
		<g
   id="g407">
			<path
   d="M535.8,273.6c28.5,0,57.1,0,85.6,0c1.9,0,1.9-3,0-3c-28.5,0-57.1,0-85.6,0     C533.9,270.6,533.9,273.6,535.8,273.6L535.8,273.6z"
   style="fill:#E8E8E8;"
   id="path405" />
		</g>
	</g>
	<g
   id="g415">
		<g
   id="g413">
			<path
   d="M620.4,272.1c0,3.8,0,7.6,0,11.4c0,1.9,3,1.9,3,0c0-3.8,0-7.6,0-11.4C623.4,270.1,620.4,270.1,620.4,272.1     L620.4,272.1z"
   style="fill:#E8E8E8;"
   id="path411" />
		</g>
	</g>
	<g
   id="g421">
		<g
   id="g419">
			<path
   d="M560.5,270.8c0-5.2,0-10.5,0-15.7c0-1.9-3-1.9-3,0c0,5.2,0,10.5,0,15.7C557.5,272.7,560.5,272.7,560.5,270.8     L560.5,270.8z"
   style="fill:#E8E8E8;"
   id="path417" />
		</g>
	</g>
	<g
   id="g427">
		<g
   id="g425">
			<path
   d="M560.3,255.7c19.1,0,38.1,0,57.2,0c1.9,0,1.9-3,0-3c-19.1,0-38.1,0-57.2,0     C558.4,252.7,558.4,255.7,560.3,255.7L560.3,255.7z"
   style="fill:#E8E8E8;"
   id="path423" />
		</g>
	</g>
	<g
   id="g433">
		<g
   id="g431">
			<path
   d="M616.9,253.7c0,5.7,0,11.4,0,17c0,1.9,3,1.9,3,0c0-5.7,0-11.4,0-17C619.9,251.8,616.9,251.8,616.9,253.7     L616.9,253.7z"
   style="fill:#E8E8E8;"
   id="path429" />
		</g>
	</g>
	<g
   id="g439">
		<g
   id="g437">
			<path
   d="M596.9,255c1.4,5.4,1.7,10.7,1.2,16.2c-0.2,1.9,2.8,1.9,3,0c0.6-5.8,0.2-11.4-1.3-17     C599.3,252.3,596.4,253.1,596.9,255L596.9,255z"
   style="fill:#E8E8E8;"
   id="path435" />
		</g>
	</g>
	<g
   id="g445">
		<g
   id="g443">
			<path
   d="M605.9,255.9c0.5,4.4,0.7,8.7,0.5,13.1c-0.1,1.9,2.9,1.9,3,0c0.2-4.4,0.1-8.7-0.5-13.1     C608.7,254,605.7,254,605.9,255.9L605.9,255.9z"
   style="fill:#E8E8E8;"
   id="path441" />
		</g>
	</g>
	<g
   id="g451">
		<g
   id="g449">
			<path
   d="M593.7,272.9c0.5,3.3,0.4,6.7,0,10.1c-0.2,1.9,2.8,1.9,3,0c0.5-3.6,0.4-7.2-0.1-10.9     C596.3,270.2,593.4,271,593.7,272.9L593.7,272.9z"
   style="fill:#E8E8E8;"
   id="path447" />
		</g>
	</g>
	<g
   id="g457">
		<g
   id="g455">
			<path
   d="M601.3,272.4c0.6,2.7,0.4,5.3-0.5,8c-0.6,1.8,2.3,2.6,2.9,0.8c1.1-3.1,1.2-6.3,0.5-9.6     C603.8,269.8,600.9,270.6,601.3,272.4L601.3,272.4z"
   style="fill:#E8E8E8;"
   id="path453" />
		</g>
	</g>
	<g
   id="g463">
		<g
   id="g461">
			<path
   d="M578.7,283.9c0.6,6,0.7,11.9,0.3,17.9c-0.1,1.9,2.9,1.9,3,0c0.4-6,0.3-11.9-0.3-17.9     C581.5,282,578.5,282,578.7,283.9L578.7,283.9z"
   style="fill:#E8E8E8;"
   id="path459" />
		</g>
	</g>
	<g
   id="g469">
		<g
   id="g467">
			<path
   d="M609.5,284.3c0.7,5.6,0.7,11.1-0.2,16.7c-0.3,1.9,2.6,2.7,2.9,0.8c0.9-5.8,1.1-11.6,0.3-17.5     C612.3,282.4,609.3,282.4,609.5,284.3L609.5,284.3z"
   style="fill:#E8E8E8;"
   id="path465" />
		</g>
	</g>
	<g
   id="g475">
		<g
   id="g473">
			<path
   d="M717.8,119.4c0,17.4,0,34.8,0,52.2c0,1.9,3,1.9,3,0c0-17.4,0-34.8,0-52.2     C720.8,117.4,717.8,117.4,717.8,119.4L717.8,119.4z"
   style="fill:#E8E8E8;"
   id="path471" />
		</g>
	</g>
	<g
   id="g481">
		<g
   id="g479">
			<path
   d="M675.8,173.8c27.5,0,55.1,0,82.6,0c1.9,0,1.9-3,0-3c-27.5,0-55.1,0-82.6,0     C673.9,170.8,673.9,173.8,675.8,173.8L675.8,173.8z"
   style="fill:#E8E8E8;"
   id="path477" />
		</g>
	</g>
	<g
   id="g487">
		<g
   id="g485">
			<path
   d="M743.9,174.4c0,17.1,0,34.3,0,51.4c0,1.9,3,1.9,3,0c0-17.1,0-34.3,0-51.4     C746.9,172.5,743.9,172.5,743.9,174.4L743.9,174.4z"
   style="fill:#E8E8E8;"
   id="path483" />
		</g>
	</g>
</g>
<g
   id="cat">
	<g
   id="paw_front_right">
		<path
   d="M1188,960.6c-2.6,4.3,1.1,9.3,9.6,28.1c13,28.7,12.4,35.3,10.3,39.7c-3.5,7.2-11,8.1-10.3,11.6    c1,5.1,17.5,9,23.3,2.7c2.6-2.8,2.2-6.7,1.4-14.4c-3.6-31.9-4.3-34.2-5.5-43.9c-2.1-17.2-1-21.6-5.5-25.4    C1204.6,953.7,1191.6,954.8,1188,960.6z"
   style="fill:#161616;stroke:#161616;stroke-width:3;stroke-miterlimit:10;"
   id="path490" />
	</g>
	<g
   id="leg_back_right">
		<path
   d="M1343.6,956.2c7.5-5.3,20.6,0.3,27.4,6.9c5.7,5.4,4.4,9,11,13.7c1.5,1.1,8.4,6,17.1,5.5c6.7-0.4,8-3.7,13-2.7    c3.5,0.6,5,2.6,11.7,8.9c10.5,10,14.4,12.3,13.7,13.7c-0.7,1.3-4,0.6-18.5-1.4c-10.6-1.5-16.1-2.2-19.9-2.4    c-8.7-0.4-9.1,0.7-21.9,1c-13.2,0.4-19.9,0.4-24.7-2.1c-10.7-5.6-13.5-18-13.7-19.2C1338.5,976.5,1335.6,961.8,1343.6,956.2z"
   style="fill:#161616;stroke:#161616;stroke-width:3;stroke-miterlimit:10;"
   id="path493" />
	</g>
	<g
   id="body">
		<path
   d="M1198.3,918.1c6.5,0.2,9.3,7.8,15.1,14.4c15.1,17.4,41.4,18,63,18.5c40.8,0.9,51.8-14.6,71.3-4.1    c10.7,5.8,20.8,17.7,20.6,30.8c-0.3,17.1-18.2,29.2-30.8,33.6c-11.2,3.9-17.3,1.5-48-4.1c-49.4-9.1-59.2-7.7-78.1-18.5    c-10.8-6.2-20.5-14.1-26.7-26c-2.6-5-6.7-13.3-4.8-23.3C1181.8,928.9,1190.2,917.8,1198.3,918.1z"
   style="fill:#161616;stroke:#161616;stroke-width:3;stroke-miterlimit:10;"
   id="path496" />
	</g>
	<g
   id="tail">
		<path
   d="M1342.2,947.6c2.1-2.9,10.4,4.4,19.2,0.7c7.5-3.2,10.9-12.5,13-18.5c3.9-10.7,1.3-14.5,5.5-18.5    c4-3.9,7.5-1.4,19.2-4.8c7.9-2.3,14.3-4.1,17.8-9.6c2.8-4.4,0.8-6.6,2.7-17.8c0.6-3.4,2.9-17,6.2-17.1c2.4-0.1,5.3,7.1,5.5,13.7    c0.1,2.7-0.3,4.6-4.1,17.1c-2.4,7.8-3.6,11.7-4.1,12.3c-4.9,6.1-11.4,3.1-24,8.9c-6.1,2.8-12,5.5-15.1,11.6    c-2.8,5.6-0.4,8.1-3.4,16.4c-2.8,7.6-7.3,12.1-8.2,13c-3.3,3.3-10,9.8-17.8,8.2C1345.8,961.6,1340.1,950.5,1342.2,947.6z"
   style="fill:#161616;stroke:#161616;stroke-width:3;stroke-miterlimit:10;"
   id="path499" />
	</g>
	<g
   id="_x3B_eg_back_left">
		<path
   d="M1318.9,994.9c-1.2,2.4-4.6,9.3-3.4,17.8c1.2,8.7,6.6,16.2,10.3,21.2c5.1,7.1,8.1,8.6,7.5,11.6    c-1.1,6.6-15.9,7.1-15.8,10.3c0.2,3.2,15.2,4.8,26.7,4.1c8.6-0.5,10.6-2,11.7-3.4c2.4-3.4-0.3-7.4-1.4-16.4    c-0.8-6.4-0.2-10.9,0.7-18.5c1.5-12.5,3.9-13.3,4.8-22.6c0.7-7.4,1.9-19.7-4.1-24C1347.7,969.2,1326.8,979.3,1318.9,994.9z"
   style="fill:#161616;stroke:#161616;stroke-width:3;stroke-miterlimit:10;"
   id="path502" />
	</g>
	<g
   id="paw_front_left">
		<path
   d="M1115.4,931.8c1.6,8.1,10.4,13.2,23.3,18.5c13.7,5.7,52.5,21.7,59.6,11c1.8-2.7,1.2-6.5,0-8.9    c-3-5.7-11.2-5.1-25.4-7.5c-12.4-2.1-23.9-4-35.6-10.3c-10.8-5.7-17.2-12.6-20.6-10.3C1114.3,926,1115.3,931.3,1115.4,931.8z"
   style="fill:#161616;stroke:#161616;stroke-width:3;stroke-miterlimit:10;"
   id="path505" />
		<g
   id="g511">
			<g
   id="g509">
				<path
   d="M1099.8,896.5c3.1,5.2,6.9,9.9,11.4,14.1c1.4,1.3,3.5-0.8,2.1-2.1c-4.3-4-7.9-8.5-10.9-13.5      C1101.4,893.3,1098.8,894.8,1099.8,896.5L1099.8,896.5z"
   style="fill:#161616;"
   id="path507" />
			</g>
		</g>
		<g
   id="g517">
			<g
   id="g515">
				<path
   d="M1086.9,904c3.1,3.8,7.1,6.5,11.6,8.1c1.8,0.7,2.6-2.2,0.8-2.9c-4.1-1.5-7.6-4-10.3-7.3      C1087.8,900.4,1085.7,902.5,1086.9,904L1086.9,904z"
   style="fill:#161616;"
   id="path513" />
			</g>
		</g>
		<g
   id="g523">
			<g
   id="g521">
				<path
   d="M1087.4,923.7c2.8,0.3,5.6,0.5,8.5,0.8c1.9,0.2,1.9-2.8,0-3c-2.8-0.3-5.6-0.5-8.5-0.8      C1085.5,920.5,1085.5,923.5,1087.4,923.7L1087.4,923.7z"
   style="fill:#161616;"
   id="path519" />
			</g>
		</g>
	</g>
	<g
   id="head_1_">
		<path
   d="M1169.5,903.7c-3.5,1.4-9,4-14.4,8.9c-4.6,4.2-9,8.2-9.6,13.7c-1.1,10,11.1,19.5,20.6,23.3    c1.7,0.7,21.8,8.3,32.9-3.4c7.5-8,5.8-19.4,5.5-21.2c-2.3-14.9-15.7-21.9-17.1-22.6c-3.4-4.6-6.9-9.1-10.3-13.7    C1174.6,893.7,1172.1,898.7,1169.5,903.7z"
   style="fill:#161616;stroke:#161616;stroke-width:3;stroke-miterlimit:10;"
   id="path526" />
		<g
   id="g532">
			<g
   id="g530">
				<path
   d="M1160.2,917.2c1.5,4.3,5.5,7.2,10.1,7.1c1.9-0.1,1.9-3.1,0-3c-3.2,0.1-6.2-1.9-7.2-4.9      C1162.4,914.6,1159.5,915.4,1160.2,917.2L1160.2,917.2z"
   style="fill:#FFFFFF;"
   id="path528" />
			</g>
		</g>
		<g
   id="g538">
			<g
   id="g536">
				<path
   d="M1145.6,924.3c0.9,0,1.3,0.3,1.4,1c-0.3,0.3-0.5,0.7-0.8,1c-0.6,0.2-0.7-0.1-0.9-0.3      c-0.1-0.1,0-0.2-0.1-0.1c-0.1,0.1-0.1,0.4-0.2,0.6c0.6-0.3,1.2-0.7,1.8-1c0.1,0.1,0.1,0.1,0,0c0.1,0,0.1,0.1,0.1,0.1      c0.1,0.1,0,0.1,0-0.1c0.1,0.1,0.1,0.1,0,0c-0.1-0.8-1.1-1.2-1.8-1c-0.8,0.2-1.2,1-1,1.8c0.2,1,1,1.8,2,2.1      c0.8,0.3,1.5-0.3,1.8-1c0.4-0.9,0.5-1.9,0-2.7c-0.5-0.9-1.6-1.4-2.6-1.1c-1,0.3-1.5,1.4-1.3,2.4c0.3,1,1.3,1.7,2.3,1.4      c0.8-0.2,1.3-1,1-1.8C1147.2,924.6,1146.4,924.1,1145.6,924.3L1145.6,924.3z"
   style="fill:#FFFFFF;"
   id="path534" />
			</g>
		</g>
		<g
   id="g544">
			<g
   id="g542">
				<path
   d="M1145,926.9c1.5,5.1,7.5,7.6,12.1,5.2c1.7-0.9,0.2-3.5-1.5-2.6c-3,1.5-6.8-0.3-7.7-3.4      C1147.4,924.2,1144.5,925,1145,926.9L1145,926.9z"
   style="fill:#FFFFFF;"
   id="path540" />
			</g>
		</g>
	</g>
</g>
<path
   d="m 470.9,842.5 c 2.2,0.4 5.4,1 9.4,1.5 19.1,2.8 32.7,2.7 49.5,2.9 10.1,0.1 25,0.4 43.7,1.1 19.9,-1.4 39.9,-2.8 59.8,-4.3 -27.5,-2.8 -55,-5.7 -82.5,-8.5 -26.7,2.4 -53.3,4.8 -79.9,7.3 z"
   style="fill:#9759e4;fill-opacity:1"
   id="path548" /><path
   d="m 529.7,904.6 c 5.7,1.2 11.4,2.4 17.1,3.6 19.8,-1.2 41.5,-4.2 64.4,-10.2 4.4,-1.1 8.7,-2.3 12.8,-3.6 -31.4,3.4 -62.8,6.8 -94.3,10.2 z"
   style="fill:#9759e4;fill-opacity:1"
   id="path550" /><path
   d="m 472.2,983.5 c 0.1,8.4 0.2,16.9 0.3,25.3 46.2,5.9 92.5,11.8 138.7,17.7 0,-8.4 0,-16.9 0,-25.3 28.3,-12.6 56.5,-25.2 84.8,-37.8 -7.9,-1.2 -15.8,-2.4 -23.7,-3.6 -0.9,1.4 -1.8,2.8 -2.6,4.3 -34.3,10.6 -68.6,21.3 -102.9,31.9 -31.5,-4.2 -63.1,-8.4 -94.6,-12.5 z"
   style="fill:#9759e4;fill-opacity:1"
   id="path552" /><path
   d="m 420.8,869.2 c 34.6,4.2 69.3,8.4 103.9,12.6 38.6,-2.7 77.2,-5.5 115.8,-8.2 -8.4,-2.7 -16.8,-5.3 -25.2,-8 -17.4,1.3 -34.9,2.6 -52.3,3.9 -32.9,-2.3 -65.7,-4.7 -98.6,-7 -14.5,2.2 -29.1,4.4 -43.6,6.7 z"
   style="fill:#13cff2;fill-opacity:1"
   id="path554" /><path
   d="m 550.7,930.5 c 10.7,1.6 21.5,3.2 32.2,4.8 29.6,-7.7 59.1,-15.3 88.7,-23 -9.8,-1.5 -19.5,-2.9 -29.3,-4.4 -30.6,7.6 -61.1,15.1 -91.6,22.6 z"
   style="fill:#13cff2;fill-opacity:1"
   id="path556" /><path
   d="m 427.6,955.9 c 45.6,6.5 91.1,13.1 136.7,19.6 14.1,-3 28.8,-6.5 44.1,-10.7 21,-5.7 40.5,-12 58.6,-18.4 -6.8,-1.2 -13.6,-2.4 -20.4,-3.6 -21.3,5.9 -42.6,11.8 -64,17.7 -37.8,-5.2 -75.6,-10.3 -113.4,-15.5 -13.8,3.7 -27.7,7.3 -41.6,10.9 z"
   style="fill:#13cff2;fill-opacity:1"
   id="path558" /><g
   id="g564">
		<g
   id="g562">
			<path
   d="m 464.6,845.4 c 0,6 0,12.1 0,18.1 0,1.9 3,1.9 3,0 0,-6 0,-12.1 0,-18.1 0,-1.9 -3,-1.9 -3,0 z"
   style="fill:#161616"
   id="path560" />
		</g>
	</g><g
   id="g570">
		<g
   id="g568">
			<path
   d="m 466.6,846 c 35.4,1.2 70.9,2.3 106.3,3.5 1.9,0.1 1.9,-2.9 0,-3 -35.4,-1.2 -70.9,-2.3 -106.3,-3.5 -2,-0.1 -2,2.9 0,3 z"
   style="fill:#161616"
   id="path566" />
		</g>
	</g><g
   id="g576">
		<g
   id="g574">
			<path
   d="m 466.6,865.8 c 32.2,0.6 64.4,2.1 96.5,4.5 1.9,0.1 1.9,-2.9 0,-3 -32.1,-2.3 -64.3,-3.8 -96.5,-4.5 -2,0 -2,3 0,3 z"
   style="fill:#161616"
   id="path572" />
		</g>
	</g><g
   id="g582">
		<g
   id="g580">
			<path
   d="m 573.9,849.9 c 20.5,-1.8 41.1,-3 61.6,-3.7 1.9,-0.1 1.9,-3.1 0,-3 -20.6,0.6 -41.1,1.9 -61.6,3.7 -1.9,0.1 -2,3.1 0,3 z"
   style="fill:#161616"
   id="path578" />
		</g>
	</g><g
   id="g588">
		<g
   id="g586">
			<path
   d="m 563.6,870.4 c 24.1,-2.4 48.3,-4.7 72.4,-7.1 1.9,-0.2 1.9,-3.2 0,-3 -24.1,2.4 -48.3,4.7 -72.4,7.1 -1.9,0.2 -1.9,3.2 0,3 z"
   style="fill:#161616"
   id="path584" />
		</g>
	</g><g
   id="g594">
		<g
   id="g592">
			<path
   d="m 572.4,849.5 c -0.7,1.1 -1.2,2.2 -1.4,3.5 -0.3,2.2 0.6,3.9 -0.5,6.1 -1.3,2.8 -2.1,5 -1.6,8.1 0.3,1.9 3.2,1.1 2.9,-0.8 -0.5,-3.3 1.2,-4.8 2.2,-7.5 0.9,-2.8 -0.8,-5.2 1,-7.9 1,-1.6 -1.6,-3.2 -2.6,-1.5 z"
   style="fill:#161616"
   id="path590" />
		</g>
	</g><g
   id="g600">
		<g
   id="g598">
			<path
   d="m 467,845.1 c 27,-3.7 54.1,-6.3 81.4,-8 1.9,-0.1 1.9,-3.1 0,-3 -27.5,1.7 -54.9,4.4 -82.1,8.1 -2,0.3 -1.2,3.1 0.7,2.9 z"
   style="fill:#161616"
   id="path596" />
		</g>
	</g><g
   id="g606">
		<g
   id="g604">
			<path
   d="m 546.4,837.2 c 29.1,0.2 58.1,2.8 86.7,7.8 1.9,0.3 2.7,-2.6 0.8,-2.9 -28.9,-5.1 -58.2,-7.8 -87.5,-8 -1.9,0.1 -1.9,3.1 0,3.1 z"
   style="fill:#161616"
   id="path602" />
		</g>
	</g><g
   id="g612">
		<g
   id="g610">
			<path
   d="m 472.5,855.3 c 8.6,2 17.6,-0.1 26.4,0 9.8,0.1 19.6,1.2 29.4,2.4 1.9,0.2 1.9,-2.8 0,-3 -9.1,-1 -18.3,-2.1 -27.5,-2.3 -8.9,-0.2 -18.7,2.1 -27.5,0.1 -1.9,-0.6 -2.7,2.3 -0.8,2.8 z"
   style="fill:#161616"
   id="path608" />
		</g>
	</g><g
   id="g618">
		<g
   id="g616">
			<path
   d="m 512.1,861.8 c 15.3,0.5 30.7,1.2 46,2.1 1.9,0.1 1.9,-2.9 0,-3 -15.3,-0.9 -30.7,-1.6 -46,-2.1 -1.9,-0.1 -1.9,2.9 0,3 z"
   style="fill:#161616"
   id="path614" />
		</g>
	</g><g
   id="g624">
		<g
   id="g622">
			<path
   d="m 537.1,856.5 c 8.8,0.7 17.7,1.6 26.5,2.7 1.9,0.2 1.9,-2.8 0,-3 -8.8,-1.1 -17.6,-2 -26.5,-2.7 -2,-0.2 -1.9,2.8 0,3 z"
   style="fill:#161616"
   id="path620" />
		</g>
	</g><g
   id="g630">
		<g
   id="g628">
			<path
   d="m 579.8,858 c 7,1 13.8,-0.7 20.7,-1.7 8.2,-1.3 16.5,-2.3 24.8,-2.8 1.9,-0.1 1.9,-3.1 0,-3 -6.7,0.4 -13.4,1.2 -20,2.1 -8,1.1 -16.5,3.7 -24.6,2.6 -2,-0.4 -2.8,2.5 -0.9,2.8 z"
   style="fill:#161616"
   id="path626" />
		</g>
	</g><g
   id="g636">
		<g
   id="g634">
			<path
   d="m 592.4,863.2 c 6.2,0.7 11.9,-1.5 17.9,-2.7 7,-1.5 14.2,-2.1 21.3,-2.2 1.9,0 1.9,-3 0,-3 -6.2,0.1 -12.3,0.6 -18.4,1.6 -6.8,1.2 -13.8,4.2 -20.8,3.4 -1.9,-0.3 -1.9,2.7 0,2.9 z"
   style="fill:#161616"
   id="path632" />
		</g>
	</g><g
   id="g642">
		<g
   id="g640">
			<path
   d="m 632.9,847.4 c 0.1,5.1 0.2,10.1 0.4,15.2 0,1.9 3,1.9 3,0 -0.1,-5.1 -0.2,-10.1 -0.4,-15.2 0,-2 -3,-2 -3,0 z"
   style="fill:#161616"
   id="path638" />
		</g>
	</g><g
   id="g648">
		<g
   id="g646">
			<path
   d="m 418.6,869.9 c 0.1,6.7 -0.1,13.4 -0.6,20.1 -0.1,1.9 2.9,1.9 3,0 0.5,-6.7 0.7,-13.4 0.6,-20.1 -0.1,-2 -3.1,-2 -3,0 z"
   style="fill:#161616"
   id="path644" />
		</g>
	</g><g
   id="g654">
		<g
   id="g652">
			<path
   d="m 420.1,892.9 c 35,4.4 70.1,8.2 105.3,11.6 1.9,0.2 1.9,-2.8 0,-3 -35.2,-3.4 -70.3,-7.2 -105.3,-11.6 -2,-0.2 -1.9,2.8 0,3 z"
   style="fill:#161616"
   id="path650" />
		</g>
	</g><g
   id="g660">
		<g
   id="g658">
			<path
   d="m 524.8,883.1 c -0.3,6.4 -0.7,12.7 -1,19.1 -0.1,1.9 2.9,1.9 3,0 0.3,-6.4 0.7,-12.7 1,-19.1 0.1,-1.9 -2.9,-1.9 -3,0 z"
   style="fill:#161616"
   id="path656" />
		</g>
	</g><g
   id="g666">
		<g
   id="g664">
			<path
   d="m 526.3,883.7 c 38.6,-1.5 77.2,-4.4 115.6,-8.5 1.9,-0.2 1.9,-3.2 0,-3 -38.4,4.1 -77,6.9 -115.6,8.5 -1.9,0.1 -1.9,3.1 0,3 z"
   style="fill:#161616"
   id="path662" />
		</g>
	</g><g
   id="g672">
		<g
   id="g670">
			<path
   d="m 526.8,905.3 c 38.1,-4.5 76.3,-8.4 114.6,-11.9 1.9,-0.2 1.9,-3.2 0,-3 -38.2,3.5 -76.4,7.5 -114.6,11.9 -1.9,0.2 -1.9,3.2 0,3 z"
   style="fill:#161616"
   id="path668" />
		</g>
	</g><g
   id="g678">
		<g
   id="g676">
			<path
   d="m 640.6,874.8 c 0,5.4 0.1,10.8 0.1,16.2 0,1.9 3,1.9 3,0 0,-5.4 -0.1,-10.8 -0.1,-16.2 0,-2 -3,-2 -3,0 z"
   style="fill:#161616"
   id="path674" />
		</g>
	</g><g
   id="g684">
		<g
   id="g682">
			<path
   d="m 420.5,869.7 c 15,-2 30,-3.8 45.1,-5.2 1.9,-0.2 1.9,-3.2 0,-3 -15.3,1.4 -30.6,3.2 -45.9,5.3 -1.9,0.2 -1.1,3.1 0.8,2.9 z"
   style="fill:#161616"
   id="path680" />
		</g>
	</g><g
   id="g690">
		<g
   id="g688">
			<path
   d="m 422,871.7 c 34.6,2.5 69.1,6.1 103.5,10.8 1.9,0.3 2.7,-2.6 0.8,-2.9 -34.6,-4.7 -69.4,-8.4 -104.3,-10.9 -1.9,-0.1 -1.9,2.9 0,3 z"
   style="fill:#161616"
   id="path686" />
		</g>
	</g><g
   id="g696">
		<g
   id="g694">
			<path
   d="m 614.7,866.6 c 9,1.7 17.9,4 26.6,7 1.8,0.6 2.6,-2.3 0.8,-2.9 -8.7,-2.9 -17.5,-5.3 -26.6,-7 -1.9,-0.4 -2.7,2.5 -0.8,2.9 z"
   style="fill:#161616"
   id="path692" />
		</g>
	</g><g
   id="g702">
		<g
   id="g700">
			<path
   d="m 436.8,885.5 c 18,-0.9 35.2,5.4 53.1,5.7 1.9,0 1.9,-3 0,-3 -17.9,-0.3 -35.2,-6.6 -53.1,-5.7 -1.9,0.1 -1.9,3.1 0,3 z"
   style="fill:#161616"
   id="path698" />
		</g>
	</g><g
   id="g708">
		<g
   id="g706">
			<path
   d="m 471.2,881.6 c 13.2,4.9 27.5,1.9 41.1,4.9 1.9,0.4 2.7,-2.5 0.8,-2.9 -13.6,-3 -27.9,0 -41.1,-4.9 -1.8,-0.7 -2.6,2.2 -0.8,2.9 z"
   style="fill:#161616"
   id="path704" />
		</g>
	</g><g
   id="g714">
		<g
   id="g712">
			<path
   d="m 532.7,894.7 c 33.2,-7.5 67.7,-8.3 101.5,-10.3 1.9,-0.1 1.9,-3.1 0,-3 -34.2,2.1 -68.8,2.8 -102.3,10.4 -1.9,0.4 -1.1,3.3 0.8,2.9 z"
   style="fill:#161616"
   id="path710" />
		</g>
	</g><g
   id="g720">
		<g
   id="g718">
			<path
   d="m 588.2,892.2 c 11.8,0.3 23.6,-0.8 35.1,-3.3 1.9,-0.4 1.1,-3.3 -0.8,-2.9 -11.3,2.4 -22.8,3.5 -34.3,3.2 -1.9,-0.1 -1.9,2.9 0,3 z"
   style="fill:#161616"
   id="path716" />
		</g>
	</g><g
   id="g726">
		<g
   id="g724">
			<path
   d="m 439.8,894.5 c 0,7.5 0,14.9 0,22.4 0,1.9 3,1.9 3,0 0,-7.5 0,-14.9 0,-22.4 0,-1.9 -3,-1.9 -3,0 z"
   style="fill:#161616"
   id="path722" />
		</g>
	</g><g
   id="g732">
		<g
   id="g730">
			<path
   d="m 440.9,918.8 c 16.2,4.8 34.1,4.9 50.9,6.5 17.8,1.7 35.7,3.5 53.5,5.2 1.9,0.2 1.9,-2.8 0,-3 -17.2,-1.7 -34.4,-3.3 -51.6,-5 -17.1,-1.7 -35.5,-1.7 -52,-6.6 -1.8,-0.5 -2.6,2.4 -0.8,2.9 z"
   style="fill:#161616"
   id="path728" />
		</g>
	</g><g
   id="g738">
		<g
   id="g736">
			<path
   d="m 545.2,907.3 c 0.1,6.9 0.1,13.7 -0.1,20.6 0,1.9 3,1.9 3,0 0.2,-6.9 0.2,-13.7 0.1,-20.6 0,-2 -3,-2 -3,0 z"
   style="fill:#161616"
   id="path734" />
		</g>
	</g><g
   id="g744">
		<g
   id="g742">
			<path
   d="m 529.2,906.8 c 5.5,0.5 11,1.4 16.4,2.7 1.9,0.5 2.7,-2.4 0.8,-2.9 -5.7,-1.4 -11.4,-2.3 -17.2,-2.8 -2,-0.1 -2,2.9 0,3 z"
   style="fill:#161616"
   id="path740" />
		</g>
	</g><g
   id="g750">
		<g
   id="g748">
			<path
   d="m 547.1,908.9 c 28,-2.3 55.8,-6.5 83.3,-12.8 1.9,-0.4 1.1,-3.3 -0.8,-2.9 -27.2,6.2 -54.7,10.4 -82.5,12.7 -1.9,0.1 -1.9,3.1 0,3 z"
   style="fill:#161616"
   id="path746" />
		</g>
	</g><g
   id="g756">
		<g
   id="g754">
			<path
   d="m 547.1,930.9 c 31.8,-6.1 63.4,-13.6 94.5,-22.5 1.9,-0.5 1.1,-3.4 -0.8,-2.9 -31.2,8.9 -62.7,16.5 -94.5,22.5 -1.8,0.4 -1,3.3 0.8,2.9 z"
   style="fill:#161616"
   id="path752" />
		</g>
	</g><g
   id="g762">
		<g
   id="g760">
			<path
   d="m 640.1,892.3 c 0.1,5 0,10 -0.4,14.9 -0.2,1.9 2.8,1.9 3,0 0.4,-5 0.5,-10 0.4,-14.9 0,-1.9 -3,-1.9 -3,0 z"
   style="fill:#161616"
   id="path758" />
		</g>
	</g><g
   id="g768">
		<g
   id="g766">
			<path
   d="m 630.4,896.1 c 3.4,0 6.8,-0.5 10.1,-1.3 1.9,-0.5 1.1,-3.4 -0.8,-2.9 -3.1,0.8 -6.1,1.2 -9.3,1.2 -1.9,0 -1.9,3 0,3 z"
   style="fill:#161616"
   id="path764" />
		</g>
	</g><g
   id="g774">
		<g
   id="g772">
			<path
   d="m 457.7,912 c 24.2,2.9 48.3,5.7 72.5,8.2 1.9,0.2 1.9,-2.8 0,-3 -24.2,-2.5 -48.4,-5.2 -72.5,-8.2 -1.9,-0.2 -1.9,2.8 0,3 z"
   style="fill:#161616"
   id="path770" />
		</g>
	</g><g
   id="g780">
		<g
   id="g778">
			<path
   d="m 448.4,903.7 c 10.2,1 20.4,1.8 30.6,2.3 1.9,0.1 1.9,-2.9 0,-3 -10.2,-0.5 -20.4,-1.3 -30.6,-2.3 -1.9,-0.1 -1.9,2.9 0,3 z"
   style="fill:#161616"
   id="path776" />
		</g>
	</g><g
   id="g786">
		<g
   id="g784">
			<path
   d="m 491.8,909.2 c 12.9,0 25.7,0.9 38.5,2.9 1.9,0.3 2.7,-2.6 0.8,-2.9 -13,-2 -26.1,-3 -39.3,-3 -1.9,0 -2,3 0,3 z"
   style="fill:#161616"
   id="path782" />
		</g>
	</g><g
   id="g792">
		<g
   id="g790">
			<path
   d="m 552,918.9 c 14.4,-2.3 28.7,-4.9 43,-7.8 1.9,-0.4 1.1,-3.3 -0.8,-2.9 -14.3,2.9 -28.6,5.5 -43,7.8 -1.9,0.3 -1.1,3.2 0.8,2.9 z"
   style="fill:#161616"
   id="path788" />
		</g>
	</g><g
   id="g798">
		<g
   id="g796">
			<path
   d="m 579.2,920.1 c 17.3,-5.8 35.1,-10.1 53.1,-12.7 1.9,-0.3 1.1,-3.2 -0.8,-2.9 -18.1,2.6 -35.8,6.8 -53.1,12.7 -1.8,0.7 -1,3.6 0.8,2.9 z"
   style="fill:#161616"
   id="path794" />
		</g>
	</g><g
   id="g804">
		<g
   id="g802">
			<path
   d="m 623,904.7 c 4.9,-1.5 9.8,-2.4 14.9,-2.8 1.9,-0.1 1.9,-3.1 0,-3 -5.3,0.4 -10.6,1.3 -15.7,2.9 -1.8,0.6 -1,3.5 0.8,2.9 z"
   style="fill:#161616"
   id="path800" />
		</g>
	</g><g
   id="g810">
		<g
   id="g808">
			<path
   d="m 462.6,922.7 c -0.1,7.1 -0.3,14.2 -0.4,21.3 0,1.9 3,1.9 3,0 0.1,-7.1 0.3,-14.2 0.4,-21.3 0.1,-1.9 -2.9,-1.9 -3,0 z"
   style="fill:#161616"
   id="path806" />
		</g>
	</g><g
   id="g816">
		<g
   id="g814">
			<path
   d="m 464,946 c 38.8,5.2 77.7,10.4 116.5,15.5 1.9,0.3 1.9,-2.7 0,-3 -38.8,-5.2 -77.7,-10.4 -116.5,-15.5 -1.9,-0.3 -1.9,2.7 0,3 z"
   style="fill:#161616"
   id="path812" />
		</g>
	</g><g
   id="g822">
		<g
   id="g820">
			<path
   d="m 549.5,931.5 c 11.6,1.8 23.2,3.3 34.9,4.4 1.9,0.2 1.9,-2.8 0,-3 -11.4,-1.1 -22.8,-2.5 -34.1,-4.3 -1.9,-0.3 -2.7,2.6 -0.8,2.9 z"
   style="fill:#161616"
   id="path818" />
		</g>
	</g><g
   id="g828">
		<g
   id="g826">
			<path
   d="m 584.8,935.6 c 29.8,-2.8 57.1,-16.4 86.4,-21.4 1.9,-0.3 1.1,-3.2 -0.8,-2.9 -29.1,4.9 -56.1,18.4 -85.6,21.2 -1.9,0.3 -1.9,3.3 0,3.1 z"
   style="fill:#161616"
   id="path824" />
		</g>
	</g><g
   id="g834">
		<g
   id="g832">
			<path
   d="m 641.4,908.9 c 10.1,1.5 20.3,2.6 30.5,3.2 1.9,0.1 1.9,-2.9 0,-3 -10,-0.6 -19.9,-1.6 -29.7,-3.1 -1.9,-0.3 -2.7,2.6 -0.8,2.9 z"
   style="fill:#161616"
   id="path830" />
		</g>
	</g><g
   id="g840">
		<g
   id="g838">
			<path
   d="m 581.3,935.3 c -0.3,7.8 -0.5,15.7 -0.8,23.5 -0.1,1.9 2.9,1.9 3,0 0.3,-7.8 0.5,-15.7 0.8,-23.5 0.1,-2 -2.9,-2 -3,0 z"
   style="fill:#161616"
   id="path836" />
		</g>
	</g><g
   id="g846">
		<g
   id="g844">
			<path
   d="m 582.1,961.6 c 29.9,-7.2 59.4,-15.7 88.6,-25.4 1.8,-0.6 1,-3.5 -0.8,-2.9 -29.2,9.7 -58.7,18.1 -88.6,25.4 -1.9,0.4 -1.1,3.3 0.8,2.9 z"
   style="fill:#161616"
   id="path842" />
		</g>
	</g><g
   id="g852">
		<g
   id="g850">
			<path
   d="m 669.9,912.8 c 0.8,7.3 1,14.6 0.6,21.9 -0.1,1.9 2.9,1.9 3,0 0.3,-7.3 0.1,-14.6 -0.6,-21.9 -0.2,-1.9 -3.2,-1.9 -3,0 z"
   style="fill:#161616"
   id="path848" />
		</g>
	</g><g
   id="g858">
		<g
   id="g856">
			<path
   d="m 471.7,937.6 c -0.7,0.1 -1.3,0.2 -2,0.2 -1.9,0.2 -1.9,2.8 0,3 25.4,2.7 50.6,6.8 75.9,10.8 1.9,0.3 2.7,-2.6 0.8,-2.9 -25.5,-4.1 -51,-8.2 -76.7,-10.9 0,1 0,2 0,3 0.7,-0.1 1.3,-0.2 2,-0.2 1.9,-0.2 1.9,-3.2 0,-3 z"
   style="fill:#161616"
   id="path854" />
		</g>
	</g><g
   id="g864">
		<g
   id="g862">
			<path
   d="m 479.5,933.2 c 7.6,1.9 15.2,3.7 22.9,5.2 1.9,0.4 2.7,-2.5 0.8,-2.9 -7.7,-1.5 -15.3,-3.2 -22.9,-5.2 -1.8,-0.4 -2.6,2.5 -0.8,2.9 z"
   style="fill:#161616"
   id="path860" />
		</g>
	</g><g
   id="g870">
		<g
   id="g868">
			<path
   d="m 511.2,937.1 c 20.1,3.1 40.1,6.2 60.2,9.3 1.9,0.3 2.7,-2.6 0.8,-2.9 -20.1,-3.1 -40.1,-6.2 -60.2,-9.3 -1.9,-0.2 -2.7,2.7 -0.8,2.9 z"
   style="fill:#161616"
   id="path866" />
		</g>
	</g><g
   id="g876">
		<g
   id="g874">
			<path
   d="m 597.9,941.6 c 16.7,-0.4 31.8,-8.5 48.2,-11 1.9,-0.3 1.1,-3.2 -0.8,-2.9 -16.1,2.5 -30.9,10.5 -47.4,10.9 -1.9,0.1 -1.9,3.1 0,3 z"
   style="fill:#161616"
   id="path872" />
		</g>
	</g><g
   id="g882">
		<g
   id="g880">
			<path
   d="m 592.5,951.7 c 7.3,-1.8 14.6,-3.6 21.9,-5.5 1.9,-0.5 1.1,-3.4 -0.8,-2.9 -7.3,1.8 -14.6,3.6 -21.9,5.5 -1.9,0.4 -1.1,3.3 0.8,2.9 z"
   style="fill:#161616"
   id="path878" />
		</g>
	</g><g
   id="g888">
		<g
   id="g886">
			<path
   d="m 642.2,938.3 c 8.6,-2.3 17.2,-4.6 25.8,-7 1.9,-0.5 1.1,-3.4 -0.8,-2.9 -8.6,2.3 -17.2,4.6 -25.8,7 -1.9,0.5 -1.1,3.4 0.8,2.9 z"
   style="fill:#161616"
   id="path884" />
		</g>
	</g><g
   id="g894">
		<g
   id="g892">
			<path
   d="m 424.1,956.9 c 15.9,-1.7 31.6,-5 46.8,-10 1.8,-0.6 1,-3.5 -0.8,-2.9 -15,4.9 -30.3,8.2 -46,9.9 -1.9,0.2 -1.9,3.2 0,3 z"
   style="fill:#161616"
   id="path890" />
		</g>
	</g><g
   id="g900">
		<g
   id="g898">
			<path
   d="m 422.9,956.6 c 0.3,6.8 0.7,13.5 1,20.3 0.1,1.9 3.1,1.9 3,0 -0.3,-6.8 -0.7,-13.5 -1,-20.3 -0.1,-1.9 -3.1,-1.9 -3,0 z"
   style="fill:#161616"
   id="path896" />
		</g>
	</g><g
   id="g906">
		<g
   id="g904">
			<path
   d="m 425.6,978.9 c 46.2,6.1 92.3,12.2 138.5,18.2 1.9,0.3 1.9,-2.8 0,-3 -46.2,-6.1 -92.3,-12.2 -138.5,-18.2 -1.9,-0.3 -1.8,2.7 0,3 z"
   style="fill:#161616"
   id="path902" />
		</g>
	</g><g
   id="g912">
		<g
   id="g910">
			<path
   d="m 424.7,958.2 c 44.6,6.3 89.2,12 133.9,17.2 1.9,0.2 1.9,-2.8 0,-3 -44.4,-5.1 -88.8,-10.8 -133.1,-17.1 -1.8,-0.2 -2.7,2.7 -0.8,2.9 z"
   style="fill:#161616"
   id="path908" />
		</g>
	</g><g
   id="g918">
		<g
   id="g916">
			<path
   d="m 564.2,997.7 c 35.7,-10.3 71.2,-21.3 106.4,-33.1 1.8,-0.6 1,-3.5 -0.8,-2.9 -35.3,11.7 -70.7,22.8 -106.4,33.1 -1.9,0.5 -1.1,3.4 0.8,2.9 z"
   style="fill:#161616"
   id="path914" />
		</g>
	</g><g
   id="g924">
		<g
   id="g922">
			<path
   d="m 576.1,974.2 c 31.7,-7.1 62.9,-16.1 93.5,-27.1 1.8,-0.6 1,-3.5 -0.8,-2.9 -30.6,11 -61.8,20 -93.5,27.1 -1.9,0.4 -1.1,3.3 0.8,2.9 z"
   style="fill:#161616"
   id="path920" />
		</g>
	</g><g
   id="g930">
		<g
   id="g928">
			<path
   d="m 667.8,946.2 c 0.1,5.7 0.2,11.3 0.3,17 0,1.9 3,1.9 3,0 -0.1,-5.7 -0.2,-11.3 -0.3,-17 -0.1,-1.9 -3.1,-1.9 -3,0 z"
   style="fill:#161616"
   id="path926" />
		</g>
	</g><g
   id="g936">
		<g
   id="g934">
			<path
   d="m 645.1,944.5 c 7.7,0.8 15.3,1.6 23,2.3 1.9,0.2 1.9,-2.8 0,-3 -7.7,-0.8 -15.3,-1.6 -23,-2.3 -1.9,-0.2 -1.9,2.8 0,3 z"
   style="fill:#161616"
   id="path932" />
		</g>
	</g><g
   id="g942">
		<g
   id="g940">
			<path
   d="m 435.6,973.2 c 22.1,1.3 44,4 65.8,7.9 1.9,0.3 2.7,-2.6 0.8,-2.9 -22,-4 -44.2,-6.6 -66.6,-8 -2,-0.1 -1.9,2.9 0,3 z"
   style="fill:#161616"
   id="path938" />
		</g>
	</g><g
   id="g948">
		<g
   id="g946">
			<path
   d="m 493.7,972.9 c 17.7,2.6 35.4,5.6 53,8.9 1.9,0.4 2.7,-2.5 0.8,-2.9 -17.6,-3.3 -35.3,-6.3 -53,-8.9 -1.9,-0.3 -2.7,2.6 -0.8,2.9 z"
   style="fill:#161616"
   id="path944" />
		</g>
	</g><g
   id="g954">
		<g
   id="g952">
			<path
   d="m 562.7,980.1 c 0.2,4.4 0.5,8.8 0.7,13.1 0.1,1.9 3.1,1.9 3,0 -0.2,-4.4 -0.5,-8.8 -0.7,-13.1 -0.1,-1.9 -3.1,-1.9 -3,0 z"
   style="fill:#161616"
   id="path950" />
		</g>
	</g><g
   id="g960">
		<g
   id="g958">
			<path
   d="m 579.4,981 c 14.8,-3.3 29.5,-7 44.2,-11 1.9,-0.5 1.1,-3.4 -0.8,-2.9 -14.6,4 -29.4,7.7 -44.2,11 -1.9,0.4 -1.1,3.3 0.8,2.9 z"
   style="fill:#161616"
   id="path956" />
		</g>
	</g><g
   id="g966">
		<g
   id="g964">
			<path
   d="m 578.9,986.5 c 3.9,-0.4 7.7,-1 11.4,-2.1 1.9,-0.5 1.1,-3.4 -0.8,-2.9 -3.5,1 -7,1.6 -10.6,2 -1.9,0.2 -1.9,3.2 0,3 z"
   style="fill:#161616"
   id="path962" />
		</g>
	</g><g
   id="g972">
		<g
   id="g970">
			<path
   d="m 632.9,970.6 c 9.3,-3 18.6,-6 27.8,-8.9 1.8,-0.6 1,-3.5 -0.8,-2.9 -9.3,3 -18.6,6 -27.8,8.9 -1.8,0.6 -1,3.5 0.8,2.9 z"
   style="fill:#161616"
   id="path968" />
		</g>
	</g><g
   id="g978">
		<g
   id="g976">
			<path
   d="m 650.9,960.1 c 4,-1.2 8.1,-2.3 12.1,-3.5 1.9,-0.5 1.1,-3.4 -0.8,-2.9 -4,1.2 -8.1,2.3 -12.1,3.5 -1.8,0.5 -1.1,3.4 0.8,2.9 z"
   style="fill:#161616"
   id="path974" />
		</g>
	</g><g
   id="g984">
		<g
   id="g982">
			<path
   d="m 470.1,984.5 c 1,7.8 1.4,15.6 1.1,23.5 -0.1,1.9 2.9,1.9 3,0 0.3,-7.9 -0.1,-15.7 -1.1,-23.5 -0.2,-1.9 -3.2,-1.9 -3,0 z"
   style="fill:#161616"
   id="path980" />
		</g>
	</g><g
   id="g990">
		<g
   id="g988">
			<path
   d="m 473.8,1010.1 c 46.2,6 92.3,11.9 138.5,17.9 1.9,0.2 1.9,-2.8 0,-3 -46.2,-6 -92.3,-11.9 -138.5,-17.9 -1.9,-0.3 -1.9,2.7 0,3 z"
   style="fill:#161616"
   id="path986" />
		</g>
	</g><g
   id="g996">
		<g
   id="g994">
			<path
   d="m 610,1002.6 c 0.5,7.8 0.9,15.7 1.4,23.5 0.1,1.9 3.1,1.9 3,0 -0.5,-7.8 -0.9,-15.7 -1.4,-23.5 -0.1,-1.9 -3.1,-2 -3,0 z"
   style="fill:#161616"
   id="path992" />
		</g>
	</g><g
   id="g1002">
		<g
   id="g1000">
			<path
   d="m 611.9,1027.8 c 28.9,-14 57.9,-27.9 86.8,-41.9 1.7,-0.8 0.2,-3.4 -1.5,-2.6 -28.9,14 -57.9,27.9 -86.8,41.9 -1.8,0.9 -0.2,3.5 1.5,2.6 z"
   style="fill:#161616"
   id="path998" />
		</g>
	</g><g
   id="g1008">
		<g
   id="g1006">
			<path
   d="m 611.5,1002.2 c 29.6,-10.6 58.4,-23.2 86.3,-37.8 1.7,-0.9 0.2,-3.5 -1.5,-2.6 -27.6,14.4 -56.2,26.9 -85.6,37.5 -1.8,0.7 -1,3.6 0.8,2.9 z"
   style="fill:#161616"
   id="path1004" />
		</g>
	</g><g
   id="g1014">
		<g
   id="g1012">
			<path
   d="m 695.1,963.2 c 0.2,7.5 0.4,15 0.6,22.4 0.1,1.9 3.1,1.9 3,0 -0.2,-7.5 -0.4,-15 -0.6,-22.4 0,-2 -3,-2 -3,0 z"
   style="fill:#161616"
   id="path1010" />
		</g>
	</g><g
   id="g1020">
		<g
   id="g1018">
			<path
   d="m 670.8,961.6 c 8.3,0.1 16.6,0.7 24.8,1.9 1.9,0.3 2.7,-2.6 0.8,-2.9 -8.5,-1.2 -17,-1.9 -25.6,-2 -1.9,0 -1.9,3 0,3 z"
   style="fill:#161616"
   id="path1016" />
		</g>
	</g><g
   id="g1026">
		<g
   id="g1024">
			<path
   d="m 565.8,998 c 10.1,1.8 20.3,2.9 30.6,3.3 1.9,0.1 1.9,-2.9 0,-3 -10,-0.4 -19.9,-1.4 -29.8,-3.2 -1.9,-0.4 -2.7,2.5 -0.8,2.9 z"
   style="fill:#161616"
   id="path1022" />
		</g>
	</g><g
   id="g1032">
		<g
   id="g1030">
			<path
   d="m 620.3,1006.7 c 11,-2.7 21.5,-6.5 31.7,-11.4 1.7,-0.8 0.2,-3.4 -1.5,-2.6 -9.9,4.8 -20.2,8.4 -30.9,11.1 -2,0.4 -1.2,3.3 0.7,2.9 z"
   style="fill:#161616"
   id="path1028" />
		</g>
	</g><g
   id="g1038">
		<g
   id="g1036">
			<path
   d="m 621.5,1014.5 c 8.8,-3.3 17.3,-7.2 25.5,-11.7 1.7,-0.9 0.2,-3.5 -1.5,-2.6 -8,4.4 -16.2,8.2 -24.8,11.4 -1.8,0.7 -1.1,3.6 0.8,2.9 z"
   style="fill:#161616"
   id="path1034" />
		</g>
	</g><g
   id="g1044">
		<g
   id="g1042">
			<path
   d="m 657.4,989.5 c 11.1,-3.9 22.1,-8.4 32.9,-13.3 1.8,-0.8 0.2,-3.4 -1.5,-2.6 -10.5,4.8 -21.2,9.1 -32.2,12.9 -1.8,0.7 -1,3.6 0.8,3 z"
   style="fill:#161616"
   id="path1040" />
		</g>
	</g><g
   id="g1050">
		<g
   id="g1048">
			<path
   d="m 661.7,996.1 c 10.9,-4.7 21.3,-10.3 31.3,-16.8 1.6,-1.1 0.1,-3.6 -1.5,-2.6 -9.9,6.5 -20.4,12.1 -31.3,16.8 -1.8,0.8 -0.3,3.3 1.5,2.6 z"
   style="fill:#161616"
   id="path1046" />
		</g>
	</g>
<g
   id="chair">
	<g
   id="g1057">
		<g
   id="g1055">
			<path
   d="M1030.8,719.9c20.5,75.6,41,151.2,61.4,226.8c5.8,21.6,11.7,43.1,17.5,64.7c1,3.7,6.8,2.1,5.8-1.6     c-20.5-75.6-41-151.2-61.4-226.8c-5.8-21.6-11.7-43.1-17.5-64.7C1035.6,714.6,1029.8,716.2,1030.8,719.9L1030.8,719.9z"
   style="fill:#161616;"
   id="path1053" />
		</g>
	</g>
	<g
   id="g1063">
		<g
   id="g1061">
			<path
   d="M971.7,723.1c0.9,83.2,1.8,166.5,2.6,249.7c0.2,23.5,0.5,47.1,0.7,70.6c0,3.9,6,3.9,6,0     c-0.9-83.2-1.8-166.5-2.6-249.7c-0.2-23.5-0.5-47.1-0.7-70.6C977.7,719.3,971.7,719.3,971.7,723.1L971.7,723.1z"
   style="fill:#161616;"
   id="path1059" />
		</g>
	</g>
	<g
   id="g1069">
		<g
   id="g1067">
			<path
   d="M888,712.4c-17.8,81.3-35,162.7-51.6,244.3c-4.7,23.1-9.3,46.2-13.9,69.2c-0.8,3.8,5,5.4,5.8,1.6     c16.3-81.6,33.1-163.1,50.6-244.5c4.9-23,9.9-46,15-69C894.6,710.2,888.8,708.6,888,712.4L888,712.4z"
   style="fill:#161616;"
   id="path1065" />
		</g>
	</g>
	<g
   id="g1075">
		<g
   id="g1073">
			<path
   d="M846.4,926.6c43.3,0.4,86.5,1.4,129.7,3.1c3.9,0.2,3.9-5.8,0-6c-43.2-1.7-86.5-2.7-129.7-3.1     C842.6,920.6,842.6,926.6,846.4,926.6L846.4,926.6z"
   style="fill:#161616;"
   id="path1071" />
		</g>
	</g>
	<g
   id="g1081">
		<g
   id="g1079">
			<path
   d="M978.3,928.4c4,0.6,7.1-1,10.8-2.5c4.5-1.8,9-3.7,13.5-5.6c8-3.4,16-6.8,24-10.3     c17.3-7.6,34.4-15.5,51.3-23.6c3.5-1.7,0.4-6.8-3-5.2c-15.5,7.5-31.1,14.7-46.9,21.7c-7.9,3.5-15.8,6.9-23.8,10.3     c-4.1,1.7-8.1,3.4-12.2,5.1c-3.2,1.3-8.7,4.8-12.2,4.3C976.1,922.1,974.4,927.9,978.3,928.4L978.3,928.4z"
   style="fill:#161616;"
   id="path1077" />
		</g>
	</g>
	<g
   id="g1087">
		<g
   id="g1085">
			<path
   d="M949.6,724.8c-8,71-16,142-24,213.1c-2.3,20.1-4.5,40.3-6.8,60.4c-0.4,3.8,5.6,3.8,6,0c8-71,16-142,24-213.1     c2.3-20.1,4.5-40.3,6.8-60.4C956.1,721,950.1,721,949.6,724.8L949.6,724.8z"
   style="fill:#161616;"
   id="path1083" />
		</g>
	</g>
	<g
   id="g1093">
		<g
   id="g1091">
			<path
   d="M933.1,894.1c47.5-1.1,94.8-4.1,142.2-7.2c3.8-0.2,3.9-6.3,0-6c-47.4,3.1-94.7,6-142.2,7.2     C929.2,888.2,929.2,894.2,933.1,894.1L933.1,894.1z"
   style="fill:#161616;"
   id="path1089" />
		</g>
	</g>
	<g
   id="g1099">
		<g
   id="g1097">
			<path
   d="M847.5,926.3c29.9-8.7,58.7-20.5,87.6-32.1c3.5-1.4,2-7.2-1.6-5.8c-28.9,11.6-57.7,23.4-87.6,32.1     C842.2,921.5,843.8,927.3,847.5,926.3L847.5,926.3z"
   style="fill:#161616;"
   id="path1095" />
		</g>
	</g>
	<path
   d="M995.9,643.5c25.7,3.4,47,10.5,63.3,17.5c0.3,18.1,0.5,36.1,0.8,54.2c-18.8,8.4-47.6,18.5-83.9,21.4   c-46.5,3.7-83.8-6.2-105.3-13.7c-0.9-20.3-1.7-40.6-2.6-60.9C891.8,651.8,938.3,635.9,995.9,643.5z"
   style="fill:#FFFFFF;stroke:#161616;stroke-width:3;stroke-miterlimit:10;"
   id="path1101" />
	<g
   id="g1107">
		<g
   id="g1105">
			<path
   d="M876.4,666.7c7.8,8.7,19,11.8,30.3,13.2c14.6,1.9,29.6,2.5,44.4,3c30.4,1,61.2-0.7,90.1-11.1     c1.8-0.6,1-3.5-0.8-2.9c-27.5,9.9-56.7,11.9-85.6,11.1c-13.8-0.4-27.6-1.2-41.4-2.4c-12.5-1.1-26-3.2-34.8-13     C877.2,663.1,875.1,665.3,876.4,666.7L876.4,666.7z"
   style="fill:#161616;"
   id="path1103" />
		</g>
	</g>
</g>
<g
   id="hand_right">
		<path
   d="m 861.6,320.9 c -6.8,0.7 -11,5.9 -19.3,16.7 -22.4,29 -38.6,54.5 -40,56.7 -2.9,4.5 -12.8,18.1 -32.7,45.3 -36.7,50.3 -45.2,59.6 -42,72.7 3.7,15.3 20.4,28.9 32.7,26.7 7.2,-1.3 11.5,-7.8 18,-18.7 8.4,-14.2 19.2,-33.4 30.7,-57.3 30,-20.4 49.7,-41.8 62,-57.3 25,-31.5 24.2,-45.1 23.3,-50.7 -2.8,-17.8 -19,-35.4 -32.7,-34.1 z"
   style="fill:#ffffff;stroke:#161616;stroke-width:3;stroke-miterlimit:10"
   id="path1110" />
		<path
   d="m 882.6,333.5 c -4.9,0.6 -6,14.8 -7.9,23.6 -6.6,30.4 -30.5,33.5 -70.1,78.6 -16.6,19 -28.4,36.6 -39.3,53.1 -10.6,16 -18.9,30 -24.9,40.6 1,1.9 3.6,5.9 8.5,7.9 6.6,2.6 13,-0.3 15.1,-1.3 7.9,-3.7 9.3,-9.4 22.3,-31.4 8.3,-14.1 8.2,-12.6 11.8,-19.7 6.6,-13.1 6.1,-17 11.8,-23.6 5,-5.9 8.6,-5.6 18.3,-13.1 5,-3.8 13.8,-10.6 23.6,-20.3 2.9,-2.8 14.6,-14.6 26.9,-32.8 9.7,-14.3 12,-21.1 13.1,-24.9 4,-13.8 1.5,-21.9 0.7,-24.2 -1.8,-5.1 -6.1,-13 -9.9,-12.5 z"
   style="opacity:0.09;fill:#3d3d3d"
   id="path1112" />
		<path
   d="m 809.9,459.9 c -1.3,-0.8 -6.5,7.5 -18.3,21 -29.5,33.5 -51.7,43.9 -48.5,52.4 1.9,4.9 11.1,6.6 17.7,5.2 9.4,-2 14.4,-11.2 24.2,-29.5 24,-44.9 25.7,-48.6 24.9,-49.1 z"
   style="opacity:0.18;fill:#3d3d3d"
   id="path1114" />
	</g><g
   id="leg_right">
		<path
   d="m 723.4,902.6 c 2.8,31.2 5.5,62.4 8.3,93.6 -43.5,21.8 -64.3,35.6 -62.2,41.5 2.5,7.2 39.7,2.3 111.4,-14.8 -1.4,-43.4 -2.8,-86.9 -4.1,-130.3 -17.8,3.3 -35.6,6.6 -53.4,10 z"
   style="fill:#161616;stroke:#161616;stroke-width:3;stroke-miterlimit:10"
   id="path1117" />
		<path
   d="m 866.1,545.6 c -15.3,11.3 -36.8,27.2 -62.4,46.6 -80.6,61.1 -90.7,70.4 -99.6,87.5 -8.8,16.8 -11.8,45.1 -17.9,101.8 -4.2,38.9 -4.5,68.9 -4.3,86 0.2,19.1 1.2,35.4 2.2,48 4.7,4.2 22.5,18.9 49.5,19.4 31.9,0.5 52.3,-19.3 55.9,-22.9 -3.1,-18.4 -5.6,-38.3 -7.2,-59.5 -2.9,-38.8 -2,-74 0.7,-104.7 21.4,-16.9 51.4,-41.3 86,-72.4 73.9,-66.4 78.8,-82.1 76,-93.2 -6.4,-24.8 -53.8,-33.5 -78.9,-36.6 z"
   style="fill:#ffffff;stroke:#161616;stroke-width:3;stroke-miterlimit:10"
   id="path1119" />
		<path
   d="m 899.4,553.2 c -10.7,3.6 -5,27.8 -12.2,50.3 -8.2,25.7 -27.1,32.6 -73.9,68.2 -15.2,11.5 -36.9,29.2 -61.7,53.6 0.4,44.9 -1,92.6 -4.9,142.9 -1.8,22.8 -4,45.1 -6.5,66.6 6.6,-0.9 15,-2.8 24.4,-6.5 10.5,-4.2 18.7,-9.5 24.4,-13.8 -3.2,-19 -5.7,-39.6 -7.3,-61.7 -2.8,-38.8 -1.8,-74 0.8,-104.8 17.8,-15 32.3,-26.8 42.2,-34.9 13.4,-10.9 20.2,-16.2 31.7,-26 6.6,-5.6 13.3,-11.5 30,-26.8 43,-39.2 54.8,-51.6 57.7,-69 1.4,-8.9 -0.4,-13.7 -1.6,-16.2 -3.7,-7.3 -11.4,-10.6 -26.8,-17.1 -9.2,-3.7 -13.8,-5.7 -16.3,-4.8 z"
   style="opacity:0.12;fill:#3d3d3d"
   id="path1121" />
		<path
   d="m 781.6,747.3 c -4.6,19.9 -8.7,41 -12.2,63.3 -6.7,42.8 -9.7,82.6 -10.6,118.6 10.3,-5.1 20.6,-10.3 30.9,-15.4 -3.7,-24.6 -6.6,-51.8 -8.1,-81.2 -1.5,-30.9 -1.3,-59.4 0,-85.3 z"
   style="opacity:0.15;fill:#3d3d3d"
   id="path1123" />
		<path
   d="m 935.9,569.4 c -7.1,-0.6 -13.5,15.7 -17.9,25.2 -9.5,20.8 -35.3,48 -86.9,102.3 -12.4,13.1 -29.1,30.1 -49.5,49.5 5.4,-3.9 12.7,-9.1 21.1,-15.4 19,-14.3 30.3,-23.9 66.6,-55.2 0,0 13.1,-11.3 66.6,-67.4 2.8,-2.9 9.6,-10.3 9.7,-20.3 0.2,-8.4 -4.4,-18.2 -9.7,-18.7 z"
   style="opacity:0.09;fill:#3d3d3d"
   id="path1125" />
	</g><g
   id="torso"
   style="fill:#13cff2;fill-opacity:1">
		<path
   d="m 897.8,310.6 c -0.4,0 -2,0.1 -4.2,0.3 -4.5,0.4 -11.6,1.2 -20,3.4 -6.8,1.7 -12.2,3.7 -15.4,5 -5.7,11.7 -12.9,29.8 -15.6,52.7 -3.9,32.6 3.9,53.6 9.2,86.1 3.6,22.3 6.6,54.6 2.5,95.5 8.6,8 31,26.7 65.2,31.5 48.3,6.9 83.8,-19.1 91.1,-24.7 2.2,-13.8 4.3,-27.8 6.4,-42 0,0 3.1,-21.4 6.1,-44.9 7.1,-54.7 14.4,-128.4 15.3,-137.6 -25.7,-26 -47,-32 -61.8,-32.5 -19.2,-0.7 -63.2,6.4 -78.8,7.2 z"
   style="fill:#13cff2;fill-opacity:1"
   id="path1128" />
		<path
   d="m 935.6,332.3 c 5.3,5.5 12.4,13.9 18.8,25.3 30.8,54.6 11.7,118.3 3.2,146.6 -5.9,19.8 -17.1,48.9 -39.3,80.2 8.5,1.5 19.1,2.3 31.2,1.1 28.9,-2.9 49.8,-16.3 60.3,-24.2 7.2,-47.7 13.9,-96.6 19.9,-146.6 3.1,-25.8 5.9,-51.2 8.6,-76.5 -4.5,-5.6 -11.9,-13.7 -23,-20.6 -8.8,-5.5 -21.5,-13.5 -37.3,-12.7 -24.8,1.4 -40.1,24 -42.4,27.4 z"
   style="opacity:0.17;fill:#13cff2;fill-opacity:1"
   id="path1130" />
	</g><g
   id="book">
		<path
   d="m 708.7,388.7 c 1,0 2.1,0 3.1,0 0.3,-1.1 0.6,-2.3 0.9,-3.4 1.2,2.5 3.2,6.6 5.7,11.7 11,22.3 13.2,26 15.2,32.7 1.6,5.5 3.5,13.4 4.1,23.5 1.9,-1.3 4.7,-3.1 8.3,-5.1 19.4,-10.6 35.6,-10.7 50.2,-13.3 10.9,-2 26.2,-6.4 44.1,-17.1 -1.1,1.5 -2.2,3.1 -3.3,4.6 1.7,0.6 3.5,1.3 5.2,1.9 1,1.3 2.3,3.4 3.4,6.1 5.8,14.3 -2.8,30 -11.1,44.4 -33.9,59.6 -37.4,62.7 -43.5,65.7 -2.5,1.3 -27.7,13.6 -45.6,2.2 -3.7,-2.3 -10.4,-7.8 -19,-46.7 -5.9,-26.5 -6.6,-41.3 -12.2,-76.1 -2.2,-13.2 -4.2,-24 -5.5,-31.1 z"
   style="fill:#ffffff;stroke:#191919;stroke-width:2;stroke-miterlimit:10"
   id="path1133" />
		<g
   id="g1139">
			<g
   id="g1137">
				<path
   d="m 714.4,394.2 c 8.5,18.2 16.9,36.7 19.5,56.7 0.1,0.5 0.8,0.5 0.8,0 -2.6,-20.2 -11,-38.8 -19.6,-57.1 -0.3,-0.4 -0.9,-0.1 -0.7,0.4 z"
   style="fill:#191919"
   id="path1135" />
			</g>
		</g>
		<g
   id="g1145">
			<g
   id="g1143">
				<path
   d="m 711.1,391 c 5,10.6 9.1,21.5 12.5,32.7 0.1,0.5 0.9,0.3 0.7,-0.2 -3.4,-11.3 -7.6,-22.2 -12.6,-32.9 -0.1,-0.4 -0.8,-0.1 -0.6,0.4 z"
   style="fill:#191919"
   id="path1141" />
			</g>
		</g>
		<g
   id="g1151">
			<g
   id="g1149">
				<path
   d="m 724.8,423.1 c 3.3,9 5.5,18.3 6.8,27.8 0.1,0.5 0.8,0.5 0.8,0 -1.3,-9.6 -3.5,-18.9 -6.8,-28 -0.2,-0.5 -0.9,-0.3 -0.8,0.2 z"
   style="fill:#191919"
   id="path1147" />
			</g>
		</g>
		<g
   id="g1157">
			<g
   id="g1155">
				<path
   d="m 716.2,408.8 c 4.6,11.3 8.6,22.9 11.9,34.7 0.1,0.5 0.9,0.3 0.7,-0.2 -3.3,-11.8 -7.3,-23.4 -11.9,-34.7 -0.2,-0.4 -0.9,-0.2 -0.7,0.2 z"
   style="fill:#191919"
   id="path1153" />
			</g>
		</g>
		<g
   id="g1163">
			<g
   id="g1161">
				<path
   d="m 739.4,455.7 c 12.5,-8.3 26.5,-13.7 41.4,-15.8 0.5,-0.1 0.3,-0.8 -0.2,-0.7 -15,2.1 -29,7.5 -41.6,15.8 -0.3,0.3 0,1 0.4,0.7 z"
   style="fill:#191919"
   id="path1159" />
			</g>
		</g>
		<g
   id="g1169">
			<g
   id="g1167">
				<path
   d="m 745.7,454.4 c 13,-7.9 27.7,-10.9 42.3,-14.2 15.5,-3.5 30.6,-8.2 45.3,-14.2 0.4,-0.2 0.2,-0.9 -0.2,-0.7 -15.2,6.3 -30.9,11 -47,14.6 -14.1,3.2 -28.3,6.3 -40.8,13.9 -0.4,0.2 0,0.9 0.4,0.6 z"
   style="fill:#191919"
   id="path1165" />
			</g>
		</g>
		<g
   id="g1175">
			<g
   id="g1173">
				<path
   d="m 743.3,458 c 15.4,-7.3 31.1,-11.8 47.6,-15.8 16.2,-4 31.9,-10.2 47.7,-15.6 0.5,-0.2 0.3,-0.9 -0.2,-0.7 -16.3,5.6 -32.6,12.1 -49.4,16 -15.9,3.8 -31.2,8.5 -46.1,15.5 -0.5,0.1 -0.1,0.8 0.4,0.6 z"
   style="fill:#191919"
   id="path1171" />
			</g>
		</g>
		<path
   d="m 708.1,388.5 c 7.3,23.1 14.7,46.1 22,69.2 3.6,1.2 7.2,2.4 10.8,3.6 34.2,-11.3 68.3,-22.5 102.5,-33.8 1.2,1 2.4,2 3.6,3.1 3.9,47.5 7.9,94.9 11.8,142.4 -1.4,0.9 -2.7,1.7 -4.1,2.6 -34.7,5.3 -69.3,10.6 -104,15.9 -5,-1.2 -9.9,-2.4 -14.9,-3.6 -4.4,-19.5 -8.9,-38.9 -13.3,-58.4 -6.5,-46.1 -13,-92.2 -19.5,-138.3 1.7,-1 3.4,-1.9 5.1,-2.7 z"
   style="fill:#ffffff;stroke:#191919;stroke-width:2;stroke-miterlimit:10"
   id="path1177" />
		<g
   id="g1183">
			<g
   id="g1181">
				<path
   d="m 728.5,458.3 c 1.6,43.3 4.7,86.7 7.1,130 0.1,1.4 2.3,1.4 2.3,0 -2.4,-43.3 -5.5,-86.6 -7.1,-130 -0.1,-1.5 -2.4,-1.5 -2.3,0 z"
   style="fill:#191919"
   id="path1179" />
			</g>
		</g>
		<g
   id="g1189">
			<g
   id="g1187">
				<path
   d="m 738.9,461 c 1.4,12.3 2,24.6 2,37 0,1.4 2.2,1.4 2.3,0 0,-12.4 -0.6,-24.7 -2,-37 -0.3,-1.4 -2.5,-1.4 -2.3,0 z"
   style="fill:#191919"
   id="path1185" />
			</g>
		</g>
		<path
   d="m 801.1,442.5 c 0.4,10 0.1,32.4 -12.7,56.5 -13.6,25.6 -33.5,38.8 -42.1,43.8 -0.4,-8.2 -0.9,-16.4 -1.3,-24.5 -3.4,5.7 -6.7,11.4 -10.1,17.1 0.7,17.8 1.5,35.6 2.2,53.5 4.8,1 9.6,2 14.5,3.1 33.7,-5.4 67.5,-10.8 101.2,-16.2 1.8,-0.7 3.5,-1.5 5.3,-2.2 -3.8,-48.1 -7.6,-96.1 -11.4,-144.2 -15.2,4.3 -30.4,8.7 -45.6,13.1 z"
   style="opacity:0.16;fill:#6c6d6d"
   id="path1191" />
		<path
   d="m 739.4,462 c -0.7,0 -1.5,18.5 -1,38.6 0.6,28.6 3.3,41.1 2.5,68.4 -0.3,8.9 -0.8,16.2 -1.2,20.9 3.7,0.5 7.5,1 11.2,1.5 -0.7,-4.9 -1.7,-12 -2.7,-20.5 C 740.3,507.3 740.5,462 739.4,462 Z"
   style="opacity:0.1;fill:#6c6d6d"
   id="path1193" />
		<g
   id="g1199">
			<g
   id="g1197">
				<path
   d="m 766.3,467.6 c 23.8,-5.6 47.2,-12.6 70.2,-21 1.8,-0.7 1,-3.6 -0.8,-2.9 -23,8.3 -46.4,15.3 -70.2,21 -1.8,0.5 -1,3.4 0.8,2.9 z"
   style="fill:#191919"
   id="path1195" />
			</g>
		</g>
	</g><g
   id="fingers_right">
		<path
   d="m 712.3,470.6 c -1.1,0.4 -1,2.4 -1.9,11.7 -0.6,6.3 -0.8,6.4 -0.6,7.9 0.5,4.2 2,5 2.5,9.8 0.3,3.1 -0.3,3.5 0.2,6.1 0.6,3.2 2,5.6 3.1,7.1 0,1 0.2,2.7 1,4.4 1.6,3.1 5.3,5.8 7.3,4.8 1.1,-0.5 1.4,-2.6 1.9,-6.7 0.5,-3.8 0.2,-4 0.6,-8.4 0.4,-3.6 0.7,-4.3 0.4,-6.1 -0.3,-2.2 -1.1,-2.9 -1.9,-5.2 -1.1,-3.2 -0.6,-4.4 -1.3,-7.7 -1,-5.5 -3.6,-9.4 -5,-11.5 -1.4,-2.2 -4.4,-6.8 -6.3,-6.2 z"
   style="fill:#ffffff"
   id="path1202" />
		<g
   id="g1208">
			<g
   id="g1206">
				<path
   d="m 711.6,469.7 c -5.4,11.7 0,24.8 12.2,29.1 1.4,0.5 2,-1.7 0.6,-2.2 -10.8,-3.8 -15.6,-15.4 -10.8,-25.8 0.5,-1.3 -1.4,-2.4 -2,-1.1 z"
   style="fill:#191919"
   id="path1204" />
			</g>
		</g>
		<g
   id="g1214">
			<g
   id="g1212">
				<path
   d="m 712,471.5 c 7.2,6.7 11.4,15.5 12,25.3 0.1,1.4 2.3,1.4 2.3,0 -0.6,-10.4 -5,-19.8 -12.7,-26.9 -1.1,-1 -2.7,0.6 -1.6,1.6 z"
   style="fill:#191919"
   id="path1210" />
			</g>
		</g>
		<g
   id="g1220">
			<g
   id="g1218">
				<path
   d="m 709,483.7 c -2.6,11.7 4.3,22.8 16.2,25.3 1.4,0.3 2,-1.9 0.6,-2.2 -10.6,-2.2 -17,-11.9 -14.6,-22.6 0.3,-1.4 -1.9,-2 -2.2,-0.5 z"
   style="fill:#191919"
   id="path1216" />
			</g>
		</g>
		<g
   id="g1226">
			<g
   id="g1224">
				<path
   d="m 711.2,498.4 c -2.1,8.9 3.3,17.4 12.3,19.1 1.4,0.3 2,-1.9 0.6,-2.2 -7.8,-1.4 -12.6,-8.5 -10.8,-16.3 0.4,-1.4 -1.7,-2 -2.1,-0.6 z"
   style="fill:#191919"
   id="path1222" />
			</g>
		</g>
		<g
   id="g1232">
			<g
   id="g1230">
				<path
   d="m 714.1,512.7 c -0.4,4.3 2.1,8.6 6.1,10.2 1.7,0.7 3.9,0.8 5.2,-0.7 1.4,-1.6 0.8,-4 0,-5.7 -0.5,-1.3 -2.7,-0.7 -2.2,0.6 0.5,1.1 1.5,3.3 -0.1,4 -1.2,0.5 -3.1,-0.7 -4,-1.4 -2.1,-1.7 -3.1,-4.3 -2.8,-7 0.2,-1.5 -2.1,-1.4 -2.2,0 z"
   style="fill:#191919"
   id="path1228" />
			</g>
		</g>
		<g
   id="g1238">
			<g
   id="g1236">
				<path
   d="m 724.4,517.4 c 2.2,0 3.1,-2.2 3.4,-4.1 0.4,-2.3 0,-4.7 -1.2,-6.7 -0.7,-1.3 -2.7,-0.1 -1.9,1.1 0.7,1.2 1.1,2.5 1.1,3.8 0,0.7 -0.2,3.6 -1.4,3.6 -1.4,0 -1.4,2.3 0,2.3 z"
   style="fill:#191919"
   id="path1234" />
			</g>
		</g>
		<g
   id="g1244">
			<g
   id="g1242">
				<path
   d="m 727.2,508.2 c 1.4,-1.3 1.4,-3.8 1.1,-5.6 -0.3,-2.3 -1.3,-4.3 -2.9,-6 -1,-1.1 -2.6,0.5 -1.6,1.6 1,1.1 1.8,2.4 2.1,4 0.2,1.1 0.5,3.5 -0.4,4.4 -1,1 0.6,2.6 1.7,1.6 z"
   style="fill:#191919"
   id="path1240" />
			</g>
		</g>
	</g><g
   id="leg_left">
		<path
   d="m 831.3,830.3 c 3.7,22.4 7.3,44.9 11,67.3 -41.1,29.2 -60.2,46.4 -57.3,51.8 3.4,6.3 37,-3.8 100.8,-30.3 -2.3,-36.6 -4.6,-73.1 -7,-109.7 -15.8,7 -31.7,13.9 -47.5,20.9 z"
   style="fill:#161616;stroke:#161616;stroke-width:3;stroke-miterlimit:10"
   id="path1247" />
		<path
   d="m 1011.1,559.7 c 1.6,13.3 2.2,34.6 -5.7,58.6 -3.4,10.2 -9.1,26.9 -24.1,42.6 -9.6,10 -26.4,27.6 -50.9,26.9 -19.8,-0.6 -33.8,-12.7 -38.9,-17.6 -1.5,18.8 -2.3,39.2 -1.9,61.1 0.6,33.7 3.9,64.2 8.3,90.8 -12,22.2 -35,35.9 -59.3,35.2 -31.2,-0.9 -48.9,-25 -50.9,-27.8 -7.2,-67.7 -7.8,-124 -6.5,-165.8 1.1,-34.1 3.5,-62.3 24.1,-85.2 20.1,-22.4 46.7,-27.5 53.7,-28.7 51.2,-9.1 89.9,27 94.5,31.5 7.4,0.5 21.9,0.3 37.5,-7.2 9.2,-4.5 15.8,-10.1 20.1,-14.4 z"
   style="fill:#ffffff;stroke:#161616;stroke-width:3;stroke-miterlimit:10"
   id="path1249" />
		<g
   id="g1255">
			<g
   id="g1253">
				<path
   d="m 893.1,641.1 c -2.8,12.5 -4.3,25.2 -4.6,38 0,1.9 3,1.9 3,0 0.3,-12.6 1.7,-25 4.4,-37.2 0.5,-1.9 -2.4,-2.7 -2.8,-0.8 z"
   style="fill:#161616"
   id="path1251" />
			</g>
		</g>
		<g
   id="g1261">
			<g
   id="g1259">
				<path
   d="m 893.8,657.1 c 1.4,-3.1 2.7,-6.2 4.1,-9.4 0.8,-1.8 -1.8,-3.3 -2.6,-1.5 -1.4,3.1 -2.7,6.2 -4.1,9.4 -0.8,1.7 1.8,3.2 2.6,1.5 z"
   style="fill:#161616"
   id="path1257" />
			</g>
		</g>
		<g
   id="g1267">
			<g
   id="g1265">
				<path
   d="m 949.8,579.8 c 6.7,6.4 11.3,15.6 16.3,23.4 1,1.6 3.6,0.1 2.6,-1.5 -5.2,-8 -9.9,-17.3 -16.8,-24 -1.4,-1.4 -3.5,0.7 -2.1,2.1 z"
   style="fill:#161616"
   id="path1263" />
			</g>
		</g>
		<path
   d="m 979.2,577.7 c 0.2,4.8 0.2,11.4 -0.6,19.3 -1.9,18.5 -3.5,34.2 -13.7,41 -11.9,8 -30,0.4 -36.7,-2.5 -23.2,-9.8 -25.9,-26.2 -39.2,-27.4 -15.7,-1.4 -32,19.6 -39.8,36.1 -19.3,40.5 2.6,72.2 5,144.9 0.9,29.2 -1.7,52.8 -3.7,67.2 5.2,-0.6 12,-2.1 19.3,-5.6 16.9,-8.1 25.4,-22 28.6,-28 -0.7,-5.5 -1.7,-14 -3.1,-24.3 -3.4,-25.1 -4.5,-27.8 -5.6,-38.6 -0.5,-4.9 -0.9,-10.4 0,-46 0.3,-10.5 0.6,-25 1.2,-42.3 2.7,1.9 6.4,4.3 11.2,6.8 3.3,1.7 14.9,7.8 25.5,9.3 16.9,2.4 31.3,-7.1 38.6,-11.8 19.9,-13.1 28.5,-31.5 34.2,-44.2 12.7,-28.1 13.1,-54.5 11.8,-70.9 -3.5,3.8 -10,9.9 -19.9,13.7 -5,2 -9.5,2.9 -13.1,3.3 z"
   style="opacity:0.09;fill:#3d3d3d"
   id="path1269" />
		<path
   d="m 1008.4,581.4 c -2.3,-0.8 -9.2,12.7 -10,14.3 -6.5,12.9 -6.3,21.2 -8.7,29.2 -4.7,16 -19.9,32.1 -35.4,36.1 -26.1,6.7 -48,-22.2 -59.7,-13.1 -5.5,4.3 -5.2,14.1 -3.1,19.9 6,16.7 33.2,17.9 36.7,18 23.7,0.8 41.1,-13.9 46.6,-18.7 35.2,-30.4 37.8,-84.2 33.6,-85.7 z"
   style="opacity:0.11;fill:#3d3d3d"
   id="path1271" />
		<path
   d="m 893.3,646.7 c -1.7,-0.3 -7,16.5 -10.6,33 -7.3,33.6 -6.4,59.5 -6.2,72.1 0.3,23.4 -1.7,56.9 -11.8,99.5 4.1,-1 10.4,-3.2 16.8,-8.1 9.8,-7.5 14,-16.9 15.5,-21.1 -2,-21.9 -3.4,-40.5 -4.4,-54.7 -2.4,-34.3 -3.6,-51.8 -3.1,-67.8 1.1,-31.9 5.7,-52.5 3.8,-52.9 z"
   style="opacity:0.11;fill:#3d3d3d"
   id="path1273" />
	</g><g
   id="hand_left">
		<path
   d="m 848.3,483.1 c 0.9,-2.6 6.9,-2.6 8.5,-2.6 7,0 12.6,4.6 14.4,8.5 0.5,1.1 0.6,2 0.6,2.5 0.2,2.7 -1.4,5.4 -2.8,6.3 -5.2,3.3 -22.5,-9.6 -20.7,-14.7 z"
   style="fill:#ffffff;stroke:#161616;stroke-width:3;stroke-miterlimit:10"
   id="path1276" />
		<path
   d="m 1030.7,329.1 c 15.9,9.8 14,37.5 11.6,72.2 -2.7,38.3 -11.9,65.2 -15.4,75 -6.2,16.9 -13.1,30.6 -18.8,40.4 -20.6,8.8 -53.4,19.2 -94,17.4 -14.7,-0.7 -27.8,-2.8 -39.1,-5.5 -13.5,9.3 -24.4,9.2 -29.1,8.7 -7.3,-0.7 -16.9,-4 -16.8,-7.2 0,-2.2 4.7,-4 6.8,-4.8 5.1,-2 9.6,-1.8 9.6,-2 0,-0.2 -3.7,0 -7.6,-0.4 -2.6,-0.3 -7.7,-0.7 -12.1,-3 -1.6,-0.8 -9.5,-4.7 -11,-12.3 -1.4,-6.9 2.8,-14.7 10.5,-19.3 7.1,-1.9 19.6,-4.2 34.7,-1.5 11.2,2 19.8,6 25.5,9.1 26.9,-6.6 53.8,-13.3 80.6,-19.9 0.5,-5.6 1.4,-13.8 2.5,-23.9 3.5,-31.9 5.2,-47.9 7.9,-61.4 6.6,-33.2 10.9,-54.9 27.7,-62.5 7.5,-3.3 18.4,-4.1 26.5,0.9 z"
   style="fill:#ffffff;stroke:#161616;stroke-width:3;stroke-miterlimit:10"
   id="path1278" />
		<path
   d="m 1015,326.8 c 3.3,20.5 6.3,50.8 3.6,87.2 -3,40.1 -4.7,60.1 -18.9,76.7 -21.3,24.9 -67.2,37.4 -102.9,27.3 -13.8,-3.9 -33.7,-12.8 -58.1,-7.8 -7,1.4 -17.7,4.7 -17.5,7.3 0.2,2 7.4,4 12.5,4.6 3.9,0.4 6.4,0.1 6.6,0.9 0.6,1.9 -10.7,5.1 -10.4,8.4 0.2,2.8 9.1,5 16.4,5.2 5.6,0.2 15.5,-0.5 27.5,-7.4 10.6,2.5 22.7,4.6 36,5.4 42.5,2.6 77.3,-8.5 99,-17.9 4.4,-7.9 10,-19 15.4,-32.8 16.7,-42.4 18.6,-77.7 18.9,-87.3 0.6,-14.4 0.1,-34.6 -4.6,-58.5 -0.7,-1.5 -3.7,-7.2 -10.6,-10.2 -5.8,-2.5 -11.1,-1.5 -12.9,-1.1 z"
   style="opacity:0.18;fill:#3d3d3d"
   id="path1280" />
		<path
   d="m 988.3,517.2 c -15.5,2.4 -24.5,4.9 -31.5,6.3 -28.4,6 -51.4,3.3 -59.5,2.3 -8.3,-0.9 -15.1,-2.3 -19.8,-3.3 -5.7,2.3 -14.2,5.2 -24.8,6.4 -13.6,1.5 -23.3,-0.5 -23.6,1.2 -0.3,1.6 8,5.8 16.8,6.8 13.4,1.5 24.3,-5 29.2,-8.4 6.2,1.7 15.1,3.9 26,5.2 57.9,7.1 108.8,-16.9 108.2,-19.1 -0.1,-0.7 -7.1,0.4 -21,2.6 z"
   style="opacity:0.21;fill:#3d3d3d"
   id="path1282" />
		<g
   id="g1288">
			<g
   id="g1286">
				<path
   d="m 820.8,517.4 c 9.4,-4 19.6,-4.8 29.5,-2.5 1.9,0.4 2.7,-2.5 0.8,-2.9 -10.8,-2.5 -21.6,-1.6 -31.8,2.8 -1.8,0.8 -0.2,3.4 1.5,2.6 z"
   style="fill:#161616"
   id="path1284" />
			</g>
		</g>
		<g
   id="g1294">
			<g
   id="g1292">
				<path
   d="m 815.5,507.8 c 11.1,-4 22.7,-5.3 34.4,-3.8 1.9,0.2 1.9,-2.8 0,-3 -11.9,-1.5 -23.9,-0.2 -35.2,3.9 -1.8,0.7 -1,3.6 0.8,2.9 z"
   style="fill:#161616"
   id="path1290" />
			</g>
		</g>
		<g
   id="g1300">
			<g
   id="g1298">
				<path
   d="m 818.3,497.6 c 11,-3.2 22.2,-4.4 33.6,-3.6 1.9,0.1 1.9,-2.9 0,-3 -11.6,-0.8 -23.2,0.5 -34.4,3.7 -1.9,0.5 -1.1,3.4 0.8,2.9 z"
   style="fill:#161616"
   id="path1296" />
			</g>
		</g>
	</g><path
   d="m 871.2,169.2 c -27.9,22.6 -26.8,68.6 -15.8,98.3 6.9,18.8 18.1,31.7 25.3,38.8 1.8,7.6 3.5,15.3 5.3,22.9 8.8,1.9 20.4,3.4 33.9,2.2 30.4,-2.8 51.8,-17.6 61.3,-25.3 -6.7,-16.6 -13.4,-33.2 -20.1,-49.9 -0.9,-6.1 -2.2,-15.5 -3.8,-26.9 -4.1,-29.9 -3.9,-31.5 -5.7,-36.3 -0.8,-2 -12.1,-30.6 -38.6,-35.7 -21.5,-4.1 -39.2,9.7 -41.8,11.9 z"
   style="fill:#ffffff;stroke:#161616;stroke-width:3;stroke-miterlimit:10"
   id="path1303" /><path
   d="m 848.2,245.7 c -1.6,6.3 -3.3,16.1 -2.1,28 0.8,7.9 2.1,21.6 12,34.8 10.7,14.3 25.2,19.7 31.3,21.7 -0.5,-1.6 -1,-3.6 -1.3,-5.9 -0.3,-2.5 -0.2,-4.7 0,-6.4 6.6,3.5 13.2,7.1 19.7,10.6 16.6,-15.2 22.1,-29 24,-39.1 1.5,-7.9 2.4,-22.4 6,-48.8 0.6,-4.7 1.9,-13.2 7.3,-15.3 2.5,-1 5.9,-0.6 8.2,1.3 6.6,5.5 -0.1,21.2 1.3,21.7 1.4,0.4 12.9,-15.4 9,-33.6 -2,-9.4 -7.5,-15.9 -10.7,-19.1 -7.2,11.3 -15.2,22.9 -24,34.8 -5.6,7.6 -11.2,14.8 -16.7,21.7 -2.1,1.1 -5.2,2.4 -8.8,2.1 -2.8,-0.2 -3.8,-1.2 -5.9,-1.8 -7.8,-2.2 -12,6.9 -19.6,5.7 -6.3,-1 -6.9,-7.7 -13.8,-7.9 -3.3,-0.1 -4.7,1.4 -8.1,0.7 -3.6,-0.8 -6.1,-3.2 -7.8,-5.2 z"
   style="fill:#161616;stroke:#161616;stroke-width:3;stroke-miterlimit:10"
   id="path1305" /><g
   id="g1311">
			<g
   id="g1309">
				<path
   d="m 880.4,219 c -2.4,10.9 -3.9,21.9 -4.5,33 -0.1,1.2 1.3,1.8 2.3,1.3 3.9,-2 7.8,-4 11.8,-6 1.7,-0.9 0.2,-3.5 -1.5,-2.6 -3.9,2 -7.8,4 -11.8,6 0.8,0.4 1.5,0.9 2.3,1.3 0.7,-10.9 2.1,-21.6 4.4,-32.2 0.3,-1.9 -2.6,-2.7 -3,-0.8 z"
   style="fill:#161616"
   id="path1307" />
			</g>
		</g><path
   d="m 864.7,225.1 c 1.1,1.7 1.3,4.3 0.4,4.8 -1.1,0.6 -4.2,-1.7 -4.6,-4.3 -0.1,-0.8 0,-2.2 0.7,-2.6 1,-0.5 2.7,0.8 3.5,2.1 z"
   style="fill:#161616;stroke:#161616;stroke-width:3;stroke-miterlimit:10"
   id="path1313" /><g
   id="g1319">
			<g
   id="g1317">
				<path
   d="m 859.5,214.8 c 3.5,-1.8 7.7,-1.5 10.9,1 1.5,1.2 3.6,-0.9 2.1,-2.1 -4.2,-3.4 -9.7,-4 -14.5,-1.5 -1.7,0.9 -0.2,3.5 1.5,2.6 z"
   style="fill:#161616"
   id="path1315" />
			</g>
		</g><g
   id="g1325">
			<g
   id="g1323">
				<path
   d="m 894.4,216.3 c 5,-3.3 11.8,-2.2 15.2,2.8 1.1,1.6 3.7,0.1 2.6,-1.5 -4.3,-6.2 -12.9,-8.1 -19.3,-3.9 -1.6,1.1 -0.1,3.7 1.5,2.6 z"
   style="fill:#161616"
   id="path1321" />
			</g>
		</g><g
   id="g1331">
			<g
   id="g1329">
				<path
   d="m 826.2,197.2 c 39.9,2.3 79.8,5.7 119.5,10 5.8,0.6 5.7,-8.4 0,-9 -39.7,-4.3 -79.6,-7.7 -119.5,-10 -5.8,-0.3 -5.8,8.7 0,9 z"
   style="fill:#161616"
   id="path1327" />
			</g>
		</g><path
   d="m 852.1,191.1 c 0.6,-6.1 3.1,-21.8 15.3,-34.5 15.9,-16.6 45.2,-23.6 68,-9.5 17.9,11.1 27.4,32.5 24.2,54.3 -35.9,-3.4 -71.7,-6.9 -107.5,-10.3 z"
   style="fill:#9759e4;fill-opacity:1"
   id="path1333" /><path
   d="m 902.5,142.7 c -4.7,3.9 -4.7,12 -3,20.7 1.8,9.5 6.4,21.1 13.4,32.9 15.5,1.8 31.1,3.6 46.6,5.4 0.7,-3.3 1.3,-8.2 0.7,-14.1 0,0 -1,-10.7 -6.7,-20.4 -11.4,-19.2 -41.2,-32.7 -51,-24.5 z"
   style="opacity:0.69;fill:#3a1da3"
   id="path1335" /><path
   d="m 951.2,253 c -3.5,1.9 -7,1.4 -8.2,1.2 1.5,2.9 4.6,9.1 6.8,17.8 2,8.2 4.9,19.4 1.1,32.3 -3.4,11.5 -10.6,19.1 -15.5,23.3 6,-1.1 13.9,-3.2 22.6,-7.5 10.1,-5 17.3,-11 22,-15.6 -7.4,-20.9 -14.7,-41.8 -22.1,-62.7 0,0.4 -0.4,7.9 -6.7,11.2 z"
   style="opacity:0.24;fill:#3d3d3d"
   id="path1337" /><path
   d="m 916.2,203.8 c 1.1,4.8 2.1,12 0.9,20.5 -2,14.3 -8.9,24.2 -12.6,28.7 2.2,-0.7 4.4,-1.4 6.6,-2.1 4.4,-5.3 8.8,-10.9 13.2,-16.7 7.2,-9.5 13.9,-18.8 19.9,-27.9 -9.3,-0.7 -18.7,-1.6 -28,-2.5 z"
   style="opacity:0.19;fill:#3d3d3d"
   id="path1339" /><path
   d="m 902.6,226 c 1.1,1.7 1.3,4.3 0.4,4.8 -1.1,0.6 -4.2,-1.7 -4.6,-4.3 -0.1,-0.8 0,-2.2 0.7,-2.6 1,-0.5 2.6,0.8 3.5,2.1 z"
   style="fill:#161616;stroke:#161616;stroke-width:3;stroke-miterlimit:10"
   id="path1341" /><circle
   cx="858.79999"
   cy="232.89999"
   style="fill:none;stroke:#161616;stroke-width:2;stroke-miterlimit:10"
   id="ellipse1343"
   r="18.1" /><circle
   cx="900.90002"
   cy="232.89999"
   style="fill:none;stroke:#161616;stroke-width:2;stroke-miterlimit:10"
   id="ellipse1345"
   r="18.1" /><g
   id="g1351">
			<g
   id="g1349">
				<path
   d="m 879,233.5 c 0.4,-0.5 1.2,-0.7 1.7,-0.3 0.6,0.5 1.5,0.6 2.1,0 0.5,-0.5 0.6,-1.6 0,-2.1 -1.7,-1.5 -4.4,-1.5 -5.9,0.3 -0.5,0.6 -0.6,1.5 0,2.1 0.5,0.6 1.6,0.6 2.1,0 z"
   style="fill:#161616"
   id="path1347" />
			</g>
		</g><g
   id="g1357">
			<g
   id="g1355">
				<path
   d="m 842.2,234.1 c 1.9,-1 3.8,-2.1 5.6,-3.3 1.6,-1 0.1,-3.6 -1.5,-2.6 -1.8,1.2 -3.7,2.3 -5.6,3.3 -1.8,0.9 -0.2,3.5 1.5,2.6 z"
   style="fill:#161616"
   id="path1353" />
			</g>
		</g><g
   id="g1363">
			<g
   id="g1361">
				<path
   d="m 920.1,233.8 c 8.3,-2.1 16.7,-4.1 25,-6.2 1.9,-0.5 1.1,-3.4 -0.8,-2.9 -8.3,2.1 -16.7,4.1 -25,6.2 -1.9,0.5 -1.1,3.4 0.8,2.9 z"
   style="fill:#161616"
   id="path1359" />
			</g>
		</g>
</svg>
